import {MidiTrack} from "./MidiTypes";

export const hbd: MidiTrack = {
    "header": {
        "keySignatures": [],
        "meta": [],
        "name": "",
        "ppq": 384,
        "tempos": [
            {
                "bpm": 92.00055200331202,
                "ticks": 0
            },
            {
                "bpm": 92.00055200331202,
                "ticks": 0
            }
        ],
        "timeSignatures": [
            {
                "ticks": 0,
                "timeSignature": [
                    4,
                    4
                ],
                "measures": 0
            },
            {
                "ticks": 0,
                "timeSignature": [
                    4,
                    4
                ],
                "measures": 0
            }
        ]
    },
    "tracks": [
        {
            "channel": 0,
            "controlChanges": {
                "10": [
                    {
                        "number": 10,
                        "ticks": 1536,
                        "time": 2.60868,
                        "value": 0.8661417322834646
                    }
                ],
                "64": [
                    {
                        "number": 64,
                        "ticks": 23824,
                        "time": 40.46171375,
                        "value": 0
                    }
                ],
                "93": [
                    {
                        "number": 93,
                        "ticks": 3072,
                        "time": 5.21736,
                        "value": 0.31496062992125984
                    }
                ]
            },
            "pitchBends": [
                {
                    "ticks": 23824,
                    "time": 40.46171375,
                    "value": 0
                }
            ],
            "instrument": {
                "family": "brass",
                "number": 56,
                "name": "trumpet"
            },
            "name": "MELODY",
            "notes": [
                {
                    "duration": 0.2513571875,
                    "durationTicks": 148,
                    "midi": 60,
                    "name": "C4",
                    "ticks": 3840,
                    "time": 6.5217,
                    "velocity": 0.84251968503937
                },
                {
                    "duration": 0.2717374999999995,
                    "durationTicks": 160,
                    "midi": 63,
                    "name": "D#4",
                    "ticks": 3840,
                    "time": 6.5217,
                    "velocity": 0.8503937007874016
                },
                {
                    "duration": 0.10869500000000087,
                    "durationTicks": 64,
                    "midi": 60,
                    "name": "C4",
                    "ticks": 4096,
                    "time": 6.95648,
                    "velocity": 0.8188976377952756
                },
                {
                    "duration": 0.12907531250000037,
                    "durationTicks": 76,
                    "midi": 63,
                    "name": "D#4",
                    "ticks": 4096,
                    "time": 6.95648,
                    "velocity": 0.8661417322834646
                },
                {
                    "duration": 0.5910290625000005,
                    "durationTicks": 348,
                    "midi": 65,
                    "name": "F4",
                    "ticks": 4228,
                    "time": 7.1806634375,
                    "velocity": 0.8582677165354331
                },
                {
                    "duration": 0.5027143750000009,
                    "durationTicks": 296,
                    "midi": 60,
                    "name": "C4",
                    "ticks": 4228,
                    "time": 7.1806634375,
                    "velocity": 0.8818897637795275
                },
                {
                    "duration": 0.5774421874999991,
                    "durationTicks": 340,
                    "midi": 63,
                    "name": "D#4",
                    "ticks": 4608,
                    "time": 7.826040000000001,
                    "velocity": 0.8346456692913385
                },
                {
                    "duration": 0.5163012499999997,
                    "durationTicks": 304,
                    "midi": 60,
                    "name": "C4",
                    "ticks": 4608,
                    "time": 7.826040000000001,
                    "velocity": 0.8582677165354331
                },
                {
                    "duration": 0.6114093750000009,
                    "durationTicks": 360,
                    "midi": 60,
                    "name": "C4",
                    "ticks": 4996,
                    "time": 8.4850034375,
                    "velocity": 0.8267716535433071
                },
                {
                    "duration": 0.6317896874999995,
                    "durationTicks": 372,
                    "midi": 68,
                    "name": "G#4",
                    "ticks": 4996,
                    "time": 8.4850034375,
                    "velocity": 0.8188976377952756
                },
                {
                    "duration": 0.7540715625000001,
                    "durationTicks": 444,
                    "midi": 61,
                    "name": "C#4",
                    "ticks": 5376,
                    "time": 9.13038,
                    "velocity": 0.8503937007874016
                },
                {
                    "duration": 0.7744518750000005,
                    "durationTicks": 456,
                    "midi": 67,
                    "name": "G4",
                    "ticks": 5380,
                    "time": 9.1371734375,
                    "velocity": 0.8188976377952756
                },
                {
                    "duration": 0.27853093749999935,
                    "durationTicks": 164,
                    "midi": 63,
                    "name": "D#4",
                    "ticks": 6144,
                    "time": 10.43472,
                    "velocity": 0.8188976377952756
                },
                {
                    "duration": 0.2649440624999997,
                    "durationTicks": 156,
                    "midi": 61,
                    "name": "C#4",
                    "ticks": 6144,
                    "time": 10.43472,
                    "velocity": 0.8346456692913385
                },
                {
                    "duration": 0.1358687500000002,
                    "durationTicks": 80,
                    "midi": 63,
                    "name": "D#4",
                    "ticks": 6400,
                    "time": 10.8695,
                    "velocity": 0.8031496062992126
                },
                {
                    "duration": 0.08831468749999871,
                    "durationTicks": 52,
                    "midi": 61,
                    "name": "C#4",
                    "ticks": 6400,
                    "time": 10.8695,
                    "velocity": 0.8031496062992126
                },
                {
                    "duration": 0.5163012500000015,
                    "durationTicks": 304,
                    "midi": 61,
                    "name": "C#4",
                    "ticks": 6528,
                    "time": 11.08689,
                    "velocity": 0.8346456692913385
                },
                {
                    "duration": 0.5706487500000001,
                    "durationTicks": 336,
                    "midi": 65,
                    "name": "F4",
                    "ticks": 6532,
                    "time": 11.093683437500001,
                    "velocity": 0.7874015748031497
                },
                {
                    "duration": 0.543474999999999,
                    "durationTicks": 320,
                    "midi": 63,
                    "name": "D#4",
                    "ticks": 6912,
                    "time": 11.73906,
                    "velocity": 0.8110236220472441
                },
                {
                    "duration": 0.5163012500000015,
                    "durationTicks": 304,
                    "midi": 61,
                    "name": "C#4",
                    "ticks": 6912,
                    "time": 11.73906,
                    "velocity": 0.8661417322834646
                },
                {
                    "duration": 0.543474999999999,
                    "durationTicks": 320,
                    "midi": 61,
                    "name": "C#4",
                    "ticks": 7296,
                    "time": 12.39123,
                    "velocity": 0.889763779527559
                },
                {
                    "duration": 0.5366815624999983,
                    "durationTicks": 316,
                    "midi": 70,
                    "name": "A#4",
                    "ticks": 7300,
                    "time": 12.398023437500001,
                    "velocity": 0.8346456692913385
                },
                {
                    "duration": 0.9646681249999993,
                    "durationTicks": 568,
                    "midi": 68,
                    "name": "G#4",
                    "ticks": 7684,
                    "time": 13.0501934375,
                    "velocity": 0.7952755905511811
                },
                {
                    "duration": 0.9171140625000014,
                    "durationTicks": 540,
                    "midi": 60,
                    "name": "C4",
                    "ticks": 7684,
                    "time": 13.0501934375,
                    "velocity": 0.8818897637795275
                },
                {
                    "duration": 0.29891124999999974,
                    "durationTicks": 176,
                    "midi": 60,
                    "name": "C4",
                    "ticks": 8448,
                    "time": 14.34774,
                    "velocity": 0.84251968503937
                },
                {
                    "duration": 0.2921178125000008,
                    "durationTicks": 172,
                    "midi": 63,
                    "name": "D#4",
                    "ticks": 8448,
                    "time": 14.34774,
                    "velocity": 0.952755905511811
                },
                {
                    "duration": 0.1766293749999992,
                    "durationTicks": 104,
                    "midi": 63,
                    "name": "D#4",
                    "ticks": 8704,
                    "time": 14.782520000000002,
                    "velocity": 0.9212598425196851
                },
                {
                    "duration": 0.18342281249999992,
                    "durationTicks": 108,
                    "midi": 60,
                    "name": "C4",
                    "ticks": 8704,
                    "time": 14.782520000000002,
                    "velocity": 0.84251968503937
                },
                {
                    "duration": 0.5366815625000001,
                    "durationTicks": 316,
                    "midi": 72,
                    "name": "C5",
                    "ticks": 8836,
                    "time": 15.0067034375,
                    "velocity": 0.8976377952755905
                },
                {
                    "duration": 0.5366815625000001,
                    "durationTicks": 316,
                    "midi": 75,
                    "name": "D#5",
                    "ticks": 8836,
                    "time": 15.0067034375,
                    "velocity": 0.8503937007874016
                },
                {
                    "duration": 0.6046159374999966,
                    "durationTicks": 356,
                    "midi": 72,
                    "name": "C5",
                    "ticks": 9216,
                    "time": 15.652080000000002,
                    "velocity": 0.8582677165354331
                },
                {
                    "duration": 0.5095078125000008,
                    "durationTicks": 300,
                    "midi": 68,
                    "name": "G#4",
                    "ticks": 9216,
                    "time": 15.652080000000002,
                    "velocity": 0.889763779527559
                },
                {
                    "duration": 0.3600521874999991,
                    "durationTicks": 212,
                    "midi": 60,
                    "name": "C4",
                    "ticks": 9600,
                    "time": 16.30425,
                    "velocity": 0.8976377952755905
                },
                {
                    "duration": 0.35325875000000195,
                    "durationTicks": 208,
                    "midi": 68,
                    "name": "G#4",
                    "ticks": 9600,
                    "time": 16.30425,
                    "velocity": 0.8661417322834646
                },
                {
                    "duration": 0.1902162499999953,
                    "durationTicks": 112,
                    "midi": 68,
                    "name": "G#4",
                    "ticks": 9856,
                    "time": 16.739030000000003,
                    "velocity": 0.8346456692913385
                },
                {
                    "duration": 0.20380312499999675,
                    "durationTicks": 120,
                    "midi": 60,
                    "name": "C4",
                    "ticks": 9856,
                    "time": 16.739030000000003,
                    "velocity": 0.8267716535433071
                },
                {
                    "duration": 0.6793437499999975,
                    "durationTicks": 400,
                    "midi": 67,
                    "name": "G4",
                    "ticks": 9988,
                    "time": 16.963213437500002,
                    "velocity": 0.8818897637795275
                },
                {
                    "duration": 1.161677812499999,
                    "durationTicks": 684,
                    "midi": 61,
                    "name": "C#4",
                    "ticks": 9988,
                    "time": 16.963213437500002,
                    "velocity": 0.952755905511811
                },
                {
                    "duration": 0.502714375,
                    "durationTicks": 296,
                    "midi": 65,
                    "name": "F4",
                    "ticks": 10368,
                    "time": 17.60859,
                    "velocity": 0.8582677165354331
                },
                {
                    "duration": 0.3600521874999991,
                    "durationTicks": 212,
                    "midi": 65,
                    "name": "F4",
                    "ticks": 10752,
                    "time": 18.26076,
                    "velocity": 0.8976377952755905
                },
                {
                    "duration": 0.37363906250000056,
                    "durationTicks": 220,
                    "midi": 73,
                    "name": "C#5",
                    "ticks": 10752,
                    "time": 18.26076,
                    "velocity": 0.8346456692913385
                },
                {
                    "duration": 0.10869499999999732,
                    "durationTicks": 64,
                    "midi": 65,
                    "name": "F4",
                    "ticks": 11008,
                    "time": 18.69554,
                    "velocity": 0.7559055118110236
                },
                {
                    "duration": 0.1494556249999981,
                    "durationTicks": 88,
                    "midi": 73,
                    "name": "C#5",
                    "ticks": 11008,
                    "time": 18.69554,
                    "velocity": 0.8110236220472441
                },
                {
                    "duration": 0.6657568749999996,
                    "durationTicks": 392,
                    "midi": 72,
                    "name": "C5",
                    "ticks": 11136,
                    "time": 18.91293,
                    "velocity": 0.7322834645669292
                },
                {
                    "duration": 0.5502684375000015,
                    "durationTicks": 324,
                    "midi": 63,
                    "name": "D#4",
                    "ticks": 11140,
                    "time": 18.9197234375,
                    "velocity": 0.8661417322834646
                },
                {
                    "duration": 0.5230946874999987,
                    "durationTicks": 308,
                    "midi": 60,
                    "name": "C4",
                    "ticks": 11520,
                    "time": 19.5651,
                    "velocity": 0.8582677165354331
                },
                {
                    "duration": 0.5434749999999973,
                    "durationTicks": 320,
                    "midi": 68,
                    "name": "G#4",
                    "ticks": 11520,
                    "time": 19.5651,
                    "velocity": 0.8661417322834646
                },
                {
                    "duration": 0.5434750000000008,
                    "durationTicks": 320,
                    "midi": 61,
                    "name": "C#4",
                    "ticks": 11904,
                    "time": 20.21727,
                    "velocity": 0.952755905511811
                },
                {
                    "duration": 0.5774421875000009,
                    "durationTicks": 340,
                    "midi": 70,
                    "name": "A#4",
                    "ticks": 11904,
                    "time": 20.21727,
                    "velocity": 0.889763779527559
                },
                {
                    "duration": 0.7676584375000033,
                    "durationTicks": 452,
                    "midi": 68,
                    "name": "G#4",
                    "ticks": 12292,
                    "time": 20.876233437499998,
                    "velocity": 0.8188976377952756
                },
                {
                    "duration": 0.7336912499999997,
                    "durationTicks": 432,
                    "midi": 60,
                    "name": "C4",
                    "ticks": 12292,
                    "time": 20.876233437499998,
                    "velocity": 0.7874015748031497
                },
                {
                    "duration": 0.292117812499999,
                    "durationTicks": 172,
                    "midi": 60,
                    "name": "C4",
                    "ticks": 13056,
                    "time": 22.17378,
                    "velocity": 0.8582677165354331
                },
                {
                    "duration": 0.30570468750000046,
                    "durationTicks": 180,
                    "midi": 63,
                    "name": "D#4",
                    "ticks": 13056,
                    "time": 22.17378,
                    "velocity": 0.8503937007874016
                },
                {
                    "duration": 0.1154884375000016,
                    "durationTicks": 68,
                    "midi": 60,
                    "name": "C4",
                    "ticks": 13312,
                    "time": 22.60856,
                    "velocity": 0.8188976377952756
                },
                {
                    "duration": 0.14266218749999737,
                    "durationTicks": 84,
                    "midi": 63,
                    "name": "D#4",
                    "ticks": 13312,
                    "time": 22.60856,
                    "velocity": 0.8188976377952756
                },
                {
                    "duration": 0.5095078124999972,
                    "durationTicks": 300,
                    "midi": 60,
                    "name": "C4",
                    "ticks": 13440,
                    "time": 22.825950000000002,
                    "velocity": 0.8188976377952756
                },
                {
                    "duration": 0.5366815625000037,
                    "durationTicks": 316,
                    "midi": 65,
                    "name": "F4",
                    "ticks": 13444,
                    "time": 22.8327434375,
                    "velocity": 0.8031496062992126
                },
                {
                    "duration": 0.4687471875,
                    "durationTicks": 276,
                    "midi": 60,
                    "name": "C4",
                    "ticks": 13824,
                    "time": 23.47812,
                    "velocity": 0.8818897637795275
                },
                {
                    "duration": 0.5298881249999994,
                    "durationTicks": 312,
                    "midi": 63,
                    "name": "D#4",
                    "ticks": 13824,
                    "time": 23.47812,
                    "velocity": 0.889763779527559
                },
                {
                    "duration": 0.5095078124999972,
                    "durationTicks": 300,
                    "midi": 60,
                    "name": "C4",
                    "ticks": 14208,
                    "time": 24.130290000000002,
                    "velocity": 0.8976377952755905
                },
                {
                    "duration": 0.5638553124999994,
                    "durationTicks": 332,
                    "midi": 68,
                    "name": "G#4",
                    "ticks": 14208,
                    "time": 24.130290000000002,
                    "velocity": 0.7874015748031497
                },
                {
                    "duration": 0.8152124999999977,
                    "durationTicks": 480,
                    "midi": 61,
                    "name": "C#4",
                    "ticks": 14596,
                    "time": 24.7892534375,
                    "velocity": 0.889763779527559
                },
                {
                    "duration": 0.8355928124999998,
                    "durationTicks": 492,
                    "midi": 67,
                    "name": "G4",
                    "ticks": 14596,
                    "time": 24.7892534375,
                    "velocity": 0.8267716535433071
                },
                {
                    "duration": 0.2649440624999997,
                    "durationTicks": 156,
                    "midi": 61,
                    "name": "C#4",
                    "ticks": 15360,
                    "time": 26.0868,
                    "velocity": 0.889763779527559
                },
                {
                    "duration": 0.27853093750000113,
                    "durationTicks": 164,
                    "midi": 63,
                    "name": "D#4",
                    "ticks": 15360,
                    "time": 26.0868,
                    "velocity": 0.889763779527559
                },
                {
                    "duration": 0.14266218750000093,
                    "durationTicks": 84,
                    "midi": 63,
                    "name": "D#4",
                    "ticks": 15616,
                    "time": 26.52158,
                    "velocity": 0.8110236220472441
                },
                {
                    "duration": 0.08831468750000226,
                    "durationTicks": 52,
                    "midi": 61,
                    "name": "C#4",
                    "ticks": 15616,
                    "time": 26.52158,
                    "velocity": 0.8031496062992126
                },
                {
                    "duration": 0.6249962500000024,
                    "durationTicks": 368,
                    "midi": 65,
                    "name": "F4",
                    "ticks": 15748,
                    "time": 26.7457634375,
                    "velocity": 0.8188976377952756
                },
                {
                    "duration": 0.5502684375000015,
                    "durationTicks": 324,
                    "midi": 61,
                    "name": "C#4",
                    "ticks": 15748,
                    "time": 26.7457634375,
                    "velocity": 0.889763779527559
                },
                {
                    "duration": 0.45516031249999855,
                    "durationTicks": 268,
                    "midi": 61,
                    "name": "C#4",
                    "ticks": 16128,
                    "time": 27.39114,
                    "velocity": 0.889763779527559
                },
                {
                    "duration": 0.5163012499999979,
                    "durationTicks": 304,
                    "midi": 63,
                    "name": "D#4",
                    "ticks": 16128,
                    "time": 27.39114,
                    "velocity": 0.9212598425196851
                },
                {
                    "duration": 0.5163012499999979,
                    "durationTicks": 304,
                    "midi": 61,
                    "name": "C#4",
                    "ticks": 16512,
                    "time": 28.04331,
                    "velocity": 0.9212598425196851
                },
                {
                    "duration": 0.5298881249999994,
                    "durationTicks": 312,
                    "midi": 70,
                    "name": "A#4",
                    "ticks": 16512,
                    "time": 28.04331,
                    "velocity": 0.8503937007874016
                },
                {
                    "duration": 0.8491796875000013,
                    "durationTicks": 500,
                    "midi": 60,
                    "name": "C4",
                    "ticks": 16896,
                    "time": 28.69548,
                    "velocity": 0.8976377952755905
                },
                {
                    "duration": 0.9307009374999993,
                    "durationTicks": 548,
                    "midi": 68,
                    "name": "G#4",
                    "ticks": 16900,
                    "time": 28.7022734375,
                    "velocity": 0.7952755905511811
                },
                {
                    "duration": 0.28532437500000185,
                    "durationTicks": 168,
                    "midi": 60,
                    "name": "C4",
                    "ticks": 17664,
                    "time": 29.99982,
                    "velocity": 0.7716535433070866
                },
                {
                    "duration": 0.30570468750000046,
                    "durationTicks": 180,
                    "midi": 63,
                    "name": "D#4",
                    "ticks": 17664,
                    "time": 29.99982,
                    "velocity": 0.8110236220472441
                },
                {
                    "duration": 0.2038031250000003,
                    "durationTicks": 120,
                    "midi": 60,
                    "name": "C4",
                    "ticks": 17920,
                    "time": 30.4346,
                    "velocity": 0.84251968503937
                },
                {
                    "duration": 0.19021625000000242,
                    "durationTicks": 112,
                    "midi": 63,
                    "name": "D#4",
                    "ticks": 17920,
                    "time": 30.4346,
                    "velocity": 0.889763779527559
                },
                {
                    "duration": 0.5570618749999987,
                    "durationTicks": 328,
                    "midi": 72,
                    "name": "C5",
                    "ticks": 18048,
                    "time": 30.65199,
                    "velocity": 0.84251968503937
                },
                {
                    "duration": 0.563855312500003,
                    "durationTicks": 332,
                    "midi": 75,
                    "name": "D#5",
                    "ticks": 18052,
                    "time": 30.6587834375,
                    "velocity": 0.8110236220472441
                },
                {
                    "duration": 0.5163012499999979,
                    "durationTicks": 304,
                    "midi": 68,
                    "name": "G#4",
                    "ticks": 18432,
                    "time": 31.304160000000003,
                    "velocity": 0.8503937007874016
                },
                {
                    "duration": 0.6114093749999974,
                    "durationTicks": 360,
                    "midi": 72,
                    "name": "C5",
                    "ticks": 18432,
                    "time": 31.304160000000003,
                    "velocity": 0.8267716535433071
                },
                {
                    "duration": 0.31929156249999835,
                    "durationTicks": 188,
                    "midi": 68,
                    "name": "G#4",
                    "ticks": 18816,
                    "time": 31.95633,
                    "velocity": 0.8503937007874016
                },
                {
                    "duration": 0.35325875000000195,
                    "durationTicks": 208,
                    "midi": 60,
                    "name": "C4",
                    "ticks": 18816,
                    "time": 31.95633,
                    "velocity": 0.8188976377952756
                },
                {
                    "duration": 0.17662937500000453,
                    "durationTicks": 104,
                    "midi": 68,
                    "name": "G#4",
                    "ticks": 19072,
                    "time": 32.39111,
                    "velocity": 0.7559055118110236
                },
                {
                    "duration": 0.19021625000000597,
                    "durationTicks": 112,
                    "midi": 60,
                    "name": "C4",
                    "ticks": 19072,
                    "time": 32.39111,
                    "velocity": 0.8031496062992126
                },
                {
                    "duration": 0.6861371875000017,
                    "durationTicks": 404,
                    "midi": 67,
                    "name": "G4",
                    "ticks": 19204,
                    "time": 32.6152934375,
                    "velocity": 0.8582677165354331
                },
                {
                    "duration": 1.2296121875000026,
                    "durationTicks": 724,
                    "midi": 61,
                    "name": "C#4",
                    "ticks": 19204,
                    "time": 32.6152934375,
                    "velocity": 0.8503937007874016
                },
                {
                    "duration": 0.48912749999999505,
                    "durationTicks": 288,
                    "midi": 65,
                    "name": "F4",
                    "ticks": 19584,
                    "time": 33.260670000000005,
                    "velocity": 0.8818897637795275
                },
                {
                    "duration": 0.34646531250000123,
                    "durationTicks": 204,
                    "midi": 65,
                    "name": "F4",
                    "ticks": 19968,
                    "time": 33.91284,
                    "velocity": 0.84251968503937
                },
                {
                    "duration": 0.32608499999999907,
                    "durationTicks": 192,
                    "midi": 73,
                    "name": "C#5",
                    "ticks": 19968,
                    "time": 33.91284,
                    "velocity": 0.8188976377952756
                },
                {
                    "duration": 0.15624906250000237,
                    "durationTicks": 92,
                    "midi": 73,
                    "name": "C#5",
                    "ticks": 20224,
                    "time": 34.34762,
                    "velocity": 0.8031496062992126
                },
                {
                    "duration": 0.10869500000000443,
                    "durationTicks": 64,
                    "midi": 65,
                    "name": "F4",
                    "ticks": 20224,
                    "time": 34.34762,
                    "velocity": 0.7795275590551181
                },
                {
                    "duration": 0.6929306249999954,
                    "durationTicks": 408,
                    "midi": 72,
                    "name": "C5",
                    "ticks": 20356,
                    "time": 34.5718034375,
                    "velocity": 0.7480314960629921
                },
                {
                    "duration": 0.5434750000000008,
                    "durationTicks": 320,
                    "midi": 63,
                    "name": "D#4",
                    "ticks": 20356,
                    "time": 34.5718034375,
                    "velocity": 0.952755905511811
                },
                {
                    "duration": 0.4619537500000064,
                    "durationTicks": 272,
                    "midi": 60,
                    "name": "C4",
                    "ticks": 20736,
                    "time": 35.21718,
                    "velocity": 0.8267716535433071
                },
                {
                    "duration": 0.5027143750000036,
                    "durationTicks": 296,
                    "midi": 68,
                    "name": "G#4",
                    "ticks": 20736,
                    "time": 35.21718,
                    "velocity": 0.8346456692913385
                },
                {
                    "duration": 0.48912749999999505,
                    "durationTicks": 288,
                    "midi": 61,
                    "name": "C#4",
                    "ticks": 21120,
                    "time": 35.869350000000004,
                    "velocity": 0.952755905511811
                },
                {
                    "duration": 0.5570618749999952,
                    "durationTicks": 328,
                    "midi": 70,
                    "name": "A#4",
                    "ticks": 21120,
                    "time": 35.869350000000004,
                    "velocity": 0.8503937007874016
                },
                {
                    "duration": 2.112759062500004,
                    "durationTicks": 1244,
                    "midi": 60,
                    "name": "C4",
                    "ticks": 21504,
                    "time": 36.52152,
                    "velocity": 0.7874015748031497
                },
                {
                    "duration": 2.1263459374999982,
                    "durationTicks": 1252,
                    "midi": 68,
                    "name": "G#4",
                    "ticks": 21508,
                    "time": 36.5283134375,
                    "velocity": 0.8346456692913385
                }
            ],
            "endOfTrackTicks": 24016
        },
        {
            "channel": 1,
            "controlChanges": {
                "10": [
                    {
                        "number": 10,
                        "ticks": 1536,
                        "time": 2.60868,
                        "value": 0.7874015748031497
                    }
                ],
                "64": [
                    {
                        "number": 64,
                        "ticks": 23824,
                        "time": 40.46171375,
                        "value": 0
                    }
                ],
                "93": [
                    {
                        "number": 93,
                        "ticks": 3740,
                        "time": 6.351864062500001,
                        "value": 0
                    }
                ]
            },
            "pitchBends": [
                {
                    "ticks": 23824,
                    "time": 40.46171375,
                    "value": 0
                }
            ],
            "instrument": {
                "family": "chromatic percussion",
                "number": 11,
                "name": "vibraphone"
            },
            "name": "VIBRAPHONE",
            "notes": [
                {
                    "duration": 0.1358687500000002,
                    "durationTicks": 80,
                    "midi": 75,
                    "name": "D#5",
                    "ticks": 3840,
                    "time": 6.5217,
                    "velocity": 0.9291338582677166
                },
                {
                    "duration": 0.1154884375000007,
                    "durationTicks": 68,
                    "midi": 75,
                    "name": "D#5",
                    "ticks": 4096,
                    "time": 6.95648,
                    "velocity": 0.8976377952755905
                },
                {
                    "duration": 0.1562490625000006,
                    "durationTicks": 92,
                    "midi": 77,
                    "name": "F5",
                    "ticks": 4228,
                    "time": 7.1806634375,
                    "velocity": 0.8346456692913385
                },
                {
                    "duration": 0.08831468750000138,
                    "durationTicks": 52,
                    "midi": 75,
                    "name": "D#5",
                    "ticks": 4612,
                    "time": 7.8328334375,
                    "velocity": 0.9291338582677166
                },
                {
                    "duration": 0.09510812500000121,
                    "durationTicks": 56,
                    "midi": 80,
                    "name": "G#5",
                    "ticks": 4996,
                    "time": 8.4850034375,
                    "velocity": 1
                },
                {
                    "duration": 0.1154884375000016,
                    "durationTicks": 68,
                    "midi": 79,
                    "name": "G5",
                    "ticks": 5380,
                    "time": 9.1371734375,
                    "velocity": 1
                },
                {
                    "duration": 0.11548843749999982,
                    "durationTicks": 68,
                    "midi": 75,
                    "name": "D#5",
                    "ticks": 6148,
                    "time": 10.441513437500001,
                    "velocity": 0.9606299212598425
                },
                {
                    "duration": 0.08152124999999977,
                    "durationTicks": 48,
                    "midi": 75,
                    "name": "D#5",
                    "ticks": 6404,
                    "time": 10.8762934375,
                    "velocity": 0.8740157480314961
                },
                {
                    "duration": 0.16983593749999848,
                    "durationTicks": 100,
                    "midi": 77,
                    "name": "F5",
                    "ticks": 6532,
                    "time": 11.093683437500001,
                    "velocity": 0.9291338582677166
                },
                {
                    "duration": 0.08831468749999871,
                    "durationTicks": 52,
                    "midi": 75,
                    "name": "D#5",
                    "ticks": 6916,
                    "time": 11.745853437500001,
                    "velocity": 0.9606299212598425
                },
                {
                    "duration": 0.09510812499999943,
                    "durationTicks": 56,
                    "midi": 82,
                    "name": "A#5",
                    "ticks": 7300,
                    "time": 12.398023437500001,
                    "velocity": 1
                },
                {
                    "duration": 0.10190156250000015,
                    "durationTicks": 60,
                    "midi": 80,
                    "name": "G#5",
                    "ticks": 7684,
                    "time": 13.0501934375,
                    "velocity": 1
                },
                {
                    "duration": 0.11548843749999982,
                    "durationTicks": 68,
                    "midi": 75,
                    "name": "D#5",
                    "ticks": 8452,
                    "time": 14.3545334375,
                    "velocity": 0.9291338582677166
                },
                {
                    "duration": 0.08152124999999977,
                    "durationTicks": 48,
                    "midi": 75,
                    "name": "D#5",
                    "ticks": 8708,
                    "time": 14.7893134375,
                    "velocity": 0.84251968503937
                },
                {
                    "duration": 0.1766293749999992,
                    "durationTicks": 104,
                    "midi": 87,
                    "name": "D#6",
                    "ticks": 8836,
                    "time": 15.0067034375,
                    "velocity": 0.9291338582677166
                },
                {
                    "duration": 0.11548843749999804,
                    "durationTicks": 68,
                    "midi": 84,
                    "name": "C6",
                    "ticks": 9220,
                    "time": 15.658873437500002,
                    "velocity": 0.9606299212598425
                },
                {
                    "duration": 0.12907531249999948,
                    "durationTicks": 76,
                    "midi": 80,
                    "name": "G#5",
                    "ticks": 9604,
                    "time": 16.3110434375,
                    "velocity": 0.9921259842519685
                },
                {
                    "duration": 0.08152124999999799,
                    "durationTicks": 48,
                    "midi": 80,
                    "name": "G#5",
                    "ticks": 9860,
                    "time": 16.7458234375,
                    "velocity": 0.9291338582677166
                },
                {
                    "duration": 0.11548843749999804,
                    "durationTicks": 68,
                    "midi": 79,
                    "name": "G5",
                    "ticks": 9988,
                    "time": 16.963213437500002,
                    "velocity": 0.9921259842519685
                },
                {
                    "duration": 0.14266218750000093,
                    "durationTicks": 84,
                    "midi": 77,
                    "name": "F5",
                    "ticks": 10372,
                    "time": 17.6153834375,
                    "velocity": 0.9606299212598425
                },
                {
                    "duration": 0.12907531249999948,
                    "durationTicks": 76,
                    "midi": 85,
                    "name": "C#6",
                    "ticks": 10756,
                    "time": 18.267553437500002,
                    "velocity": 0.9921259842519685
                },
                {
                    "duration": 0.08831468750000226,
                    "durationTicks": 52,
                    "midi": 85,
                    "name": "C#6",
                    "ticks": 11012,
                    "time": 18.7023334375,
                    "velocity": 0.9291338582677166
                },
                {
                    "duration": 0.15624906250000237,
                    "durationTicks": 92,
                    "midi": 84,
                    "name": "C6",
                    "ticks": 11140,
                    "time": 18.9197234375,
                    "velocity": 1
                },
                {
                    "duration": 0.08831468749999871,
                    "durationTicks": 52,
                    "midi": 80,
                    "name": "G#5",
                    "ticks": 11524,
                    "time": 19.5718934375,
                    "velocity": 1
                },
                {
                    "duration": 0.10190156250000015,
                    "durationTicks": 60,
                    "midi": 82,
                    "name": "A#5",
                    "ticks": 11908,
                    "time": 20.2240634375,
                    "velocity": 1
                },
                {
                    "duration": 0.07472781250000438,
                    "durationTicks": 44,
                    "midi": 80,
                    "name": "G#5",
                    "ticks": 12292,
                    "time": 20.876233437499998,
                    "velocity": 1
                },
                {
                    "duration": 0.1494556250000052,
                    "durationTicks": 88,
                    "midi": 75,
                    "name": "D#5",
                    "ticks": 13060,
                    "time": 22.180573437499998,
                    "velocity": 0.9921259842519685
                },
                {
                    "duration": 0.12228187500000232,
                    "durationTicks": 72,
                    "midi": 75,
                    "name": "D#5",
                    "ticks": 13316,
                    "time": 22.6153534375,
                    "velocity": 0.9921259842519685
                },
                {
                    "duration": 0.18342281249999814,
                    "durationTicks": 108,
                    "midi": 77,
                    "name": "F5",
                    "ticks": 13444,
                    "time": 22.8327434375,
                    "velocity": 0.8346456692913385
                },
                {
                    "duration": 0.09510812500000299,
                    "durationTicks": 56,
                    "midi": 75,
                    "name": "D#5",
                    "ticks": 13828,
                    "time": 23.484913437499998,
                    "velocity": 0.9291338582677166
                },
                {
                    "duration": 0.08831468750000226,
                    "durationTicks": 52,
                    "midi": 80,
                    "name": "G#5",
                    "ticks": 14212,
                    "time": 24.1370834375,
                    "velocity": 1
                },
                {
                    "duration": 0.10190156250000015,
                    "durationTicks": 60,
                    "midi": 79,
                    "name": "G5",
                    "ticks": 14596,
                    "time": 24.7892534375,
                    "velocity": 0.9606299212598425
                },
                {
                    "duration": 0.10190156250000015,
                    "durationTicks": 60,
                    "midi": 75,
                    "name": "D#5",
                    "ticks": 15364,
                    "time": 26.0935934375,
                    "velocity": 0.9606299212598425
                },
                {
                    "duration": 0.07472781249999372,
                    "durationTicks": 44,
                    "midi": 75,
                    "name": "D#5",
                    "ticks": 15620,
                    "time": 26.528373437500004,
                    "velocity": 0.8582677165354331
                },
                {
                    "duration": 0.16304249999999954,
                    "durationTicks": 96,
                    "midi": 77,
                    "name": "F5",
                    "ticks": 15748,
                    "time": 26.7457634375,
                    "velocity": 0.9921259842519685
                },
                {
                    "duration": 0.1358687500000002,
                    "durationTicks": 80,
                    "midi": 75,
                    "name": "D#5",
                    "ticks": 16132,
                    "time": 27.3979334375,
                    "velocity": 1
                },
                {
                    "duration": 0.12907531250000304,
                    "durationTicks": 76,
                    "midi": 82,
                    "name": "A#5",
                    "ticks": 16516,
                    "time": 28.0501034375,
                    "velocity": 1
                },
                {
                    "duration": 0.15624906250000237,
                    "durationTicks": 92,
                    "midi": 80,
                    "name": "G#5",
                    "ticks": 16900,
                    "time": 28.7022734375,
                    "velocity": 1
                },
                {
                    "duration": 0.1698359375000038,
                    "durationTicks": 100,
                    "midi": 75,
                    "name": "D#5",
                    "ticks": 17668,
                    "time": 30.0066134375,
                    "velocity": 0.9606299212598425
                },
                {
                    "duration": 0.12228187499999876,
                    "durationTicks": 72,
                    "midi": 75,
                    "name": "D#5",
                    "ticks": 17924,
                    "time": 30.441393437500004,
                    "velocity": 0.8582677165354331
                },
                {
                    "duration": 0.29211781250000257,
                    "durationTicks": 172,
                    "midi": 87,
                    "name": "D#6",
                    "ticks": 18052,
                    "time": 30.6587834375,
                    "velocity": 0.9291338582677166
                },
                {
                    "duration": 0.24456375000000108,
                    "durationTicks": 144,
                    "midi": 85,
                    "name": "C#6",
                    "ticks": 18052,
                    "time": 30.6587834375,
                    "velocity": 0.5905511811023622
                },
                {
                    "duration": 0.18342281249999814,
                    "durationTicks": 108,
                    "midi": 84,
                    "name": "C6",
                    "ticks": 18436,
                    "time": 31.3109534375,
                    "velocity": 0.889763779527559
                },
                {
                    "duration": 0.09510812499999943,
                    "durationTicks": 56,
                    "midi": 80,
                    "name": "G#5",
                    "ticks": 18820,
                    "time": 31.9631234375,
                    "velocity": 0.9921259842519685
                },
                {
                    "duration": 0.07472781249999372,
                    "durationTicks": 44,
                    "midi": 80,
                    "name": "G#5",
                    "ticks": 19076,
                    "time": 32.397903437500005,
                    "velocity": 0.9921259842519685
                },
                {
                    "duration": 0.11548843749999804,
                    "durationTicks": 68,
                    "midi": 79,
                    "name": "G5",
                    "ticks": 19204,
                    "time": 32.6152934375,
                    "velocity": 0.905511811023622
                },
                {
                    "duration": 0.1358687500000002,
                    "durationTicks": 80,
                    "midi": 77,
                    "name": "F5",
                    "ticks": 19588,
                    "time": 33.2674634375,
                    "velocity": 0.9921259842519685
                },
                {
                    "duration": 0.1290753125000066,
                    "durationTicks": 76,
                    "midi": 85,
                    "name": "C#6",
                    "ticks": 19972,
                    "time": 33.919633437499996,
                    "velocity": 0.9921259842519685
                },
                {
                    "duration": 0.06114093750000649,
                    "durationTicks": 36,
                    "midi": 85,
                    "name": "C#6",
                    "ticks": 20228,
                    "time": 34.3544134375,
                    "velocity": 0.9606299212598425
                },
                {
                    "duration": 0.12907531249999948,
                    "durationTicks": 76,
                    "midi": 84,
                    "name": "C6",
                    "ticks": 20356,
                    "time": 34.5718034375,
                    "velocity": 1
                },
                {
                    "duration": 0.07472781250000082,
                    "durationTicks": 44,
                    "midi": 80,
                    "name": "G#5",
                    "ticks": 20740,
                    "time": 35.2239734375,
                    "velocity": 1
                },
                {
                    "duration": 0.08831468750000226,
                    "durationTicks": 52,
                    "midi": 82,
                    "name": "A#5",
                    "ticks": 21124,
                    "time": 35.8761434375,
                    "velocity": 1
                },
                {
                    "duration": 0.0679343750000001,
                    "durationTicks": 40,
                    "midi": 80,
                    "name": "G#5",
                    "ticks": 21508,
                    "time": 36.5283134375,
                    "velocity": 1
                }
            ],
            "endOfTrackTicks": 24576
        },
        {
            "channel": 2,
            "controlChanges": {
                "64": [
                    {
                        "number": 64,
                        "ticks": 23824,
                        "time": 40.46171375,
                        "value": 0
                    }
                ]
            },
            "pitchBends": [
                {
                    "ticks": 23824,
                    "time": 40.46171375,
                    "value": 0
                }
            ],
            "instrument": {
                "family": "bass",
                "number": 32,
                "name": "acoustic bass"
            },
            "name": "ACOU BASS",
            "notes": [
                {
                    "duration": 1.8614018750000003,
                    "durationTicks": 1096,
                    "midi": 44,
                    "name": "G#2",
                    "ticks": 4228,
                    "time": 7.1806634375,
                    "velocity": 1
                },
                {
                    "duration": 1.7527068750000012,
                    "durationTicks": 1032,
                    "midi": 39,
                    "name": "D#2",
                    "ticks": 5380,
                    "time": 9.1371734375,
                    "velocity": 1
                },
                {
                    "duration": 1.766293749999999,
                    "durationTicks": 1040,
                    "midi": 39,
                    "name": "D#2",
                    "ticks": 6532,
                    "time": 11.093683437500001,
                    "velocity": 1
                },
                {
                    "duration": 1.6711856250000015,
                    "durationTicks": 984,
                    "midi": 44,
                    "name": "G#2",
                    "ticks": 7684,
                    "time": 13.0501934375,
                    "velocity": 1
                },
                {
                    "duration": 1.080156562500001,
                    "durationTicks": 636,
                    "midi": 44,
                    "name": "G#2",
                    "ticks": 8836,
                    "time": 15.0067034375,
                    "velocity": 1
                },
                {
                    "duration": 0.5978224999999995,
                    "durationTicks": 352,
                    "midi": 48,
                    "name": "C3",
                    "ticks": 9604,
                    "time": 16.3110434375,
                    "velocity": 1
                },
                {
                    "duration": 1.6100446875000003,
                    "durationTicks": 948,
                    "midi": 49,
                    "name": "C#3",
                    "ticks": 9988,
                    "time": 16.963213437500002,
                    "velocity": 1
                },
                {
                    "duration": 1.2975465624999991,
                    "durationTicks": 764,
                    "midi": 51,
                    "name": "D#3",
                    "ticks": 11140,
                    "time": 18.9197234375,
                    "velocity": 1
                },
                {
                    "duration": 0.5638553124999994,
                    "durationTicks": 332,
                    "midi": 39,
                    "name": "D#2",
                    "ticks": 11908,
                    "time": 20.2240634375,
                    "velocity": 1
                },
                {
                    "duration": 1.311133437500004,
                    "durationTicks": 772,
                    "midi": 44,
                    "name": "G#2",
                    "ticks": 12292,
                    "time": 20.876233437499998,
                    "velocity": 1
                },
                {
                    "duration": 1.87498875,
                    "durationTicks": 1104,
                    "midi": 44,
                    "name": "G#2",
                    "ticks": 13444,
                    "time": 22.8327434375,
                    "velocity": 1
                },
                {
                    "duration": 1.8478150000000007,
                    "durationTicks": 1088,
                    "midi": 39,
                    "name": "D#2",
                    "ticks": 14596,
                    "time": 24.7892534375,
                    "velocity": 1
                },
                {
                    "duration": 1.8070543750000034,
                    "durationTicks": 1064,
                    "midi": 51,
                    "name": "D#3",
                    "ticks": 15748,
                    "time": 26.7457634375,
                    "velocity": 1
                },
                {
                    "duration": 1.535316875000003,
                    "durationTicks": 904,
                    "midi": 44,
                    "name": "G#2",
                    "ticks": 16900,
                    "time": 28.7022734375,
                    "velocity": 1
                },
                {
                    "duration": 1.0597762500000023,
                    "durationTicks": 624,
                    "midi": 44,
                    "name": "G#2",
                    "ticks": 18052,
                    "time": 30.6587834375,
                    "velocity": 1
                },
                {
                    "duration": 0.6725503125000039,
                    "durationTicks": 396,
                    "midi": 48,
                    "name": "C3",
                    "ticks": 18820,
                    "time": 31.9631234375,
                    "velocity": 1
                },
                {
                    "duration": 1.8070543749999999,
                    "durationTicks": 1064,
                    "midi": 49,
                    "name": "C#3",
                    "ticks": 19204,
                    "time": 32.6152934375,
                    "velocity": 1
                },
                {
                    "duration": 1.2567859374999983,
                    "durationTicks": 740,
                    "midi": 51,
                    "name": "D#3",
                    "ticks": 20356,
                    "time": 34.5718034375,
                    "velocity": 1
                },
                {
                    "duration": 0.6521700000000052,
                    "durationTicks": 384,
                    "midi": 39,
                    "name": "D#2",
                    "ticks": 21124,
                    "time": 35.8761434375,
                    "velocity": 1
                },
                {
                    "duration": 1.7187396874999976,
                    "durationTicks": 1012,
                    "midi": 44,
                    "name": "G#2",
                    "ticks": 21508,
                    "time": 36.5283134375,
                    "velocity": 1
                }
            ],
            "endOfTrackTicks": 24016
        },
        {
            "channel": 3,
            "controlChanges": {
                "10": [
                    {
                        "number": 10,
                        "ticks": 1536,
                        "time": 2.60868,
                        "value": 0.31496062992125984
                    }
                ],
                "64": [
                    {
                        "number": 64,
                        "ticks": 23824,
                        "time": 40.46171375,
                        "value": 0
                    }
                ]
            },
            "pitchBends": [
                {
                    "ticks": 23824,
                    "time": 40.46171375,
                    "value": 0
                }
            ],
            "instrument": {
                "family": "ensemble",
                "number": 48,
                "name": "string ensemble 1"
            },
            "name": "STRINGS",
            "notes": [
                {
                    "duration": 2.5747128125000014,
                    "durationTicks": 1516,
                    "midi": 56,
                    "name": "G#3",
                    "ticks": 3844,
                    "time": 6.5284934375,
                    "velocity": 0.6535433070866141
                },
                {
                    "duration": 2.3505293750000007,
                    "durationTicks": 1384,
                    "midi": 60,
                    "name": "C4",
                    "ticks": 3844,
                    "time": 6.5284934375,
                    "velocity": 0.5669291338582677
                },
                {
                    "duration": 0.6385831250000011,
                    "durationTicks": 376,
                    "midi": 63,
                    "name": "D#4",
                    "ticks": 3844,
                    "time": 6.5284934375,
                    "velocity": 0.6141732283464567
                },
                {
                    "duration": 0.7133109375000002,
                    "durationTicks": 420,
                    "midi": 65,
                    "name": "F4",
                    "ticks": 4204,
                    "time": 7.1399028125,
                    "velocity": 0.6299212598425197
                },
                {
                    "duration": 3.2608499999999987,
                    "durationTicks": 1920,
                    "midi": 63,
                    "name": "D#4",
                    "ticks": 4604,
                    "time": 7.819246562500001,
                    "velocity": 0.6535433070866141
                },
                {
                    "duration": 0.6997240624999996,
                    "durationTicks": 412,
                    "midi": 68,
                    "name": "G#4",
                    "ticks": 4968,
                    "time": 8.437449375,
                    "velocity": 0.6220472440944882
                },
                {
                    "duration": 3.8790528124999994,
                    "durationTicks": 2284,
                    "midi": 61,
                    "name": "C#4",
                    "ticks": 5348,
                    "time": 9.082825937500001,
                    "velocity": 0.5118110236220472
                },
                {
                    "duration": 1.3518940624999995,
                    "durationTicks": 796,
                    "midi": 67,
                    "name": "G4",
                    "ticks": 5356,
                    "time": 9.0964128125,
                    "velocity": 0.5669291338582677
                },
                {
                    "duration": 3.240469687500001,
                    "durationTicks": 1908,
                    "midi": 58,
                    "name": "A#3",
                    "ticks": 5364,
                    "time": 9.1099996875,
                    "velocity": 0.5748031496062992
                },
                {
                    "duration": 0.679343750000001,
                    "durationTicks": 400,
                    "midi": 65,
                    "name": "F4",
                    "ticks": 6512,
                    "time": 11.05971625,
                    "velocity": 0.6220472440944882
                },
                {
                    "duration": 0.6725503124999985,
                    "durationTicks": 396,
                    "midi": 63,
                    "name": "D#4",
                    "ticks": 6892,
                    "time": 11.705092812500002,
                    "velocity": 0.5984251968503937
                },
                {
                    "duration": 0.6046159374999984,
                    "durationTicks": 356,
                    "midi": 67,
                    "name": "G4",
                    "ticks": 7276,
                    "time": 12.357262812500002,
                    "velocity": 0.6220472440944882
                },
                {
                    "duration": 0.6861371875,
                    "durationTicks": 404,
                    "midi": 70,
                    "name": "A#4",
                    "ticks": 7284,
                    "time": 12.3708496875,
                    "velocity": 0.5590551181102362
                },
                {
                    "duration": 3.7907381250000007,
                    "durationTicks": 2232,
                    "midi": 63,
                    "name": "D#4",
                    "ticks": 7668,
                    "time": 13.0230196875,
                    "velocity": 0.4881889763779528
                },
                {
                    "duration": 1.9633034375000022,
                    "durationTicks": 1156,
                    "midi": 60,
                    "name": "C4",
                    "ticks": 7668,
                    "time": 13.0230196875,
                    "velocity": 0.5354330708661418
                },
                {
                    "duration": 3.7431840624999992,
                    "durationTicks": 2204,
                    "midi": 68,
                    "name": "G#4",
                    "ticks": 7668,
                    "time": 13.0230196875,
                    "velocity": 0.5354330708661418
                },
                {
                    "duration": 1.8478150000000007,
                    "durationTicks": 1088,
                    "midi": 56,
                    "name": "G#3",
                    "ticks": 7668,
                    "time": 13.0230196875,
                    "velocity": 0.5511811023622047
                },
                {
                    "duration": 1.3451006250000006,
                    "durationTicks": 792,
                    "midi": 72,
                    "name": "C5",
                    "ticks": 8824,
                    "time": 14.986323125000002,
                    "velocity": 0.5905511811023622
                },
                {
                    "duration": 0.6725503125000003,
                    "durationTicks": 396,
                    "midi": 75,
                    "name": "D#5",
                    "ticks": 8828,
                    "time": 14.9931165625,
                    "velocity": 0.6456692913385826
                },
                {
                    "duration": 1.2975465624999973,
                    "durationTicks": 764,
                    "midi": 60,
                    "name": "C4",
                    "ticks": 9208,
                    "time": 15.638493125000002,
                    "velocity": 0.5748031496062992
                },
                {
                    "duration": 0.6657568749999996,
                    "durationTicks": 392,
                    "midi": 58,
                    "name": "A#3",
                    "ticks": 9976,
                    "time": 16.942833125,
                    "velocity": 0.6692913385826772
                },
                {
                    "duration": 1.1209171875000017,
                    "durationTicks": 660,
                    "midi": 61,
                    "name": "C#4",
                    "ticks": 9976,
                    "time": 16.942833125,
                    "velocity": 0.7086614173228346
                },
                {
                    "duration": 0.6657568749999996,
                    "durationTicks": 392,
                    "midi": 67,
                    "name": "G4",
                    "ticks": 9976,
                    "time": 16.942833125,
                    "velocity": 0.6850393700787402
                },
                {
                    "duration": 0.6182028125000016,
                    "durationTicks": 364,
                    "midi": 65,
                    "name": "F4",
                    "ticks": 10364,
                    "time": 17.6017965625,
                    "velocity": 0.6456692913385826
                },
                {
                    "duration": 0.6997240625000032,
                    "durationTicks": 412,
                    "midi": 56,
                    "name": "G#3",
                    "ticks": 10364,
                    "time": 17.6017965625,
                    "velocity": 0.6614173228346457
                },
                {
                    "duration": 1.9633034374999987,
                    "durationTicks": 1156,
                    "midi": 68,
                    "name": "G#4",
                    "ticks": 10748,
                    "time": 18.2539665625,
                    "velocity": 0.48031496062992124
                },
                {
                    "duration": 0.4415734375000042,
                    "durationTicks": 260,
                    "midi": 73,
                    "name": "C#5",
                    "ticks": 10760,
                    "time": 18.274346875,
                    "velocity": 0.5984251968503937
                },
                {
                    "duration": 0.43477999999999994,
                    "durationTicks": 256,
                    "midi": 65,
                    "name": "F4",
                    "ticks": 10760,
                    "time": 18.274346875,
                    "velocity": 0.6535433070866141
                },
                {
                    "duration": 0.679343750000001,
                    "durationTicks": 400,
                    "midi": 72,
                    "name": "C5",
                    "ticks": 11132,
                    "time": 18.9061365625,
                    "velocity": 0.4881889763779528
                },
                {
                    "duration": 1.256785937500002,
                    "durationTicks": 740,
                    "midi": 63,
                    "name": "D#4",
                    "ticks": 11132,
                    "time": 18.9061365625,
                    "velocity": 0.6614173228346457
                },
                {
                    "duration": 0.679343750000001,
                    "durationTicks": 400,
                    "midi": 60,
                    "name": "C4",
                    "ticks": 11516,
                    "time": 19.5583065625,
                    "velocity": 0.6141732283464567
                },
                {
                    "duration": 0.5502684375000015,
                    "durationTicks": 324,
                    "midi": 67,
                    "name": "G4",
                    "ticks": 11908,
                    "time": 20.2240634375,
                    "velocity": 0.6614173228346457
                },
                {
                    "duration": 0.550268437499998,
                    "durationTicks": 324,
                    "midi": 70,
                    "name": "A#4",
                    "ticks": 11912,
                    "time": 20.230856875,
                    "velocity": 0.5039370078740157
                },
                {
                    "duration": 0.550268437499998,
                    "durationTicks": 324,
                    "midi": 61,
                    "name": "C#4",
                    "ticks": 11912,
                    "time": 20.230856875,
                    "velocity": 0.7086614173228346
                },
                {
                    "duration": 1.2771662500000005,
                    "durationTicks": 752,
                    "midi": 68,
                    "name": "G#4",
                    "ticks": 12276,
                    "time": 20.849059687500002,
                    "velocity": 0.3464566929133858
                },
                {
                    "duration": 1.9497165625000008,
                    "durationTicks": 1148,
                    "midi": 63,
                    "name": "D#4",
                    "ticks": 12276,
                    "time": 20.849059687500002,
                    "velocity": 0.5196850393700787
                },
                {
                    "duration": 3.7499775,
                    "durationTicks": 2208,
                    "midi": 60,
                    "name": "C4",
                    "ticks": 12276,
                    "time": 20.849059687500002,
                    "velocity": 0.5433070866141733
                },
                {
                    "duration": 3.8586724999999973,
                    "durationTicks": 2272,
                    "midi": 56,
                    "name": "G#3",
                    "ticks": 12296,
                    "time": 20.883026875000002,
                    "velocity": 0.5669291338582677
                },
                {
                    "duration": 0.6997240625000032,
                    "durationTicks": 412,
                    "midi": 65,
                    "name": "F4",
                    "ticks": 13420,
                    "time": 22.7919828125,
                    "velocity": 0.5669291338582677
                },
                {
                    "duration": 3.233676250000002,
                    "durationTicks": 1904,
                    "midi": 63,
                    "name": "D#4",
                    "ticks": 13812,
                    "time": 23.457739687500002,
                    "velocity": 0.6062992125984252
                },
                {
                    "duration": 0.6861371875000017,
                    "durationTicks": 404,
                    "midi": 68,
                    "name": "G#4",
                    "ticks": 14188,
                    "time": 24.0963228125,
                    "velocity": 0.6220472440944882
                },
                {
                    "duration": 3.8858462499999966,
                    "durationTicks": 2288,
                    "midi": 61,
                    "name": "C#4",
                    "ticks": 14564,
                    "time": 24.734905937500002,
                    "velocity": 0.5590551181102362
                },
                {
                    "duration": 3.267643437500002,
                    "durationTicks": 1924,
                    "midi": 58,
                    "name": "A#3",
                    "ticks": 14572,
                    "time": 24.7484928125,
                    "velocity": 0.5984251968503937
                },
                {
                    "duration": 1.3383071874999999,
                    "durationTicks": 788,
                    "midi": 67,
                    "name": "G4",
                    "ticks": 14572,
                    "time": 24.7484928125,
                    "velocity": 0.5511811023622047
                },
                {
                    "duration": 0.6861371875000017,
                    "durationTicks": 404,
                    "midi": 65,
                    "name": "F4",
                    "ticks": 15712,
                    "time": 26.6846225,
                    "velocity": 0.6141732283464567
                },
                {
                    "duration": 0.6521699999999981,
                    "durationTicks": 384,
                    "midi": 63,
                    "name": "D#4",
                    "ticks": 16112,
                    "time": 27.363966250000004,
                    "velocity": 0.6220472440944882
                },
                {
                    "duration": 0.5298881249999994,
                    "durationTicks": 312,
                    "midi": 67,
                    "name": "G4",
                    "ticks": 16496,
                    "time": 28.016136250000002,
                    "velocity": 0.6141732283464567
                },
                {
                    "duration": 0.6046159375000002,
                    "durationTicks": 356,
                    "midi": 70,
                    "name": "A#4",
                    "ticks": 16504,
                    "time": 28.029723125,
                    "velocity": 0.5905511811023622
                },
                {
                    "duration": 3.2132959375,
                    "durationTicks": 1892,
                    "midi": 68,
                    "name": "G#4",
                    "ticks": 16876,
                    "time": 28.6615128125,
                    "velocity": 0.4409448818897638
                },
                {
                    "duration": 3.9198134375000038,
                    "durationTicks": 2308,
                    "midi": 63,
                    "name": "D#4",
                    "ticks": 16876,
                    "time": 28.6615128125,
                    "velocity": 0.5354330708661418
                },
                {
                    "duration": 1.9565100000000015,
                    "durationTicks": 1152,
                    "midi": 56,
                    "name": "G#3",
                    "ticks": 16876,
                    "time": 28.6615128125,
                    "velocity": 0.49606299212598426
                },
                {
                    "duration": 1.9565100000000015,
                    "durationTicks": 1152,
                    "midi": 60,
                    "name": "C4",
                    "ticks": 16888,
                    "time": 28.681893125,
                    "velocity": 0.5748031496062992
                },
                {
                    "duration": 1.3586874999999985,
                    "durationTicks": 800,
                    "midi": 72,
                    "name": "C5",
                    "ticks": 18036,
                    "time": 30.631609687500003,
                    "velocity": 0.5984251968503937
                },
                {
                    "duration": 0.645376562500001,
                    "durationTicks": 380,
                    "midi": 75,
                    "name": "D#5",
                    "ticks": 18036,
                    "time": 30.631609687500003,
                    "velocity": 0.6377952755905512
                },
                {
                    "duration": 0.5706487500000001,
                    "durationTicks": 336,
                    "midi": 68,
                    "name": "G#4",
                    "ticks": 18812,
                    "time": 31.949536562500004,
                    "velocity": 0.5826771653543307
                },
                {
                    "duration": 0.6589634375000024,
                    "durationTicks": 388,
                    "midi": 60,
                    "name": "C4",
                    "ticks": 18820,
                    "time": 31.9631234375,
                    "velocity": 0.47244094488188976
                },
                {
                    "duration": 0.6793437499999939,
                    "durationTicks": 400,
                    "midi": 67,
                    "name": "G4",
                    "ticks": 19188,
                    "time": 32.588119687500004,
                    "velocity": 0.6692913385826772
                },
                {
                    "duration": 0.6521699999999981,
                    "durationTicks": 384,
                    "midi": 58,
                    "name": "A#3",
                    "ticks": 19188,
                    "time": 32.588119687500004,
                    "velocity": 0.6692913385826772
                },
                {
                    "duration": 1.9768903124999966,
                    "durationTicks": 1164,
                    "midi": 61,
                    "name": "C#4",
                    "ticks": 19188,
                    "time": 32.588119687500004,
                    "velocity": 0.6692913385826772
                },
                {
                    "duration": 0.7201043749999982,
                    "durationTicks": 424,
                    "midi": 56,
                    "name": "G#3",
                    "ticks": 19580,
                    "time": 33.253876562500004,
                    "velocity": 0.6220472440944882
                },
                {
                    "duration": 0.4619537500000064,
                    "durationTicks": 272,
                    "midi": 65,
                    "name": "F4",
                    "ticks": 19588,
                    "time": 33.2674634375,
                    "velocity": 0.6535433070866141
                },
                {
                    "duration": 0.4687471875,
                    "durationTicks": 276,
                    "midi": 65,
                    "name": "F4",
                    "ticks": 19972,
                    "time": 33.919633437499996,
                    "velocity": 0.6456692913385826
                },
                {
                    "duration": 1.9293362500000057,
                    "durationTicks": 1136,
                    "midi": 68,
                    "name": "G#4",
                    "ticks": 19972,
                    "time": 33.919633437499996,
                    "velocity": 0.6692913385826772
                },
                {
                    "duration": 0.42798656249999567,
                    "durationTicks": 252,
                    "midi": 73,
                    "name": "C#5",
                    "ticks": 19976,
                    "time": 33.926426875000004,
                    "velocity": 0.6692913385826772
                },
                {
                    "duration": 1.2296121875000026,
                    "durationTicks": 724,
                    "midi": 63,
                    "name": "D#4",
                    "ticks": 20348,
                    "time": 34.5582165625,
                    "velocity": 0.6062992125984252
                },
                {
                    "duration": 0.6725503125000003,
                    "durationTicks": 396,
                    "midi": 72,
                    "name": "C5",
                    "ticks": 20348,
                    "time": 34.5582165625,
                    "velocity": 0.6141732283464567
                },
                {
                    "duration": 1.3315137499999992,
                    "durationTicks": 784,
                    "midi": 60,
                    "name": "C4",
                    "ticks": 20348,
                    "time": 34.5582165625,
                    "velocity": 0.5905511811023622
                },
                {
                    "duration": 0.5842356250000051,
                    "durationTicks": 344,
                    "midi": 70,
                    "name": "A#4",
                    "ticks": 21124,
                    "time": 35.8761434375,
                    "velocity": 0.5433070866141733
                },
                {
                    "duration": 0.5366815625000072,
                    "durationTicks": 316,
                    "midi": 67,
                    "name": "G4",
                    "ticks": 21124,
                    "time": 35.8761434375,
                    "velocity": 0.6692913385826772
                },
                {
                    "duration": 0.4959209374999958,
                    "durationTicks": 292,
                    "midi": 61,
                    "name": "C#4",
                    "ticks": 21128,
                    "time": 35.882936875000006,
                    "velocity": 0.6614173228346457
                },
                {
                    "duration": 2.296181875000002,
                    "durationTicks": 1352,
                    "midi": 68,
                    "name": "G#4",
                    "ticks": 21488,
                    "time": 36.49434625,
                    "velocity": 0.33070866141732286
                },
                {
                    "duration": 2.2825950000000006,
                    "durationTicks": 1344,
                    "midi": 60,
                    "name": "C4",
                    "ticks": 21496,
                    "time": 36.507933125,
                    "velocity": 0.5354330708661418
                },
                {
                    "duration": 2.0244443750000016,
                    "durationTicks": 1192,
                    "midi": 63,
                    "name": "D#4",
                    "ticks": 21496,
                    "time": 36.507933125,
                    "velocity": 0.5354330708661418
                },
                {
                    "duration": 2.2825950000000006,
                    "durationTicks": 1344,
                    "midi": 56,
                    "name": "G#3",
                    "ticks": 21496,
                    "time": 36.507933125,
                    "velocity": 0.6062992125984252
                }
            ],
            "endOfTrackTicks": 24016
        },
        {
            "channel": 4,
            "controlChanges": {
                "10": [
                    {
                        "number": 10,
                        "ticks": 1536,
                        "time": 2.60868,
                        "value": 0.15748031496062992
                    }
                ],
                "64": [
                    {
                        "number": 64,
                        "ticks": 23824,
                        "time": 40.46171375,
                        "value": 0
                    }
                ],
                "93": [
                    {
                        "number": 93,
                        "ticks": 4228,
                        "time": 7.1806634375,
                        "value": 0
                    }
                ]
            },
            "pitchBends": [
                {
                    "ticks": 23824,
                    "time": 40.46171375,
                    "value": 0
                }
            ],
            "instrument": {
                "family": "strings",
                "number": 45,
                "name": "pizzicato strings"
            },
            "name": "PIZZICATO",
            "notes": [
                {
                    "duration": 0.38722593750000023,
                    "durationTicks": 228,
                    "midi": 63,
                    "name": "D#4",
                    "ticks": 4612,
                    "time": 7.8328334375,
                    "velocity": 0.8818897637795275
                },
                {
                    "duration": 0.38722593750000023,
                    "durationTicks": 228,
                    "midi": 68,
                    "name": "G#4",
                    "ticks": 4612,
                    "time": 7.8328334375,
                    "velocity": 0.8582677165354331
                },
                {
                    "duration": 0.37363906250000056,
                    "durationTicks": 220,
                    "midi": 60,
                    "name": "C4",
                    "ticks": 4612,
                    "time": 7.8328334375,
                    "velocity": 0.905511811023622
                },
                {
                    "duration": 0.48233406250000144,
                    "durationTicks": 284,
                    "midi": 68,
                    "name": "G#4",
                    "ticks": 4996,
                    "time": 8.4850034375,
                    "velocity": 0.8976377952755905
                },
                {
                    "duration": 0.48233406250000144,
                    "durationTicks": 284,
                    "midi": 63,
                    "name": "D#4",
                    "ticks": 4996,
                    "time": 8.4850034375,
                    "velocity": 0.968503937007874
                },
                {
                    "duration": 0.4687471875,
                    "durationTicks": 276,
                    "midi": 60,
                    "name": "C4",
                    "ticks": 4996,
                    "time": 8.4850034375,
                    "velocity": 0.9448818897637795
                },
                {
                    "duration": 0.2853243750000001,
                    "durationTicks": 168,
                    "midi": 67,
                    "name": "G4",
                    "ticks": 5760,
                    "time": 9.78255,
                    "velocity": 0.8740157480314961
                },
                {
                    "duration": 0.2853243750000001,
                    "durationTicks": 168,
                    "midi": 63,
                    "name": "D#4",
                    "ticks": 5760,
                    "time": 9.78255,
                    "velocity": 0.8818897637795275
                },
                {
                    "duration": 0.27853093750000113,
                    "durationTicks": 164,
                    "midi": 61,
                    "name": "C#4",
                    "ticks": 5764,
                    "time": 9.7893434375,
                    "velocity": 0.937007874015748
                },
                {
                    "duration": 0.5570618749999987,
                    "durationTicks": 328,
                    "midi": 67,
                    "name": "G4",
                    "ticks": 6148,
                    "time": 10.441513437500001,
                    "velocity": 0.889763779527559
                },
                {
                    "duration": 0.543474999999999,
                    "durationTicks": 320,
                    "midi": 61,
                    "name": "C#4",
                    "ticks": 6148,
                    "time": 10.441513437500001,
                    "velocity": 0.968503937007874
                },
                {
                    "duration": 0.5570618749999987,
                    "durationTicks": 328,
                    "midi": 63,
                    "name": "D#4",
                    "ticks": 6148,
                    "time": 10.441513437500001,
                    "velocity": 0.8976377952755905
                },
                {
                    "duration": 0.2649440624999997,
                    "durationTicks": 156,
                    "midi": 67,
                    "name": "G4",
                    "ticks": 6916,
                    "time": 11.745853437500001,
                    "velocity": 0.8346456692913385
                },
                {
                    "duration": 0.2649440624999997,
                    "durationTicks": 156,
                    "midi": 61,
                    "name": "C#4",
                    "ticks": 6916,
                    "time": 11.745853437500001,
                    "velocity": 0.937007874015748
                },
                {
                    "duration": 0.2853243750000001,
                    "durationTicks": 168,
                    "midi": 63,
                    "name": "D#4",
                    "ticks": 6916,
                    "time": 11.745853437500001,
                    "velocity": 0.8661417322834646
                },
                {
                    "duration": 0.5502684374999998,
                    "durationTicks": 324,
                    "midi": 67,
                    "name": "G4",
                    "ticks": 7300,
                    "time": 12.398023437500001,
                    "velocity": 0.8661417322834646
                },
                {
                    "duration": 0.5163012499999997,
                    "durationTicks": 304,
                    "midi": 61,
                    "name": "C#4",
                    "ticks": 7300,
                    "time": 12.398023437500001,
                    "velocity": 0.937007874015748
                },
                {
                    "duration": 0.5163012499999997,
                    "durationTicks": 304,
                    "midi": 63,
                    "name": "D#4",
                    "ticks": 7300,
                    "time": 12.398023437500001,
                    "velocity": 0.8818897637795275
                },
                {
                    "duration": 0.2513571875000018,
                    "durationTicks": 148,
                    "midi": 63,
                    "name": "D#4",
                    "ticks": 8064,
                    "time": 13.69557,
                    "velocity": 0.8976377952755905
                },
                {
                    "duration": 0.2309768750000014,
                    "durationTicks": 136,
                    "midi": 60,
                    "name": "C4",
                    "ticks": 8064,
                    "time": 13.69557,
                    "velocity": 0.8661417322834646
                },
                {
                    "duration": 0.24456375000000108,
                    "durationTicks": 144,
                    "midi": 68,
                    "name": "G#4",
                    "ticks": 8064,
                    "time": 13.69557,
                    "velocity": 0.8582677165354331
                },
                {
                    "duration": 0.3396718750000005,
                    "durationTicks": 200,
                    "midi": 68,
                    "name": "G#4",
                    "ticks": 8452,
                    "time": 14.3545334375,
                    "velocity": 0.8346456692913385
                },
                {
                    "duration": 0.32608500000000085,
                    "durationTicks": 192,
                    "midi": 60,
                    "name": "C4",
                    "ticks": 8452,
                    "time": 14.3545334375,
                    "velocity": 0.8740157480314961
                },
                {
                    "duration": 0.3396718750000005,
                    "durationTicks": 200,
                    "midi": 63,
                    "name": "D#4",
                    "ticks": 8452,
                    "time": 14.3545334375,
                    "velocity": 0.8582677165354331
                },
                {
                    "duration": 0.4415734374999971,
                    "durationTicks": 260,
                    "midi": 63,
                    "name": "D#4",
                    "ticks": 9220,
                    "time": 15.658873437500002,
                    "velocity": 0.9133858267716536
                },
                {
                    "duration": 0.4008128124999999,
                    "durationTicks": 236,
                    "midi": 60,
                    "name": "C4",
                    "ticks": 9220,
                    "time": 15.658873437500002,
                    "velocity": 0.8740157480314961
                },
                {
                    "duration": 0.4143996874999978,
                    "durationTicks": 244,
                    "midi": 68,
                    "name": "G#4",
                    "ticks": 9220,
                    "time": 15.658873437500002,
                    "velocity": 0.8661417322834646
                },
                {
                    "duration": 0.5910290625000023,
                    "durationTicks": 348,
                    "midi": 63,
                    "name": "D#4",
                    "ticks": 9604,
                    "time": 16.3110434375,
                    "velocity": 0.9133858267716536
                },
                {
                    "duration": 0.5910290625000023,
                    "durationTicks": 348,
                    "midi": 68,
                    "name": "G#4",
                    "ticks": 9604,
                    "time": 16.3110434375,
                    "velocity": 0.84251968503937
                },
                {
                    "duration": 0.5706487500000001,
                    "durationTicks": 336,
                    "midi": 60,
                    "name": "C4",
                    "ticks": 9604,
                    "time": 16.3110434375,
                    "velocity": 0.889763779527559
                },
                {
                    "duration": 0.4076062500000006,
                    "durationTicks": 240,
                    "midi": 56,
                    "name": "G#3",
                    "ticks": 10368,
                    "time": 17.60859,
                    "velocity": 0.937007874015748
                },
                {
                    "duration": 0.3804325000000013,
                    "durationTicks": 224,
                    "midi": 65,
                    "name": "F4",
                    "ticks": 10372,
                    "time": 17.6153834375,
                    "velocity": 0.968503937007874
                },
                {
                    "duration": 0.4008128124999999,
                    "durationTicks": 236,
                    "midi": 61,
                    "name": "C#4",
                    "ticks": 10372,
                    "time": 17.6153834375,
                    "velocity": 0.8582677165354331
                },
                {
                    "duration": 0.4347799999999964,
                    "durationTicks": 256,
                    "midi": 56,
                    "name": "G#3",
                    "ticks": 10756,
                    "time": 18.267553437500002,
                    "velocity": 0.937007874015748
                },
                {
                    "duration": 0.4687471875,
                    "durationTicks": 276,
                    "midi": 61,
                    "name": "C#4",
                    "ticks": 10756,
                    "time": 18.267553437500002,
                    "velocity": 0.8976377952755905
                },
                {
                    "duration": 0.45516031249999855,
                    "durationTicks": 268,
                    "midi": 65,
                    "name": "F4",
                    "ticks": 10756,
                    "time": 18.267553437500002,
                    "velocity": 1
                },
                {
                    "duration": 0.3396718750000005,
                    "durationTicks": 200,
                    "midi": 63,
                    "name": "D#4",
                    "ticks": 11524,
                    "time": 19.5718934375,
                    "velocity": 0.937007874015748
                },
                {
                    "duration": 0.38043249999999773,
                    "durationTicks": 224,
                    "midi": 68,
                    "name": "G#4",
                    "ticks": 11524,
                    "time": 19.5718934375,
                    "velocity": 0.8818897637795275
                },
                {
                    "duration": 0.3396718750000005,
                    "durationTicks": 200,
                    "midi": 60,
                    "name": "C4",
                    "ticks": 11524,
                    "time": 19.5718934375,
                    "velocity": 0.905511811023622
                },
                {
                    "duration": 0.4755406250000007,
                    "durationTicks": 280,
                    "midi": 67,
                    "name": "G4",
                    "ticks": 11908,
                    "time": 20.2240634375,
                    "velocity": 0.905511811023622
                },
                {
                    "duration": 0.45516031249999855,
                    "durationTicks": 268,
                    "midi": 61,
                    "name": "C#4",
                    "ticks": 11908,
                    "time": 20.2240634375,
                    "velocity": 1
                },
                {
                    "duration": 0.45516031249999855,
                    "durationTicks": 268,
                    "midi": 63,
                    "name": "D#4",
                    "ticks": 11908,
                    "time": 20.2240634375,
                    "velocity": 0.937007874015748
                },
                {
                    "duration": 0.23777031250000036,
                    "durationTicks": 140,
                    "midi": 60,
                    "name": "C4",
                    "ticks": 12672,
                    "time": 21.521610000000003,
                    "velocity": 0.8503937007874016
                },
                {
                    "duration": 0.2513571875000018,
                    "durationTicks": 148,
                    "midi": 68,
                    "name": "G#4",
                    "ticks": 12676,
                    "time": 21.5284034375,
                    "velocity": 0.84251968503937
                },
                {
                    "duration": 0.27173750000000396,
                    "durationTicks": 160,
                    "midi": 63,
                    "name": "D#4",
                    "ticks": 12676,
                    "time": 21.5284034375,
                    "velocity": 0.8661417322834646
                },
                {
                    "duration": 0.6317896875000031,
                    "durationTicks": 372,
                    "midi": 68,
                    "name": "G#4",
                    "ticks": 13060,
                    "time": 22.180573437499998,
                    "velocity": 0.8346456692913385
                },
                {
                    "duration": 0.6317896875000031,
                    "durationTicks": 372,
                    "midi": 63,
                    "name": "D#4",
                    "ticks": 13060,
                    "time": 22.180573437499998,
                    "velocity": 0.8818897637795275
                },
                {
                    "duration": 0.6249962500000024,
                    "durationTicks": 368,
                    "midi": 60,
                    "name": "C4",
                    "ticks": 13060,
                    "time": 22.180573437499998,
                    "velocity": 0.8740157480314961
                },
                {
                    "duration": 0.27853093750000113,
                    "durationTicks": 164,
                    "midi": 63,
                    "name": "D#4",
                    "ticks": 13824,
                    "time": 23.47812,
                    "velocity": 0.8818897637795275
                },
                {
                    "duration": 0.2377703125000039,
                    "durationTicks": 140,
                    "midi": 60,
                    "name": "C4",
                    "ticks": 13828,
                    "time": 23.484913437499998,
                    "velocity": 0.8740157480314961
                },
                {
                    "duration": 0.2377703125000039,
                    "durationTicks": 140,
                    "midi": 68,
                    "name": "G#4",
                    "ticks": 13828,
                    "time": 23.484913437499998,
                    "velocity": 0.8661417322834646
                },
                {
                    "duration": 0.6249962500000024,
                    "durationTicks": 368,
                    "midi": 63,
                    "name": "D#4",
                    "ticks": 14212,
                    "time": 24.1370834375,
                    "velocity": 0.9133858267716536
                },
                {
                    "duration": 0.6249962500000024,
                    "durationTicks": 368,
                    "midi": 60,
                    "name": "C4",
                    "ticks": 14212,
                    "time": 24.1370834375,
                    "velocity": 0.9291338582677166
                },
                {
                    "duration": 0.645376562500001,
                    "durationTicks": 380,
                    "midi": 68,
                    "name": "G#4",
                    "ticks": 14212,
                    "time": 24.1370834375,
                    "velocity": 0.8661417322834646
                },
                {
                    "duration": 0.25815062499999897,
                    "durationTicks": 152,
                    "midi": 67,
                    "name": "G4",
                    "ticks": 14976,
                    "time": 25.434630000000002,
                    "velocity": 0.7952755905511811
                },
                {
                    "duration": 0.25815062499999897,
                    "durationTicks": 152,
                    "midi": 63,
                    "name": "D#4",
                    "ticks": 14976,
                    "time": 25.434630000000002,
                    "velocity": 0.8661417322834646
                },
                {
                    "duration": 0.21739000000000175,
                    "durationTicks": 128,
                    "midi": 61,
                    "name": "C#4",
                    "ticks": 14980,
                    "time": 25.4414234375,
                    "velocity": 1
                },
                {
                    "duration": 0.597822500000003,
                    "durationTicks": 352,
                    "midi": 67,
                    "name": "G4",
                    "ticks": 15364,
                    "time": 26.0935934375,
                    "velocity": 0.8267716535433071
                },
                {
                    "duration": 0.5774421875000009,
                    "durationTicks": 340,
                    "midi": 61,
                    "name": "C#4",
                    "ticks": 15364,
                    "time": 26.0935934375,
                    "velocity": 0.8976377952755905
                },
                {
                    "duration": 0.597822500000003,
                    "durationTicks": 352,
                    "midi": 63,
                    "name": "D#4",
                    "ticks": 15364,
                    "time": 26.0935934375,
                    "velocity": 0.8661417322834646
                },
                {
                    "duration": 0.3192915625000019,
                    "durationTicks": 188,
                    "midi": 67,
                    "name": "G4",
                    "ticks": 16132,
                    "time": 27.3979334375,
                    "velocity": 0.8346456692913385
                },
                {
                    "duration": 0.3124981250000012,
                    "durationTicks": 184,
                    "midi": 63,
                    "name": "D#4",
                    "ticks": 16132,
                    "time": 27.3979334375,
                    "velocity": 0.8818897637795275
                },
                {
                    "duration": 0.29891124999999974,
                    "durationTicks": 176,
                    "midi": 61,
                    "name": "C#4",
                    "ticks": 16132,
                    "time": 27.3979334375,
                    "velocity": 0.9133858267716536
                },
                {
                    "duration": 0.6793437500000046,
                    "durationTicks": 400,
                    "midi": 67,
                    "name": "G4",
                    "ticks": 16516,
                    "time": 28.0501034375,
                    "velocity": 0.8188976377952756
                },
                {
                    "duration": 0.6385831250000038,
                    "durationTicks": 376,
                    "midi": 61,
                    "name": "C#4",
                    "ticks": 16516,
                    "time": 28.0501034375,
                    "velocity": 0.937007874015748
                },
                {
                    "duration": 0.6114093750000009,
                    "durationTicks": 360,
                    "midi": 63,
                    "name": "D#4",
                    "ticks": 16516,
                    "time": 28.0501034375,
                    "velocity": 0.8818897637795275
                },
                {
                    "duration": 0.2853243749999983,
                    "durationTicks": 168,
                    "midi": 63,
                    "name": "D#4",
                    "ticks": 17280,
                    "time": 29.34765,
                    "velocity": 0.937007874015748
                },
                {
                    "duration": 0.2649440624999997,
                    "durationTicks": 156,
                    "midi": 68,
                    "name": "G#4",
                    "ticks": 17280,
                    "time": 29.34765,
                    "velocity": 0.8582677165354331
                },
                {
                    "duration": 0.25135718749999825,
                    "durationTicks": 148,
                    "midi": 60,
                    "name": "C4",
                    "ticks": 17280,
                    "time": 29.34765,
                    "velocity": 0.9291338582677166
                },
                {
                    "duration": 0.6861371875000017,
                    "durationTicks": 404,
                    "midi": 63,
                    "name": "D#4",
                    "ticks": 17668,
                    "time": 30.0066134375,
                    "velocity": 0.9133858267716536
                },
                {
                    "duration": 0.6657568749999996,
                    "durationTicks": 392,
                    "midi": 68,
                    "name": "G#4",
                    "ticks": 17668,
                    "time": 30.0066134375,
                    "velocity": 0.8503937007874016
                },
                {
                    "duration": 0.6657568749999996,
                    "durationTicks": 392,
                    "midi": 60,
                    "name": "C4",
                    "ticks": 17668,
                    "time": 30.0066134375,
                    "velocity": 0.905511811023622
                },
                {
                    "duration": 0.3736390625000041,
                    "durationTicks": 220,
                    "midi": 63,
                    "name": "D#4",
                    "ticks": 18436,
                    "time": 31.3109534375,
                    "velocity": 0.937007874015748
                },
                {
                    "duration": 0.33287843750000334,
                    "durationTicks": 196,
                    "midi": 60,
                    "name": "C4",
                    "ticks": 18436,
                    "time": 31.3109534375,
                    "velocity": 0.9291338582677166
                },
                {
                    "duration": 0.34646531250000123,
                    "durationTicks": 204,
                    "midi": 68,
                    "name": "G#4",
                    "ticks": 18436,
                    "time": 31.3109534375,
                    "velocity": 0.8503937007874016
                },
                {
                    "duration": 0.482334062500005,
                    "durationTicks": 284,
                    "midi": 63,
                    "name": "D#4",
                    "ticks": 18820,
                    "time": 31.9631234375,
                    "velocity": 0.937007874015748
                },
                {
                    "duration": 0.49592093750000643,
                    "durationTicks": 292,
                    "midi": 68,
                    "name": "G#4",
                    "ticks": 18820,
                    "time": 31.9631234375,
                    "velocity": 0.8582677165354331
                },
                {
                    "duration": 0.4551603125000021,
                    "durationTicks": 268,
                    "midi": 60,
                    "name": "C4",
                    "ticks": 18820,
                    "time": 31.9631234375,
                    "velocity": 0.9291338582677166
                },
                {
                    "duration": 0.35325874999999485,
                    "durationTicks": 208,
                    "midi": 56,
                    "name": "G#3",
                    "ticks": 19584,
                    "time": 33.260670000000005,
                    "velocity": 1
                },
                {
                    "duration": 0.38722593749999845,
                    "durationTicks": 228,
                    "midi": 61,
                    "name": "C#4",
                    "ticks": 19588,
                    "time": 33.2674634375,
                    "velocity": 0.8976377952755905
                },
                {
                    "duration": 0.35325875000000195,
                    "durationTicks": 208,
                    "midi": 65,
                    "name": "F4",
                    "ticks": 19588,
                    "time": 33.2674634375,
                    "velocity": 0.8740157480314961
                },
                {
                    "duration": 0.4279865625000028,
                    "durationTicks": 252,
                    "midi": 65,
                    "name": "F4",
                    "ticks": 19972,
                    "time": 33.919633437499996,
                    "velocity": 0.8661417322834646
                },
                {
                    "duration": 0.3668456250000034,
                    "durationTicks": 216,
                    "midi": 61,
                    "name": "C#4",
                    "ticks": 19972,
                    "time": 33.919633437499996,
                    "velocity": 0.8818897637795275
                },
                {
                    "duration": 0.35325875000000906,
                    "durationTicks": 208,
                    "midi": 56,
                    "name": "G#3",
                    "ticks": 19972,
                    "time": 33.919633437499996,
                    "velocity": 1
                },
                {
                    "duration": 0.29211781250000257,
                    "durationTicks": 172,
                    "midi": 60,
                    "name": "C4",
                    "ticks": 20740,
                    "time": 35.2239734375,
                    "velocity": 0.905511811023622
                },
                {
                    "duration": 0.2717375000000004,
                    "durationTicks": 160,
                    "midi": 63,
                    "name": "D#4",
                    "ticks": 20740,
                    "time": 35.2239734375,
                    "velocity": 0.9133858267716536
                },
                {
                    "duration": 0.24456374999999753,
                    "durationTicks": 144,
                    "midi": 68,
                    "name": "G#4",
                    "ticks": 20740,
                    "time": 35.2239734375,
                    "velocity": 0.8818897637795275
                },
                {
                    "duration": 0.27853093750000113,
                    "durationTicks": 164,
                    "midi": 61,
                    "name": "C#4",
                    "ticks": 21124,
                    "time": 35.8761434375,
                    "velocity": 1
                },
                {
                    "duration": 0.27853093750000113,
                    "durationTicks": 164,
                    "midi": 63,
                    "name": "D#4",
                    "ticks": 21124,
                    "time": 35.8761434375,
                    "velocity": 0.968503937007874
                },
                {
                    "duration": 0.2581506250000061,
                    "durationTicks": 152,
                    "midi": 67,
                    "name": "G4",
                    "ticks": 21124,
                    "time": 35.8761434375,
                    "velocity": 1
                },
                {
                    "duration": 1.8070543749999999,
                    "durationTicks": 1064,
                    "midi": 56,
                    "name": "G#3",
                    "ticks": 21508,
                    "time": 36.5283134375,
                    "velocity": 1
                },
                {
                    "duration": 1.8614018749999985,
                    "durationTicks": 1096,
                    "midi": 63,
                    "name": "D#4",
                    "ticks": 21508,
                    "time": 36.5283134375,
                    "velocity": 0.968503937007874
                },
                {
                    "duration": 1.8410215625000035,
                    "durationTicks": 1084,
                    "midi": 60,
                    "name": "C4",
                    "ticks": 21508,
                    "time": 36.5283134375,
                    "velocity": 0.9448818897637795
                },
                {
                    "duration": 1.8070543749999999,
                    "durationTicks": 1064,
                    "midi": 68,
                    "name": "G#4",
                    "ticks": 21508,
                    "time": 36.5283134375,
                    "velocity": 0.9133858267716536
                }
            ],
            "endOfTrackTicks": 24016
        },
        {
            "channel": 9,
            "controlChanges": {
                "64": [
                    {
                        "number": 64,
                        "ticks": 18448,
                        "time": 31.33133375,
                        "value": 0
                    },
                    {
                        "number": 64,
                        "ticks": 23824,
                        "time": 40.46171375,
                        "value": 0
                    }
                ]
            },
            "pitchBends": [
                {
                    "ticks": 23824,
                    "time": 40.46171375,
                    "value": 0
                }
            ],
            "instrument": {
                "family": "drums",
                "number": 0,
                "name": "standard kit"
            },
            "name": "DRUMS",
            "notes": [
                {
                    "duration": 0.2038031250000003,
                    "durationTicks": 120,
                    "midi": 51,
                    "name": "D#3",
                    "ticks": 4224,
                    "time": 7.17387,
                    "velocity": 0.7559055118110236
                },
                {
                    "duration": 0.7268978125000007,
                    "durationTicks": 428,
                    "midi": 36,
                    "name": "C2",
                    "ticks": 4224,
                    "time": 7.17387,
                    "velocity": 0.8503937007874016
                },
                {
                    "duration": 1.433415312500001,
                    "durationTicks": 844,
                    "midi": 49,
                    "name": "C#3",
                    "ticks": 4228,
                    "time": 7.1806634375,
                    "velocity": 0.8110236220472441
                },
                {
                    "duration": 0.12228187499999965,
                    "durationTicks": 72,
                    "midi": 51,
                    "name": "D#3",
                    "ticks": 4608,
                    "time": 7.826040000000001,
                    "velocity": 0.8110236220472441
                },
                {
                    "duration": 0.1358687500000002,
                    "durationTicks": 80,
                    "midi": 37,
                    "name": "C#2",
                    "ticks": 4612,
                    "time": 7.8328334375,
                    "velocity": 0.7637795275590551
                },
                {
                    "duration": 0.09510812499999943,
                    "durationTicks": 56,
                    "midi": 51,
                    "name": "D#3",
                    "ticks": 4992,
                    "time": 8.47821,
                    "velocity": 0.7716535433070866
                },
                {
                    "duration": 0.1562490625000006,
                    "durationTicks": 92,
                    "midi": 37,
                    "name": "C#2",
                    "ticks": 4996,
                    "time": 8.4850034375,
                    "velocity": 0.8031496062992126
                },
                {
                    "duration": 0.08152124999999977,
                    "durationTicks": 48,
                    "midi": 51,
                    "name": "D#3",
                    "ticks": 5248,
                    "time": 8.91299,
                    "velocity": 0.7086614173228346
                },
                {
                    "duration": 0.11548843749999982,
                    "durationTicks": 68,
                    "midi": 51,
                    "name": "D#3",
                    "ticks": 5376,
                    "time": 9.13038,
                    "velocity": 0.6850393700787402
                },
                {
                    "duration": 0.6114093749999991,
                    "durationTicks": 360,
                    "midi": 36,
                    "name": "C2",
                    "ticks": 5376,
                    "time": 9.13038,
                    "velocity": 0.8503937007874016
                },
                {
                    "duration": 0.08152124999999977,
                    "durationTicks": 48,
                    "midi": 51,
                    "name": "D#3",
                    "ticks": 5760,
                    "time": 9.78255,
                    "velocity": 0.7401574803149606
                },
                {
                    "duration": 0.10869500000000087,
                    "durationTicks": 64,
                    "midi": 37,
                    "name": "C#2",
                    "ticks": 5764,
                    "time": 9.7893434375,
                    "velocity": 0.7244094488188977
                },
                {
                    "duration": 0.07472781249999905,
                    "durationTicks": 44,
                    "midi": 51,
                    "name": "D#3",
                    "ticks": 6144,
                    "time": 10.43472,
                    "velocity": 0.7559055118110236
                },
                {
                    "duration": 0.14266218750000093,
                    "durationTicks": 84,
                    "midi": 37,
                    "name": "C#2",
                    "ticks": 6148,
                    "time": 10.441513437500001,
                    "velocity": 0.7874015748031497
                },
                {
                    "duration": 0.0679343750000001,
                    "durationTicks": 40,
                    "midi": 51,
                    "name": "D#3",
                    "ticks": 6400,
                    "time": 10.8695,
                    "velocity": 0.6850393700787402
                },
                {
                    "duration": 0.11548843749999982,
                    "durationTicks": 68,
                    "midi": 51,
                    "name": "D#3",
                    "ticks": 6528,
                    "time": 11.08689,
                    "velocity": 0.6614173228346457
                },
                {
                    "duration": 0.5163012500000015,
                    "durationTicks": 304,
                    "midi": 36,
                    "name": "C2",
                    "ticks": 6528,
                    "time": 11.08689,
                    "velocity": 0.8503937007874016
                },
                {
                    "duration": 0.06114093749999938,
                    "durationTicks": 36,
                    "midi": 51,
                    "name": "D#3",
                    "ticks": 6912,
                    "time": 11.73906,
                    "velocity": 0.7716535433070866
                },
                {
                    "duration": 0.09510812499999943,
                    "durationTicks": 56,
                    "midi": 37,
                    "name": "C#2",
                    "ticks": 6916,
                    "time": 11.745853437500001,
                    "velocity": 0.7874015748031497
                },
                {
                    "duration": 0.06793437500000188,
                    "durationTicks": 40,
                    "midi": 51,
                    "name": "D#3",
                    "ticks": 7296,
                    "time": 12.39123,
                    "velocity": 0.7559055118110236
                },
                {
                    "duration": 0.15624906249999881,
                    "durationTicks": 92,
                    "midi": 37,
                    "name": "C#2",
                    "ticks": 7300,
                    "time": 12.398023437500001,
                    "velocity": 0.8582677165354331
                },
                {
                    "duration": 0.06793437499999833,
                    "durationTicks": 40,
                    "midi": 51,
                    "name": "D#3",
                    "ticks": 7552,
                    "time": 12.826010000000002,
                    "velocity": 0.5669291338582677
                },
                {
                    "duration": 0.10190156250000015,
                    "durationTicks": 60,
                    "midi": 51,
                    "name": "D#3",
                    "ticks": 7680,
                    "time": 13.0434,
                    "velocity": 0.7244094488188977
                },
                {
                    "duration": 0.33287843750000157,
                    "durationTicks": 196,
                    "midi": 36,
                    "name": "C2",
                    "ticks": 7680,
                    "time": 13.0434,
                    "velocity": 0.8503937007874016
                },
                {
                    "duration": 0.07472781249999905,
                    "durationTicks": 44,
                    "midi": 51,
                    "name": "D#3",
                    "ticks": 8064,
                    "time": 13.69557,
                    "velocity": 0.7874015748031497
                },
                {
                    "duration": 0.12228187500000054,
                    "durationTicks": 72,
                    "midi": 37,
                    "name": "C#2",
                    "ticks": 8068,
                    "time": 13.7023634375,
                    "velocity": 0.7795275590551181
                },
                {
                    "duration": 0.06114093749999938,
                    "durationTicks": 36,
                    "midi": 51,
                    "name": "D#3",
                    "ticks": 8320,
                    "time": 14.130350000000002,
                    "velocity": 0.6614173228346457
                },
                {
                    "duration": 0.08152125000000154,
                    "durationTicks": 48,
                    "midi": 51,
                    "name": "D#3",
                    "ticks": 8448,
                    "time": 14.34774,
                    "velocity": 0.7322834645669292
                },
                {
                    "duration": 0.1562490625000006,
                    "durationTicks": 92,
                    "midi": 37,
                    "name": "C#2",
                    "ticks": 8452,
                    "time": 14.3545334375,
                    "velocity": 0.8188976377952756
                },
                {
                    "duration": 0.08152124999999977,
                    "durationTicks": 48,
                    "midi": 51,
                    "name": "D#3",
                    "ticks": 8704,
                    "time": 14.782520000000002,
                    "velocity": 0.7559055118110236
                },
                {
                    "duration": 0.09510812499999943,
                    "durationTicks": 56,
                    "midi": 51,
                    "name": "D#3",
                    "ticks": 8832,
                    "time": 14.99991,
                    "velocity": 0.7401574803149606
                },
                {
                    "duration": 0.7948321875000008,
                    "durationTicks": 468,
                    "midi": 36,
                    "name": "C2",
                    "ticks": 8832,
                    "time": 14.99991,
                    "velocity": 0.8503937007874016
                },
                {
                    "duration": 0.10190156250000015,
                    "durationTicks": 60,
                    "midi": 49,
                    "name": "C#3",
                    "ticks": 8836,
                    "time": 15.0067034375,
                    "velocity": 0.7244094488188977
                },
                {
                    "duration": 0.08152124999999977,
                    "durationTicks": 48,
                    "midi": 51,
                    "name": "D#3",
                    "ticks": 9216,
                    "time": 15.652080000000002,
                    "velocity": 0.8110236220472441
                },
                {
                    "duration": 0.10869499999999732,
                    "durationTicks": 64,
                    "midi": 37,
                    "name": "C#2",
                    "ticks": 9220,
                    "time": 15.658873437500002,
                    "velocity": 0.7874015748031497
                },
                {
                    "duration": 0.08831468750000226,
                    "durationTicks": 52,
                    "midi": 51,
                    "name": "D#3",
                    "ticks": 9600,
                    "time": 16.30425,
                    "velocity": 0.8110236220472441
                },
                {
                    "duration": 0.17662937500000098,
                    "durationTicks": 104,
                    "midi": 37,
                    "name": "C#2",
                    "ticks": 9604,
                    "time": 16.3110434375,
                    "velocity": 0.889763779527559
                },
                {
                    "duration": 0.06114093749999938,
                    "durationTicks": 36,
                    "midi": 51,
                    "name": "D#3",
                    "ticks": 9856,
                    "time": 16.739030000000003,
                    "velocity": 0.8110236220472441
                },
                {
                    "duration": 0.10190156250000015,
                    "durationTicks": 60,
                    "midi": 51,
                    "name": "D#3",
                    "ticks": 9984,
                    "time": 16.95642,
                    "velocity": 0.7559055118110236
                },
                {
                    "duration": 0.7133109375000011,
                    "durationTicks": 420,
                    "midi": 36,
                    "name": "C2",
                    "ticks": 9984,
                    "time": 16.95642,
                    "velocity": 0.8503937007874016
                },
                {
                    "duration": 0.08152125000000154,
                    "durationTicks": 48,
                    "midi": 51,
                    "name": "D#3",
                    "ticks": 10368,
                    "time": 17.60859,
                    "velocity": 0.84251968503937
                },
                {
                    "duration": 0.1494556249999981,
                    "durationTicks": 88,
                    "midi": 37,
                    "name": "C#2",
                    "ticks": 10372,
                    "time": 17.6153834375,
                    "velocity": 0.8346456692913385
                },
                {
                    "duration": 0.07472781249999727,
                    "durationTicks": 44,
                    "midi": 51,
                    "name": "D#3",
                    "ticks": 10752,
                    "time": 18.26076,
                    "velocity": 0.84251968503937
                },
                {
                    "duration": 0.1698359374999967,
                    "durationTicks": 100,
                    "midi": 37,
                    "name": "C#2",
                    "ticks": 10756,
                    "time": 18.267553437500002,
                    "velocity": 0.8582677165354331
                },
                {
                    "duration": 0.0679343750000001,
                    "durationTicks": 40,
                    "midi": 51,
                    "name": "D#3",
                    "ticks": 11008,
                    "time": 18.69554,
                    "velocity": 0.7086614173228346
                },
                {
                    "duration": 0.10190156250000015,
                    "durationTicks": 60,
                    "midi": 51,
                    "name": "D#3",
                    "ticks": 11136,
                    "time": 18.91293,
                    "velocity": 0.7716535433070866
                },
                {
                    "duration": 0.726897812499999,
                    "durationTicks": 428,
                    "midi": 36,
                    "name": "C2",
                    "ticks": 11136,
                    "time": 18.91293,
                    "velocity": 0.8503937007874016
                },
                {
                    "duration": 0.09510812499999943,
                    "durationTicks": 56,
                    "midi": 51,
                    "name": "D#3",
                    "ticks": 11520,
                    "time": 19.5651,
                    "velocity": 0.8740157480314961
                },
                {
                    "duration": 0.12907531249999948,
                    "durationTicks": 76,
                    "midi": 37,
                    "name": "C#2",
                    "ticks": 11524,
                    "time": 19.5718934375,
                    "velocity": 0.7874015748031497
                },
                {
                    "duration": 0.08152125000000154,
                    "durationTicks": 48,
                    "midi": 51,
                    "name": "D#3",
                    "ticks": 11904,
                    "time": 20.21727,
                    "velocity": 0.8110236220472441
                },
                {
                    "duration": 0.1630425000000031,
                    "durationTicks": 96,
                    "midi": 37,
                    "name": "C#2",
                    "ticks": 11908,
                    "time": 20.2240634375,
                    "velocity": 0.8582677165354331
                },
                {
                    "duration": 0.08152125000000154,
                    "durationTicks": 48,
                    "midi": 51,
                    "name": "D#3",
                    "ticks": 12288,
                    "time": 20.86944,
                    "velocity": 0.8110236220472441
                },
                {
                    "duration": 0.47554062499999716,
                    "durationTicks": 280,
                    "midi": 36,
                    "name": "C2",
                    "ticks": 12288,
                    "time": 20.86944,
                    "velocity": 0.8503937007874016
                },
                {
                    "duration": 0.06793437499999655,
                    "durationTicks": 40,
                    "midi": 51,
                    "name": "D#3",
                    "ticks": 12672,
                    "time": 21.521610000000003,
                    "velocity": 0.7716535433070866
                },
                {
                    "duration": 0.10869500000000443,
                    "durationTicks": 64,
                    "midi": 37,
                    "name": "C#2",
                    "ticks": 12676,
                    "time": 21.5284034375,
                    "velocity": 0.7874015748031497
                },
                {
                    "duration": 0.054347500000002213,
                    "durationTicks": 32,
                    "midi": 51,
                    "name": "D#3",
                    "ticks": 12928,
                    "time": 21.95639,
                    "velocity": 0.6771653543307087
                },
                {
                    "duration": 0.07472781250000082,
                    "durationTicks": 44,
                    "midi": 51,
                    "name": "D#3",
                    "ticks": 13056,
                    "time": 22.17378,
                    "velocity": 0.7401574803149606
                },
                {
                    "duration": 0.13586875000000376,
                    "durationTicks": 80,
                    "midi": 37,
                    "name": "C#2",
                    "ticks": 13060,
                    "time": 22.180573437499998,
                    "velocity": 0.889763779527559
                },
                {
                    "duration": 0.0679343750000001,
                    "durationTicks": 40,
                    "midi": 51,
                    "name": "D#3",
                    "ticks": 13312,
                    "time": 22.60856,
                    "velocity": 0.7401574803149606
                },
                {
                    "duration": 0.10190156250000015,
                    "durationTicks": 60,
                    "midi": 51,
                    "name": "D#3",
                    "ticks": 13440,
                    "time": 22.825950000000002,
                    "velocity": 0.7086614173228346
                },
                {
                    "duration": 0.6861371875000017,
                    "durationTicks": 404,
                    "midi": 36,
                    "name": "C2",
                    "ticks": 13440,
                    "time": 22.825950000000002,
                    "velocity": 0.8503937007874016
                },
                {
                    "duration": 0.08831468750000226,
                    "durationTicks": 52,
                    "midi": 49,
                    "name": "C#3",
                    "ticks": 13444,
                    "time": 22.8327434375,
                    "velocity": 0.84251968503937
                },
                {
                    "duration": 0.0679343750000001,
                    "durationTicks": 40,
                    "midi": 51,
                    "name": "D#3",
                    "ticks": 13824,
                    "time": 23.47812,
                    "velocity": 0.7874015748031497
                },
                {
                    "duration": 0.10869500000000443,
                    "durationTicks": 64,
                    "midi": 37,
                    "name": "C#2",
                    "ticks": 13828,
                    "time": 23.484913437499998,
                    "velocity": 0.8188976377952756
                },
                {
                    "duration": 0.08152124999999799,
                    "durationTicks": 48,
                    "midi": 51,
                    "name": "D#3",
                    "ticks": 14208,
                    "time": 24.130290000000002,
                    "velocity": 0.8110236220472441
                },
                {
                    "duration": 0.15624906250000237,
                    "durationTicks": 92,
                    "midi": 37,
                    "name": "C#2",
                    "ticks": 14212,
                    "time": 24.1370834375,
                    "velocity": 0.8582677165354331
                },
                {
                    "duration": 0.08831468749999871,
                    "durationTicks": 52,
                    "midi": 51,
                    "name": "D#3",
                    "ticks": 14592,
                    "time": 24.78246,
                    "velocity": 0.84251968503937
                },
                {
                    "duration": 0.4076062500000006,
                    "durationTicks": 240,
                    "midi": 36,
                    "name": "C2",
                    "ticks": 14592,
                    "time": 24.78246,
                    "velocity": 0.8503937007874016
                },
                {
                    "duration": 0.06114093749999938,
                    "durationTicks": 36,
                    "midi": 51,
                    "name": "D#3",
                    "ticks": 14976,
                    "time": 25.434630000000002,
                    "velocity": 0.7874015748031497
                },
                {
                    "duration": 0.1358687500000002,
                    "durationTicks": 80,
                    "midi": 37,
                    "name": "C#2",
                    "ticks": 14980,
                    "time": 25.4414234375,
                    "velocity": 0.7637795275590551
                },
                {
                    "duration": 0.0679343750000001,
                    "durationTicks": 40,
                    "midi": 51,
                    "name": "D#3",
                    "ticks": 15360,
                    "time": 26.0868,
                    "velocity": 0.84251968503937
                },
                {
                    "duration": 0.16983593750000026,
                    "durationTicks": 100,
                    "midi": 37,
                    "name": "C#2",
                    "ticks": 15364,
                    "time": 26.0935934375,
                    "velocity": 0.9212598425196851
                },
                {
                    "duration": 0.08152124999999799,
                    "durationTicks": 48,
                    "midi": 51,
                    "name": "D#3",
                    "ticks": 15616,
                    "time": 26.52158,
                    "velocity": 0.7401574803149606
                },
                {
                    "duration": 0.10190156250000015,
                    "durationTicks": 60,
                    "midi": 51,
                    "name": "D#3",
                    "ticks": 15744,
                    "time": 26.738970000000002,
                    "velocity": 0.7244094488188977
                },
                {
                    "duration": 0.5910290624999988,
                    "durationTicks": 348,
                    "midi": 36,
                    "name": "C2",
                    "ticks": 15744,
                    "time": 26.738970000000002,
                    "velocity": 0.8503937007874016
                },
                {
                    "duration": 0.0679343750000001,
                    "durationTicks": 40,
                    "midi": 51,
                    "name": "D#3",
                    "ticks": 16128,
                    "time": 27.39114,
                    "velocity": 0.7874015748031497
                },
                {
                    "duration": 0.1154884375000016,
                    "durationTicks": 68,
                    "midi": 37,
                    "name": "C#2",
                    "ticks": 16132,
                    "time": 27.3979334375,
                    "velocity": 0.7795275590551181
                },
                {
                    "duration": 0.06793437500000366,
                    "durationTicks": 40,
                    "midi": 51,
                    "name": "D#3",
                    "ticks": 16384,
                    "time": 27.82592,
                    "velocity": 0.6141732283464567
                },
                {
                    "duration": 0.08152124999999799,
                    "durationTicks": 48,
                    "midi": 51,
                    "name": "D#3",
                    "ticks": 16512,
                    "time": 28.04331,
                    "velocity": 0.7244094488188977
                },
                {
                    "duration": 0.1698359375000038,
                    "durationTicks": 100,
                    "midi": 37,
                    "name": "C#2",
                    "ticks": 16516,
                    "time": 28.0501034375,
                    "velocity": 0.8582677165354331
                },
                {
                    "duration": 0.06793437500000366,
                    "durationTicks": 40,
                    "midi": 51,
                    "name": "D#3",
                    "ticks": 16768,
                    "time": 28.478089999999998,
                    "velocity": 0.6850393700787402
                },
                {
                    "duration": 0.08831468749999871,
                    "durationTicks": 52,
                    "midi": 51,
                    "name": "D#3",
                    "ticks": 16896,
                    "time": 28.69548,
                    "velocity": 0.7559055118110236
                },
                {
                    "duration": 0.4076062500000006,
                    "durationTicks": 240,
                    "midi": 36,
                    "name": "C2",
                    "ticks": 16896,
                    "time": 28.69548,
                    "velocity": 0.8503937007874016
                },
                {
                    "duration": 0.06793437499999655,
                    "durationTicks": 40,
                    "midi": 51,
                    "name": "D#3",
                    "ticks": 17280,
                    "time": 29.34765,
                    "velocity": 0.7559055118110236
                },
                {
                    "duration": 0.13586875000000376,
                    "durationTicks": 80,
                    "midi": 37,
                    "name": "C#2",
                    "ticks": 17284,
                    "time": 29.3544434375,
                    "velocity": 0.8582677165354331
                },
                {
                    "duration": 0.04755406250000149,
                    "durationTicks": 28,
                    "midi": 51,
                    "name": "D#3",
                    "ticks": 17664,
                    "time": 29.99982,
                    "velocity": 0.8110236220472441
                },
                {
                    "duration": 0.17662937500000098,
                    "durationTicks": 104,
                    "midi": 37,
                    "name": "C#2",
                    "ticks": 17668,
                    "time": 30.0066134375,
                    "velocity": 0.8188976377952756
                },
                {
                    "duration": 0.06793437500000366,
                    "durationTicks": 40,
                    "midi": 51,
                    "name": "D#3",
                    "ticks": 17920,
                    "time": 30.4346,
                    "velocity": 0.6614173228346457
                },
                {
                    "duration": 0.08831468749999871,
                    "durationTicks": 52,
                    "midi": 51,
                    "name": "D#3",
                    "ticks": 18048,
                    "time": 30.65199,
                    "velocity": 0.7559055118110236
                },
                {
                    "duration": 0.6385831249999967,
                    "durationTicks": 376,
                    "midi": 36,
                    "name": "C2",
                    "ticks": 18048,
                    "time": 30.65199,
                    "velocity": 0.8503937007874016
                },
                {
                    "duration": 0.054347500000002213,
                    "durationTicks": 32,
                    "midi": 49,
                    "name": "C#3",
                    "ticks": 18052,
                    "time": 30.6587834375,
                    "velocity": 0.7322834645669292
                },
                {
                    "duration": 0.08152124999999799,
                    "durationTicks": 48,
                    "midi": 51,
                    "name": "D#3",
                    "ticks": 18432,
                    "time": 31.304160000000003,
                    "velocity": 0.7874015748031497
                },
                {
                    "duration": 0.14945562500000165,
                    "durationTicks": 88,
                    "midi": 37,
                    "name": "C#2",
                    "ticks": 18436,
                    "time": 31.3109534375,
                    "velocity": 0.8031496062992126
                },
                {
                    "duration": 0.08152125000000154,
                    "durationTicks": 48,
                    "midi": 51,
                    "name": "D#3",
                    "ticks": 18816,
                    "time": 31.95633,
                    "velocity": 0.7716535433070866
                },
                {
                    "duration": 0.16304249999999954,
                    "durationTicks": 96,
                    "midi": 37,
                    "name": "C#2",
                    "ticks": 18820,
                    "time": 31.9631234375,
                    "velocity": 0.8031496062992126
                },
                {
                    "duration": 0.06114093749999938,
                    "durationTicks": 36,
                    "midi": 51,
                    "name": "D#3",
                    "ticks": 19072,
                    "time": 32.39111,
                    "velocity": 0.6535433070866141
                },
                {
                    "duration": 0.6861371875000017,
                    "durationTicks": 404,
                    "midi": 36,
                    "name": "C2",
                    "ticks": 19200,
                    "time": 32.6085,
                    "velocity": 0.8503937007874016
                },
                {
                    "duration": 0.08831468750000226,
                    "durationTicks": 52,
                    "midi": 51,
                    "name": "D#3",
                    "ticks": 19200,
                    "time": 32.6085,
                    "velocity": 0.7559055118110236
                },
                {
                    "duration": 0.067934374999993,
                    "durationTicks": 40,
                    "midi": 51,
                    "name": "D#3",
                    "ticks": 19584,
                    "time": 33.260670000000005,
                    "velocity": 0.7874015748031497
                },
                {
                    "duration": 0.1358687500000002,
                    "durationTicks": 80,
                    "midi": 37,
                    "name": "C#2",
                    "ticks": 19588,
                    "time": 33.2674634375,
                    "velocity": 0.7716535433070866
                },
                {
                    "duration": 0.047554062500005045,
                    "durationTicks": 28,
                    "midi": 51,
                    "name": "D#3",
                    "ticks": 19840,
                    "time": 33.69545,
                    "velocity": 0.4566929133858268
                },
                {
                    "duration": 0.09510812500000299,
                    "durationTicks": 56,
                    "midi": 51,
                    "name": "D#3",
                    "ticks": 19968,
                    "time": 33.91284,
                    "velocity": 0.7874015748031497
                },
                {
                    "duration": 0.1698359375000038,
                    "durationTicks": 100,
                    "midi": 37,
                    "name": "C#2",
                    "ticks": 19972,
                    "time": 33.919633437499996,
                    "velocity": 0.7874015748031497
                },
                {
                    "duration": 0.06793437500000721,
                    "durationTicks": 40,
                    "midi": 51,
                    "name": "D#3",
                    "ticks": 20224,
                    "time": 34.34762,
                    "velocity": 0.5748031496062992
                },
                {
                    "duration": 0.5027143750000036,
                    "durationTicks": 296,
                    "midi": 36,
                    "name": "C2",
                    "ticks": 20352,
                    "time": 34.56501,
                    "velocity": 0.8503937007874016
                },
                {
                    "duration": 0.11548843750000515,
                    "durationTicks": 68,
                    "midi": 51,
                    "name": "D#3",
                    "ticks": 20352,
                    "time": 34.56501,
                    "velocity": 0.7559055118110236
                },
                {
                    "duration": 0.0679343750000001,
                    "durationTicks": 40,
                    "midi": 51,
                    "name": "D#3",
                    "ticks": 20736,
                    "time": 35.21718,
                    "velocity": 0.7401574803149606
                },
                {
                    "duration": 0.14945562500000165,
                    "durationTicks": 88,
                    "midi": 37,
                    "name": "C#2",
                    "ticks": 20740,
                    "time": 35.2239734375,
                    "velocity": 0.8031496062992126
                },
                {
                    "duration": 0.067934374999993,
                    "durationTicks": 40,
                    "midi": 51,
                    "name": "D#3",
                    "ticks": 21120,
                    "time": 35.869350000000004,
                    "velocity": 0.7716535433070866
                },
                {
                    "duration": 0.1630425000000031,
                    "durationTicks": 96,
                    "midi": 37,
                    "name": "C#2",
                    "ticks": 21124,
                    "time": 35.8761434375,
                    "velocity": 0.8188976377952756
                },
                {
                    "duration": 0.06114093749999938,
                    "durationTicks": 36,
                    "midi": 51,
                    "name": "D#3",
                    "ticks": 21376,
                    "time": 36.30413,
                    "velocity": 0.6377952755905512
                },
                {
                    "duration": 0.2377703125000039,
                    "durationTicks": 140,
                    "midi": 36,
                    "name": "C2",
                    "ticks": 21504,
                    "time": 36.52152,
                    "velocity": 0.8503937007874016
                },
                {
                    "duration": 0.08152125000000154,
                    "durationTicks": 48,
                    "midi": 51,
                    "name": "D#3",
                    "ticks": 21504,
                    "time": 36.52152,
                    "velocity": 0.7874015748031497
                }
            ],
            "endOfTrackTicks": 24016
        },
        {
            "channel": 0,
            "controlChanges": {
                "91": [
                    {
                        "number": 91,
                        "ticks": 3072,
                        "time": 5.21736,
                        "value": 0.7874015748031497
                    }
                ]
            },
            "pitchBends": [],
            "instrument": {
                "family": "piano",
                "number": 0,
                "name": "acoustic grand piano"
            },
            "name": "GS/CONTRLS",
            "notes": [],
            "endOfTrackTicks": 6144
        },
        {
            "channel": 0,
            "controlChanges": {
                "91": [
                    {
                        "number": 91,
                        "ticks": 3072,
                        "time": 5.21736,
                        "value": 0.07874015748031496
                    }
                ]
            },
            "pitchBends": [],
            "instrument": {
                "family": "piano",
                "number": 0,
                "name": "acoustic grand piano"
            },
            "name": "",
            "notes": []
        },
        {
            "channel": 0,
            "controlChanges": {
                "91": [
                    {
                        "number": 91,
                        "ticks": 3072,
                        "time": 5.21736,
                        "value": 0.7874015748031497
                    }
                ]
            },
            "pitchBends": [],
            "instrument": {
                "family": "piano",
                "number": 0,
                "name": "acoustic grand piano"
            },
            "name": "",
            "notes": []
        },
        {
            "channel": 0,
            "controlChanges": {
                "91": [
                    {
                        "number": 91,
                        "ticks": 3072,
                        "time": 5.21736,
                        "value": 0.7874015748031497
                    }
                ]
            },
            "pitchBends": [],
            "instrument": {
                "family": "piano",
                "number": 0,
                "name": "acoustic grand piano"
            },
            "name": "",
            "notes": []
        },
        {
            "channel": 0,
            "controlChanges": {
                "91": [
                    {
                        "number": 91,
                        "ticks": 3072,
                        "time": 5.21736,
                        "value": 0.7874015748031497
                    }
                ]
            },
            "pitchBends": [],
            "instrument": {
                "family": "piano",
                "number": 0,
                "name": "acoustic grand piano"
            },
            "name": "",
            "notes": []
        },
        {
            "channel": 0,
            "controlChanges": {
                "91": [
                    {
                        "number": 91,
                        "ticks": 3072,
                        "time": 5.21736,
                        "value": 0.7874015748031497
                    }
                ]
            },
            "pitchBends": [],
            "instrument": {
                "family": "piano",
                "number": 0,
                "name": "acoustic grand piano"
            },
            "name": "",
            "notes": []
        },
        {
            "channel": 0,
            "controlChanges": {
                "91": [
                    {
                        "number": 91,
                        "ticks": 3072,
                        "time": 5.21736,
                        "value": 0.7874015748031497
                    }
                ]
            },
            "pitchBends": [],
            "instrument": {
                "family": "piano",
                "number": 0,
                "name": "acoustic grand piano"
            },
            "name": "",
            "notes": []
        },
        {
            "channel": 0,
            "controlChanges": {
                "91": [
                    {
                        "number": 91,
                        "ticks": 3072,
                        "time": 5.21736,
                        "value": 0.7874015748031497
                    }
                ]
            },
            "pitchBends": [],
            "instrument": {
                "family": "piano",
                "number": 0,
                "name": "acoustic grand piano"
            },
            "name": "",
            "notes": []
        },
        {
            "channel": 0,
            "controlChanges": {
                "91": [
                    {
                        "number": 91,
                        "ticks": 3072,
                        "time": 5.21736,
                        "value": 0.7874015748031497
                    }
                ]
            },
            "pitchBends": [],
            "instrument": {
                "family": "piano",
                "number": 0,
                "name": "acoustic grand piano"
            },
            "name": "",
            "notes": []
        },
        {
            "channel": 0,
            "controlChanges": {
                "91": [
                    {
                        "number": 91,
                        "ticks": 3072,
                        "time": 5.21736,
                        "value": 1
                    }
                ],
                "93": [
                    {
                        "number": 93,
                        "ticks": 3072,
                        "time": 5.21736,
                        "value": 0.07874015748031496
                    }
                ]
            },
            "pitchBends": [],
            "instrument": {
                "family": "piano",
                "number": 0,
                "name": "acoustic grand piano"
            },
            "name": "",
            "notes": []
        },
        {
            "channel": 0,
            "controlChanges": {},
            "pitchBends": [],
            "instrument": {
                "family": "piano",
                "number": 0,
                "name": "acoustic grand piano"
            },
            "name": "GS/RESET",
            "notes": [],
            "endOfTrackTicks": 6144
        }
    ]
} as unknown as MidiTrack;
export const switzerland: MidiTrack = {
    "header": {
        "keySignatures": [
            {
                "key": "Bb",
                "scale": "major",
                "ticks": 0
            }
        ],
        "meta": [
            {
                "text": "THE SOFTWARE TOOLWORKS",
                "ticks": 0,
                "type": "text"
            },
            {
                "text": "WORLD ATLAS",
                "ticks": 0,
                "type": "text"
            },
            {
                "text": "MultiMedia Windows Version",
                "ticks": 0,
                "type": "text"
            },
            {
                "text": "Country: SWITZERLAND",
                "ticks": 0,
                "type": "text"
            },
            {
                "text": "(p) (c) The Software Toolworks 1991",
                "ticks": 0,
                "type": "text"
            },
            {
                "text": "revised 11-15-91",
                "ticks": 0,
                "type": "text"
            },
            {
                "text": "edit date:9-11-91",
                "ticks": 0,
                "type": "text"
            },
            {
                "text": "MMWIN EDIT DATE: 9-13-91",
                "ticks": 0,
                "type": "text"
            },
            {
                "text": "This file provided by:",
                "ticks": 0,
                "type": "text"
            },
            {
                "text": "Rob Wallace Music",
                "ticks": 0,
                "type": "text"
            },
            {
                "text": "(602) 979-6201",
                "ticks": 0,
                "type": "text"
            }
        ],
        "name": "",
        "ppq": 192,
        "tempos": [
            {
                "bpm": 60,
                "ticks": 0
            }
        ],
        "timeSignatures": [
            {
                "ticks": 0,
                "timeSignature": [
                    3,
                    4
                ],
                "measures": 0
            }
        ]
    },
    "tracks": [
        {
            "channel": 1,
            "controlChanges": {
                "7": [
                    {
                        "number": 7,
                        "ticks": 0,
                        "time": 0,
                        "value": 0.6299212598425197
                    }
                ]
            },
            "pitchBends": [],
            "instrument": {
                "family": "organ",
                "number": 17,
                "name": "percussive organ"
            },
            "name": "R.H.                ",
            "notes": [
                {
                    "duration": 0.6666666666666666,
                    "durationTicks": 128,
                    "midi": 65,
                    "name": "F4",
                    "ticks": 0,
                    "time": 0,
                    "velocity": 0.7874015748031497
                },
                {
                    "duration": 0.6666666666666666,
                    "durationTicks": 128,
                    "midi": 62,
                    "name": "D4",
                    "ticks": 0,
                    "time": 0,
                    "velocity": 0.7874015748031497
                },
                {
                    "duration": 0.16666666666666663,
                    "durationTicks": 32,
                    "midi": 65,
                    "name": "F4",
                    "ticks": 144,
                    "time": 0.75,
                    "velocity": 0.7874015748031497
                },
                {
                    "duration": 0.16666666666666663,
                    "durationTicks": 32,
                    "midi": 62,
                    "name": "D4",
                    "ticks": 144,
                    "time": 0.75,
                    "velocity": 0.7874015748031497
                },
                {
                    "duration": 0.9166666666666667,
                    "durationTicks": 176,
                    "midi": 65,
                    "name": "F4",
                    "ticks": 192,
                    "time": 1,
                    "velocity": 0.7874015748031497
                },
                {
                    "duration": 0.9166666666666667,
                    "durationTicks": 176,
                    "midi": 62,
                    "name": "D4",
                    "ticks": 192,
                    "time": 1,
                    "velocity": 0.7874015748031497
                },
                {
                    "duration": 0.9166666666666665,
                    "durationTicks": 176,
                    "midi": 70,
                    "name": "A#4",
                    "ticks": 384,
                    "time": 2,
                    "velocity": 0.7874015748031497
                },
                {
                    "duration": 0.9166666666666665,
                    "durationTicks": 176,
                    "midi": 62,
                    "name": "D4",
                    "ticks": 384,
                    "time": 2,
                    "velocity": 0.7874015748031497
                },
                {
                    "duration": 0.6666666666666665,
                    "durationTicks": 128,
                    "midi": 63,
                    "name": "D#4",
                    "ticks": 576,
                    "time": 3,
                    "velocity": 0.7874015748031497
                },
                {
                    "duration": 0.6666666666666665,
                    "durationTicks": 128,
                    "midi": 70,
                    "name": "A#4",
                    "ticks": 576,
                    "time": 3,
                    "velocity": 0.7874015748031497
                },
                {
                    "duration": 0.16666666666666652,
                    "durationTicks": 32,
                    "midi": 69,
                    "name": "A4",
                    "ticks": 720,
                    "time": 3.75,
                    "velocity": 0.7874015748031497
                },
                {
                    "duration": 1.416666666666667,
                    "durationTicks": 272,
                    "midi": 63,
                    "name": "D#4",
                    "ticks": 768,
                    "time": 4,
                    "velocity": 0.7874015748031497
                },
                {
                    "duration": 1.416666666666667,
                    "durationTicks": 272,
                    "midi": 69,
                    "name": "A4",
                    "ticks": 768,
                    "time": 4,
                    "velocity": 0.7874015748031497
                },
                {
                    "duration": 0.666666666666667,
                    "durationTicks": 128,
                    "midi": 63,
                    "name": "D#4",
                    "ticks": 1152,
                    "time": 6,
                    "velocity": 0.7874015748031497
                },
                {
                    "duration": 0.666666666666667,
                    "durationTicks": 128,
                    "midi": 60,
                    "name": "C4",
                    "ticks": 1152,
                    "time": 6,
                    "velocity": 0.7874015748031497
                },
                {
                    "duration": 0.666666666666667,
                    "durationTicks": 128,
                    "midi": 65,
                    "name": "F4",
                    "ticks": 1152,
                    "time": 6,
                    "velocity": 0.7874015748031497
                },
                {
                    "duration": 0.16666666666666696,
                    "durationTicks": 32,
                    "midi": 65,
                    "name": "F4",
                    "ticks": 1296,
                    "time": 6.75,
                    "velocity": 0.7874015748031497
                },
                {
                    "duration": 0.16666666666666696,
                    "durationTicks": 32,
                    "midi": 63,
                    "name": "D#4",
                    "ticks": 1296,
                    "time": 6.75,
                    "velocity": 0.7874015748031497
                },
                {
                    "duration": 0.16666666666666696,
                    "durationTicks": 32,
                    "midi": 60,
                    "name": "C4",
                    "ticks": 1296,
                    "time": 6.75,
                    "velocity": 0.7874015748031497
                },
                {
                    "duration": 0.916666666666667,
                    "durationTicks": 176,
                    "midi": 65,
                    "name": "F4",
                    "ticks": 1344,
                    "time": 7,
                    "velocity": 0.7874015748031497
                },
                {
                    "duration": 0.916666666666667,
                    "durationTicks": 176,
                    "midi": 63,
                    "name": "D#4",
                    "ticks": 1344,
                    "time": 7,
                    "velocity": 0.7874015748031497
                },
                {
                    "duration": 0.916666666666667,
                    "durationTicks": 176,
                    "midi": 60,
                    "name": "C4",
                    "ticks": 1344,
                    "time": 7,
                    "velocity": 0.7874015748031497
                },
                {
                    "duration": 0.9166666666666661,
                    "durationTicks": 176,
                    "midi": 72,
                    "name": "C5",
                    "ticks": 1536,
                    "time": 8,
                    "velocity": 0.7874015748031497
                },
                {
                    "duration": 0.9166666666666661,
                    "durationTicks": 176,
                    "midi": 63,
                    "name": "D#4",
                    "ticks": 1536,
                    "time": 8,
                    "velocity": 0.7874015748031497
                },
                {
                    "duration": 0.6666666666666661,
                    "durationTicks": 128,
                    "midi": 63,
                    "name": "D#4",
                    "ticks": 1728,
                    "time": 9,
                    "velocity": 0.7874015748031497
                },
                {
                    "duration": 0.6666666666666661,
                    "durationTicks": 128,
                    "midi": 72,
                    "name": "C5",
                    "ticks": 1728,
                    "time": 9,
                    "velocity": 0.7874015748031497
                },
                {
                    "duration": 0.16666666666666607,
                    "durationTicks": 32,
                    "midi": 70,
                    "name": "A#4",
                    "ticks": 1872,
                    "time": 9.75,
                    "velocity": 0.7874015748031497
                },
                {
                    "duration": 0.16666666666666607,
                    "durationTicks": 32,
                    "midi": 62,
                    "name": "D4",
                    "ticks": 1872,
                    "time": 9.75,
                    "velocity": 0.7874015748031497
                },
                {
                    "duration": 1,
                    "durationTicks": 192,
                    "midi": 70,
                    "name": "A#4",
                    "ticks": 1920,
                    "time": 10,
                    "velocity": 0.7874015748031497
                },
                {
                    "duration": 1,
                    "durationTicks": 192,
                    "midi": 62,
                    "name": "D4",
                    "ticks": 1920,
                    "time": 10,
                    "velocity": 0.7874015748031497
                },
                {
                    "duration": 1.416666666666666,
                    "durationTicks": 272,
                    "midi": 74,
                    "name": "D5",
                    "ticks": 2304,
                    "time": 12,
                    "velocity": 0.7874015748031497
                },
                {
                    "duration": 1.416666666666666,
                    "durationTicks": 272,
                    "midi": 70,
                    "name": "A#4",
                    "ticks": 2304,
                    "time": 12,
                    "velocity": 0.7874015748031497
                },
                {
                    "duration": 0.4166666666666661,
                    "durationTicks": 80,
                    "midi": 74,
                    "name": "D5",
                    "ticks": 2592,
                    "time": 13.5,
                    "velocity": 0.7874015748031497
                },
                {
                    "duration": 0.4166666666666661,
                    "durationTicks": 80,
                    "midi": 70,
                    "name": "A#4",
                    "ticks": 2592,
                    "time": 13.5,
                    "velocity": 0.7874015748031497
                },
                {
                    "duration": 0.4166666666666661,
                    "durationTicks": 80,
                    "midi": 72,
                    "name": "C5",
                    "ticks": 2688,
                    "time": 14,
                    "velocity": 0.7874015748031497
                },
                {
                    "duration": 0.4166666666666661,
                    "durationTicks": 80,
                    "midi": 65,
                    "name": "F4",
                    "ticks": 2688,
                    "time": 14,
                    "velocity": 0.7874015748031497
                },
                {
                    "duration": 0.4166666666666661,
                    "durationTicks": 80,
                    "midi": 60,
                    "name": "C4",
                    "ticks": 2784,
                    "time": 14.5,
                    "velocity": 0.7874015748031497
                },
                {
                    "duration": 0.4166666666666661,
                    "durationTicks": 80,
                    "midi": 72,
                    "name": "C5",
                    "ticks": 2784,
                    "time": 14.5,
                    "velocity": 0.7874015748031497
                },
                {
                    "duration": 1.4166666666666679,
                    "durationTicks": 272,
                    "midi": 72,
                    "name": "C5",
                    "ticks": 2880,
                    "time": 15,
                    "velocity": 0.7874015748031497
                },
                {
                    "duration": 1.9166666666666679,
                    "durationTicks": 368,
                    "midi": 64,
                    "name": "E4",
                    "ticks": 2880,
                    "time": 15,
                    "velocity": 0.7874015748031497
                },
                {
                    "duration": 0.41666666666666785,
                    "durationTicks": 80,
                    "midi": 70,
                    "name": "A#4",
                    "ticks": 3168,
                    "time": 16.5,
                    "velocity": 0.7874015748031497
                },
                {
                    "duration": 0.9166666666666679,
                    "durationTicks": 176,
                    "midi": 60,
                    "name": "C4",
                    "ticks": 3264,
                    "time": 17,
                    "velocity": 0.7874015748031497
                },
                {
                    "duration": 0.9166666666666679,
                    "durationTicks": 176,
                    "midi": 69,
                    "name": "A4",
                    "ticks": 3264,
                    "time": 17,
                    "velocity": 0.7874015748031497
                },
                {
                    "duration": 0.9166666666666679,
                    "durationTicks": 176,
                    "midi": 65,
                    "name": "F4",
                    "ticks": 3264,
                    "time": 17,
                    "velocity": 0.7874015748031497
                },
                {
                    "duration": 1.9166666666666679,
                    "durationTicks": 368,
                    "midi": 62,
                    "name": "D4",
                    "ticks": 3456,
                    "time": 18,
                    "velocity": 0.7874015748031497
                },
                {
                    "duration": 1.9166666666666679,
                    "durationTicks": 368,
                    "midi": 67,
                    "name": "G4",
                    "ticks": 3456,
                    "time": 18,
                    "velocity": 0.7874015748031497
                },
                {
                    "duration": 0.41666666666666785,
                    "durationTicks": 80,
                    "midi": 60,
                    "name": "C4",
                    "ticks": 3840,
                    "time": 20,
                    "velocity": 0.7874015748031497
                },
                {
                    "duration": 0.9166666666666679,
                    "durationTicks": 176,
                    "midi": 64,
                    "name": "E4",
                    "ticks": 3840,
                    "time": 20,
                    "velocity": 0.7874015748031497
                },
                {
                    "duration": 0.41666666666666785,
                    "durationTicks": 80,
                    "midi": 58,
                    "name": "A#3",
                    "ticks": 3936,
                    "time": 20.5,
                    "velocity": 0.7874015748031497
                },
                {
                    "duration": 2.416666666666668,
                    "durationTicks": 464,
                    "midi": 57,
                    "name": "A3",
                    "ticks": 4032,
                    "time": 21,
                    "velocity": 0.7874015748031497
                },
                {
                    "duration": 2.416666666666668,
                    "durationTicks": 464,
                    "midi": 65,
                    "name": "F4",
                    "ticks": 4032,
                    "time": 21,
                    "velocity": 0.7874015748031497
                },
                {
                    "duration": 0.6666666666666679,
                    "durationTicks": 128,
                    "midi": 69,
                    "name": "A4",
                    "ticks": 4608,
                    "time": 24,
                    "velocity": 0.7874015748031497
                },
                {
                    "duration": 0.6666666666666679,
                    "durationTicks": 128,
                    "midi": 60,
                    "name": "C4",
                    "ticks": 4608,
                    "time": 24,
                    "velocity": 0.7874015748031497
                },
                {
                    "duration": 0.16666666666666785,
                    "durationTicks": 32,
                    "midi": 69,
                    "name": "A4",
                    "ticks": 4752,
                    "time": 24.75,
                    "velocity": 0.7874015748031497
                },
                {
                    "duration": 0.16666666666666785,
                    "durationTicks": 32,
                    "midi": 60,
                    "name": "C4",
                    "ticks": 4752,
                    "time": 24.75,
                    "velocity": 0.7874015748031497
                },
                {
                    "duration": 0.9166666666666679,
                    "durationTicks": 176,
                    "midi": 60,
                    "name": "C4",
                    "ticks": 4800,
                    "time": 25,
                    "velocity": 0.7874015748031497
                },
                {
                    "duration": 0.9166666666666679,
                    "durationTicks": 176,
                    "midi": 69,
                    "name": "A4",
                    "ticks": 4800,
                    "time": 25,
                    "velocity": 0.7874015748031497
                },
                {
                    "duration": 0.9166666666666679,
                    "durationTicks": 176,
                    "midi": 69,
                    "name": "A4",
                    "ticks": 4992,
                    "time": 26,
                    "velocity": 0.7874015748031497
                },
                {
                    "duration": 0.9166666666666679,
                    "durationTicks": 176,
                    "midi": 63,
                    "name": "D#4",
                    "ticks": 4992,
                    "time": 26,
                    "velocity": 0.7874015748031497
                },
                {
                    "duration": 1.4166666666666679,
                    "durationTicks": 272,
                    "midi": 70,
                    "name": "A#4",
                    "ticks": 5184,
                    "time": 27,
                    "velocity": 0.7874015748031497
                },
                {
                    "duration": 1.9166666666666679,
                    "durationTicks": 368,
                    "midi": 62,
                    "name": "D4",
                    "ticks": 5184,
                    "time": 27,
                    "velocity": 0.7874015748031497
                },
                {
                    "duration": 0.41666666666666785,
                    "durationTicks": 80,
                    "midi": 69,
                    "name": "A4",
                    "ticks": 5472,
                    "time": 28.5,
                    "velocity": 0.7874015748031497
                },
                {
                    "duration": 0.9166666666666679,
                    "durationTicks": 176,
                    "midi": 58,
                    "name": "A#3",
                    "ticks": 5568,
                    "time": 29,
                    "velocity": 0.7874015748031497
                },
                {
                    "duration": 0.41666666666666785,
                    "durationTicks": 80,
                    "midi": 67,
                    "name": "G4",
                    "ticks": 5568,
                    "time": 29,
                    "velocity": 0.7874015748031497
                },
                {
                    "duration": 0.41666666666666785,
                    "durationTicks": 80,
                    "midi": 63,
                    "name": "D#4",
                    "ticks": 5568,
                    "time": 29,
                    "velocity": 0.7874015748031497
                },
                {
                    "duration": 0.41666666666666785,
                    "durationTicks": 80,
                    "midi": 65,
                    "name": "F4",
                    "ticks": 5664,
                    "time": 29.5,
                    "velocity": 0.7874015748031497
                },
                {
                    "duration": 0.41666666666666785,
                    "durationTicks": 80,
                    "midi": 62,
                    "name": "D4",
                    "ticks": 5664,
                    "time": 29.5,
                    "velocity": 0.7874015748031497
                },
                {
                    "duration": 0.9166666666666679,
                    "durationTicks": 176,
                    "midi": 65,
                    "name": "F4",
                    "ticks": 5760,
                    "time": 30,
                    "velocity": 0.7874015748031497
                },
                {
                    "duration": 1.4166666666666679,
                    "durationTicks": 272,
                    "midi": 60,
                    "name": "C4",
                    "ticks": 5760,
                    "time": 30,
                    "velocity": 0.7874015748031497
                },
                {
                    "duration": 1.4166666666666679,
                    "durationTicks": 272,
                    "midi": 57,
                    "name": "A3",
                    "ticks": 5760,
                    "time": 30,
                    "velocity": 0.7874015748031497
                },
                {
                    "duration": 0.9166666666666679,
                    "durationTicks": 176,
                    "midi": 63,
                    "name": "D#4",
                    "ticks": 5952,
                    "time": 31,
                    "velocity": 0.7874015748031497
                },
                {
                    "duration": 0.9166666666666643,
                    "durationTicks": 176,
                    "midi": 58,
                    "name": "A#3",
                    "ticks": 6144,
                    "time": 32,
                    "velocity": 0.7874015748031497
                },
                {
                    "duration": 0.9166666666666643,
                    "durationTicks": 176,
                    "midi": 62,
                    "name": "D4",
                    "ticks": 6144,
                    "time": 32,
                    "velocity": 0.7874015748031497
                },
                {
                    "duration": 2,
                    "durationTicks": 384,
                    "midi": 57,
                    "name": "A3",
                    "ticks": 6336,
                    "time": 33,
                    "velocity": 0.7874015748031497
                },
                {
                    "duration": 2,
                    "durationTicks": 384,
                    "midi": 60,
                    "name": "C4",
                    "ticks": 6336,
                    "time": 33,
                    "velocity": 0.7874015748031497
                },
                {
                    "duration": 2,
                    "durationTicks": 384,
                    "midi": 65,
                    "name": "F4",
                    "ticks": 6336,
                    "time": 33,
                    "velocity": 0.7874015748031497
                },
                {
                    "duration": 0.6666666666666643,
                    "durationTicks": 128,
                    "midi": 60,
                    "name": "C4",
                    "ticks": 6912,
                    "time": 36,
                    "velocity": 0.7874015748031497
                },
                {
                    "duration": 0.6666666666666643,
                    "durationTicks": 128,
                    "midi": 69,
                    "name": "A4",
                    "ticks": 6912,
                    "time": 36,
                    "velocity": 0.7874015748031497
                },
                {
                    "duration": 0.1666666666666643,
                    "durationTicks": 32,
                    "midi": 69,
                    "name": "A4",
                    "ticks": 7056,
                    "time": 36.75,
                    "velocity": 0.7874015748031497
                },
                {
                    "duration": 0.1666666666666643,
                    "durationTicks": 32,
                    "midi": 60,
                    "name": "C4",
                    "ticks": 7056,
                    "time": 36.75,
                    "velocity": 0.7874015748031497
                },
                {
                    "duration": 0.9166666666666643,
                    "durationTicks": 176,
                    "midi": 69,
                    "name": "A4",
                    "ticks": 7104,
                    "time": 37,
                    "velocity": 0.7874015748031497
                },
                {
                    "duration": 0.9166666666666643,
                    "durationTicks": 176,
                    "midi": 60,
                    "name": "C4",
                    "ticks": 7104,
                    "time": 37,
                    "velocity": 0.7874015748031497
                },
                {
                    "duration": 0.9166666666666643,
                    "durationTicks": 176,
                    "midi": 65,
                    "name": "F4",
                    "ticks": 7296,
                    "time": 38,
                    "velocity": 0.7874015748031497
                },
                {
                    "duration": 0.9166666666666643,
                    "durationTicks": 176,
                    "midi": 69,
                    "name": "A4",
                    "ticks": 7296,
                    "time": 38,
                    "velocity": 0.7874015748031497
                },
                {
                    "duration": 1.4166666666666643,
                    "durationTicks": 272,
                    "midi": 70,
                    "name": "A#4",
                    "ticks": 7488,
                    "time": 39,
                    "velocity": 0.7874015748031497
                },
                {
                    "duration": 1.9166666666666643,
                    "durationTicks": 368,
                    "midi": 65,
                    "name": "F4",
                    "ticks": 7488,
                    "time": 39,
                    "velocity": 0.7874015748031497
                },
                {
                    "duration": 0.4166666666666643,
                    "durationTicks": 80,
                    "midi": 72,
                    "name": "C5",
                    "ticks": 7776,
                    "time": 40.5,
                    "velocity": 0.7874015748031497
                },
                {
                    "duration": 0.9166666666666643,
                    "durationTicks": 176,
                    "midi": 74,
                    "name": "D5",
                    "ticks": 7872,
                    "time": 41,
                    "velocity": 0.7874015748031497
                },
                {
                    "duration": 0.9166666666666643,
                    "durationTicks": 176,
                    "midi": 65,
                    "name": "F4",
                    "ticks": 7872,
                    "time": 41,
                    "velocity": 0.7874015748031497
                },
                {
                    "duration": 1.9166666666666643,
                    "durationTicks": 368,
                    "midi": 72,
                    "name": "C5",
                    "ticks": 8064,
                    "time": 42,
                    "velocity": 0.7874015748031497
                },
                {
                    "duration": 0.9166666666666643,
                    "durationTicks": 176,
                    "midi": 65,
                    "name": "F4",
                    "ticks": 8064,
                    "time": 42,
                    "velocity": 0.7874015748031497
                },
                {
                    "duration": 0.9166666666666643,
                    "durationTicks": 176,
                    "midi": 63,
                    "name": "D#4",
                    "ticks": 8256,
                    "time": 43,
                    "velocity": 0.7874015748031497
                },
                {
                    "duration": 0.9166666666666643,
                    "durationTicks": 176,
                    "midi": 62,
                    "name": "D4",
                    "ticks": 8448,
                    "time": 44,
                    "velocity": 0.7874015748031497
                },
                {
                    "duration": 0.9166666666666643,
                    "durationTicks": 176,
                    "midi": 70,
                    "name": "A#4",
                    "ticks": 8448,
                    "time": 44,
                    "velocity": 0.7874015748031497
                },
                {
                    "duration": 2,
                    "durationTicks": 384,
                    "midi": 60,
                    "name": "C4",
                    "ticks": 8640,
                    "time": 45,
                    "velocity": 0.7874015748031497
                },
                {
                    "duration": 2,
                    "durationTicks": 384,
                    "midi": 69,
                    "name": "A4",
                    "ticks": 8640,
                    "time": 45,
                    "velocity": 0.7874015748031497
                },
                {
                    "duration": 0.6666666666666643,
                    "durationTicks": 128,
                    "midi": 62,
                    "name": "D4",
                    "ticks": 9216,
                    "time": 48,
                    "velocity": 0.7874015748031497
                },
                {
                    "duration": 0.6666666666666643,
                    "durationTicks": 128,
                    "midi": 65,
                    "name": "F4",
                    "ticks": 9216,
                    "time": 48,
                    "velocity": 0.7874015748031497
                },
                {
                    "duration": 0.1666666666666643,
                    "durationTicks": 32,
                    "midi": 62,
                    "name": "D4",
                    "ticks": 9360,
                    "time": 48.75,
                    "velocity": 0.7874015748031497
                },
                {
                    "duration": 0.1666666666666643,
                    "durationTicks": 32,
                    "midi": 65,
                    "name": "F4",
                    "ticks": 9360,
                    "time": 48.75,
                    "velocity": 0.7874015748031497
                },
                {
                    "duration": 0.9166666666666643,
                    "durationTicks": 176,
                    "midi": 62,
                    "name": "D4",
                    "ticks": 9408,
                    "time": 49,
                    "velocity": 0.7874015748031497
                },
                {
                    "duration": 0.9166666666666643,
                    "durationTicks": 176,
                    "midi": 65,
                    "name": "F4",
                    "ticks": 9408,
                    "time": 49,
                    "velocity": 0.7874015748031497
                },
                {
                    "duration": 0.9166666666666643,
                    "durationTicks": 176,
                    "midi": 70,
                    "name": "A#4",
                    "ticks": 9600,
                    "time": 50,
                    "velocity": 0.7874015748031497
                },
                {
                    "duration": 0.9166666666666643,
                    "durationTicks": 176,
                    "midi": 58,
                    "name": "A#3",
                    "ticks": 9600,
                    "time": 50,
                    "velocity": 0.7874015748031497
                },
                {
                    "duration": 0.6666666666666643,
                    "durationTicks": 128,
                    "midi": 68,
                    "name": "G#4",
                    "ticks": 9792,
                    "time": 51,
                    "velocity": 0.7874015748031497
                },
                {
                    "duration": 0.6666666666666643,
                    "durationTicks": 128,
                    "midi": 58,
                    "name": "A#3",
                    "ticks": 9792,
                    "time": 51,
                    "velocity": 0.7874015748031497
                },
                {
                    "duration": 0.6666666666666643,
                    "durationTicks": 128,
                    "midi": 65,
                    "name": "F4",
                    "ticks": 9792,
                    "time": 51,
                    "velocity": 0.7874015748031497
                },
                {
                    "duration": 0.1666666666666643,
                    "durationTicks": 32,
                    "midi": 67,
                    "name": "G4",
                    "ticks": 9936,
                    "time": 51.75,
                    "velocity": 0.7874015748031497
                },
                {
                    "duration": 0.1666666666666643,
                    "durationTicks": 32,
                    "midi": 63,
                    "name": "D#4",
                    "ticks": 9936,
                    "time": 51.75,
                    "velocity": 0.7874015748031497
                },
                {
                    "duration": 0.1666666666666643,
                    "durationTicks": 32,
                    "midi": 58,
                    "name": "A#3",
                    "ticks": 9936,
                    "time": 51.75,
                    "velocity": 0.7874015748031497
                },
                {
                    "duration": 1,
                    "durationTicks": 192,
                    "midi": 58,
                    "name": "A#3",
                    "ticks": 9984,
                    "time": 52,
                    "velocity": 0.7874015748031497
                },
                {
                    "duration": 1,
                    "durationTicks": 192,
                    "midi": 63,
                    "name": "D#4",
                    "ticks": 9984,
                    "time": 52,
                    "velocity": 0.7874015748031497
                },
                {
                    "duration": 1,
                    "durationTicks": 192,
                    "midi": 67,
                    "name": "G4",
                    "ticks": 9984,
                    "time": 52,
                    "velocity": 0.7874015748031497
                },
                {
                    "duration": 0.6666666666666643,
                    "durationTicks": 128,
                    "midi": 58,
                    "name": "A#3",
                    "ticks": 10368,
                    "time": 54,
                    "velocity": 0.7874015748031497
                },
                {
                    "duration": 0.6666666666666643,
                    "durationTicks": 128,
                    "midi": 67,
                    "name": "G4",
                    "ticks": 10368,
                    "time": 54,
                    "velocity": 0.7874015748031497
                },
                {
                    "duration": 0.6666666666666643,
                    "durationTicks": 128,
                    "midi": 63,
                    "name": "D#4",
                    "ticks": 10368,
                    "time": 54,
                    "velocity": 0.7874015748031497
                },
                {
                    "duration": 0.1666666666666643,
                    "durationTicks": 32,
                    "midi": 67,
                    "name": "G4",
                    "ticks": 10512,
                    "time": 54.75,
                    "velocity": 0.7874015748031497
                },
                {
                    "duration": 0.1666666666666643,
                    "durationTicks": 32,
                    "midi": 63,
                    "name": "D#4",
                    "ticks": 10512,
                    "time": 54.75,
                    "velocity": 0.7874015748031497
                },
                {
                    "duration": 0.1666666666666643,
                    "durationTicks": 32,
                    "midi": 58,
                    "name": "A#3",
                    "ticks": 10512,
                    "time": 54.75,
                    "velocity": 0.7874015748031497
                },
                {
                    "duration": 0.9166666666666643,
                    "durationTicks": 176,
                    "midi": 58,
                    "name": "A#3",
                    "ticks": 10560,
                    "time": 55,
                    "velocity": 0.7874015748031497
                },
                {
                    "duration": 0.9166666666666643,
                    "durationTicks": 176,
                    "midi": 63,
                    "name": "D#4",
                    "ticks": 10560,
                    "time": 55,
                    "velocity": 0.7874015748031497
                },
                {
                    "duration": 0.9166666666666643,
                    "durationTicks": 176,
                    "midi": 67,
                    "name": "G4",
                    "ticks": 10560,
                    "time": 55,
                    "velocity": 0.7874015748031497
                },
                {
                    "duration": 0.9166666666666643,
                    "durationTicks": 176,
                    "midi": 72,
                    "name": "C5",
                    "ticks": 10752,
                    "time": 56,
                    "velocity": 0.7874015748031497
                },
                {
                    "duration": 0.9166666666666643,
                    "durationTicks": 176,
                    "midi": 63,
                    "name": "D#4",
                    "ticks": 10752,
                    "time": 56,
                    "velocity": 0.7874015748031497
                },
                {
                    "duration": 0.9166666666666643,
                    "durationTicks": 176,
                    "midi": 67,
                    "name": "G4",
                    "ticks": 10752,
                    "time": 56,
                    "velocity": 0.7874015748031497
                },
                {
                    "duration": 0.6666666666666643,
                    "durationTicks": 128,
                    "midi": 70,
                    "name": "A#4",
                    "ticks": 10944,
                    "time": 57,
                    "velocity": 0.7874015748031497
                },
                {
                    "duration": 0.6666666666666643,
                    "durationTicks": 128,
                    "midi": 62,
                    "name": "D4",
                    "ticks": 10944,
                    "time": 57,
                    "velocity": 0.7874015748031497
                },
                {
                    "duration": 0.6666666666666643,
                    "durationTicks": 128,
                    "midi": 65,
                    "name": "F4",
                    "ticks": 10944,
                    "time": 57,
                    "velocity": 0.7874015748031497
                },
                {
                    "duration": 0.1666666666666643,
                    "durationTicks": 32,
                    "midi": 69,
                    "name": "A4",
                    "ticks": 11088,
                    "time": 57.75,
                    "velocity": 0.7874015748031497
                },
                {
                    "duration": 0.1666666666666643,
                    "durationTicks": 32,
                    "midi": 65,
                    "name": "F4",
                    "ticks": 11088,
                    "time": 57.75,
                    "velocity": 0.7874015748031497
                },
                {
                    "duration": 0.1666666666666643,
                    "durationTicks": 32,
                    "midi": 60,
                    "name": "C4",
                    "ticks": 11088,
                    "time": 57.75,
                    "velocity": 0.7874015748031497
                },
                {
                    "duration": 1.4166666666666643,
                    "durationTicks": 272,
                    "midi": 60,
                    "name": "C4",
                    "ticks": 11136,
                    "time": 58,
                    "velocity": 0.7874015748031497
                },
                {
                    "duration": 1.4166666666666643,
                    "durationTicks": 272,
                    "midi": 69,
                    "name": "A4",
                    "ticks": 11136,
                    "time": 58,
                    "velocity": 0.7874015748031497
                },
                {
                    "duration": 1.4166666666666643,
                    "durationTicks": 272,
                    "midi": 65,
                    "name": "F4",
                    "ticks": 11136,
                    "time": 58,
                    "velocity": 0.7874015748031497
                },
                {
                    "duration": 1.4166666666666643,
                    "durationTicks": 272,
                    "midi": 74,
                    "name": "D5",
                    "ticks": 11520,
                    "time": 60,
                    "velocity": 0.7874015748031497
                },
                {
                    "duration": 1.4166666666666643,
                    "durationTicks": 272,
                    "midi": 65,
                    "name": "F4",
                    "ticks": 11520,
                    "time": 60,
                    "velocity": 0.7874015748031497
                },
                {
                    "duration": 0.4166666666666643,
                    "durationTicks": 80,
                    "midi": 66,
                    "name": "F#4",
                    "ticks": 11808,
                    "time": 61.5,
                    "velocity": 0.7874015748031497
                },
                {
                    "duration": 0.4166666666666643,
                    "durationTicks": 80,
                    "midi": 74,
                    "name": "D5",
                    "ticks": 11808,
                    "time": 61.5,
                    "velocity": 0.7874015748031497
                },
                {
                    "duration": 0.4166666666666643,
                    "durationTicks": 80,
                    "midi": 75,
                    "name": "D#5",
                    "ticks": 11904,
                    "time": 62,
                    "velocity": 0.7874015748031497
                },
                {
                    "duration": 0.4166666666666643,
                    "durationTicks": 80,
                    "midi": 67,
                    "name": "G4",
                    "ticks": 11904,
                    "time": 62,
                    "velocity": 0.7874015748031497
                },
                {
                    "duration": 0.4166666666666643,
                    "durationTicks": 80,
                    "midi": 63,
                    "name": "D#4",
                    "ticks": 12000,
                    "time": 62.5,
                    "velocity": 0.7874015748031497
                },
                {
                    "duration": 0.4166666666666643,
                    "durationTicks": 80,
                    "midi": 72,
                    "name": "C5",
                    "ticks": 12000,
                    "time": 62.5,
                    "velocity": 0.7874015748031497
                },
                {
                    "duration": 1.9166666666666714,
                    "durationTicks": 368,
                    "midi": 62,
                    "name": "D4",
                    "ticks": 12096,
                    "time": 63,
                    "velocity": 0.7874015748031497
                },
                {
                    "duration": 1.9166666666666714,
                    "durationTicks": 368,
                    "midi": 70,
                    "name": "A#4",
                    "ticks": 12096,
                    "time": 63,
                    "velocity": 0.7874015748031497
                },
                {
                    "duration": 0.9166666666666714,
                    "durationTicks": 176,
                    "midi": 69,
                    "name": "A4",
                    "ticks": 12480,
                    "time": 65,
                    "velocity": 0.7874015748031497
                },
                {
                    "duration": 0.9166666666666714,
                    "durationTicks": 176,
                    "midi": 60,
                    "name": "C4",
                    "ticks": 12480,
                    "time": 65,
                    "velocity": 0.7874015748031497
                },
                {
                    "duration": 0.9166666666666714,
                    "durationTicks": 176,
                    "midi": 63,
                    "name": "D#4",
                    "ticks": 12480,
                    "time": 65,
                    "velocity": 0.7874015748031497
                },
                {
                    "duration": 1.9166666666666714,
                    "durationTicks": 368,
                    "midi": 70,
                    "name": "A#4",
                    "ticks": 12672,
                    "time": 66,
                    "velocity": 0.7874015748031497
                },
                {
                    "duration": 1.9166666666666714,
                    "durationTicks": 368,
                    "midi": 58,
                    "name": "A#3",
                    "ticks": 12672,
                    "time": 66,
                    "velocity": 0.7874015748031497
                },
                {
                    "duration": 1.9166666666666714,
                    "durationTicks": 368,
                    "midi": 62,
                    "name": "D4",
                    "ticks": 12672,
                    "time": 66,
                    "velocity": 0.7874015748031497
                },
                {
                    "duration": 0.9166666666666714,
                    "durationTicks": 176,
                    "midi": 60,
                    "name": "C4",
                    "ticks": 13056,
                    "time": 68,
                    "velocity": 0.7874015748031497
                },
                {
                    "duration": 0.9166666666666714,
                    "durationTicks": 176,
                    "midi": 72,
                    "name": "C5",
                    "ticks": 13056,
                    "time": 68,
                    "velocity": 0.7874015748031497
                },
                {
                    "duration": 0.9166666666666714,
                    "durationTicks": 176,
                    "midi": 65,
                    "name": "F4",
                    "ticks": 13056,
                    "time": 68,
                    "velocity": 0.7874015748031497
                },
                {
                    "duration": 1.4166666666666714,
                    "durationTicks": 272,
                    "midi": 74,
                    "name": "D5",
                    "ticks": 13248,
                    "time": 69,
                    "velocity": 0.7874015748031497
                },
                {
                    "duration": 1.4166666666666714,
                    "durationTicks": 272,
                    "midi": 70,
                    "name": "A#4",
                    "ticks": 13248,
                    "time": 69,
                    "velocity": 0.7874015748031497
                },
                {
                    "duration": 1.4166666666666714,
                    "durationTicks": 272,
                    "midi": 65,
                    "name": "F4",
                    "ticks": 13248,
                    "time": 69,
                    "velocity": 0.7874015748031497
                },
                {
                    "duration": 0.4166666666666714,
                    "durationTicks": 80,
                    "midi": 66,
                    "name": "F#4",
                    "ticks": 13536,
                    "time": 70.5,
                    "velocity": 0.7874015748031497
                },
                {
                    "duration": 0.4166666666666714,
                    "durationTicks": 80,
                    "midi": 70,
                    "name": "A#4",
                    "ticks": 13536,
                    "time": 70.5,
                    "velocity": 0.7874015748031497
                },
                {
                    "duration": 0.4166666666666714,
                    "durationTicks": 80,
                    "midi": 74,
                    "name": "D5",
                    "ticks": 13536,
                    "time": 70.5,
                    "velocity": 0.7874015748031497
                },
                {
                    "duration": 0.4166666666666714,
                    "durationTicks": 80,
                    "midi": 75,
                    "name": "D#5",
                    "ticks": 13632,
                    "time": 71,
                    "velocity": 0.7874015748031497
                },
                {
                    "duration": 0.4166666666666714,
                    "durationTicks": 80,
                    "midi": 67,
                    "name": "G4",
                    "ticks": 13632,
                    "time": 71,
                    "velocity": 0.7874015748031497
                },
                {
                    "duration": 0.4166666666666714,
                    "durationTicks": 80,
                    "midi": 72,
                    "name": "C5",
                    "ticks": 13728,
                    "time": 71.5,
                    "velocity": 0.7874015748031497
                },
                {
                    "duration": 0.4166666666666714,
                    "durationTicks": 80,
                    "midi": 63,
                    "name": "D#4",
                    "ticks": 13728,
                    "time": 71.5,
                    "velocity": 0.7874015748031497
                },
                {
                    "duration": 0.4166666666666714,
                    "durationTicks": 80,
                    "midi": 67,
                    "name": "G4",
                    "ticks": 13728,
                    "time": 71.5,
                    "velocity": 0.7874015748031497
                },
                {
                    "duration": 1.9166666666666714,
                    "durationTicks": 368,
                    "midi": 62,
                    "name": "D4",
                    "ticks": 13824,
                    "time": 72,
                    "velocity": 0.7874015748031497
                },
                {
                    "duration": 1.9166666666666714,
                    "durationTicks": 368,
                    "midi": 65,
                    "name": "F4",
                    "ticks": 13824,
                    "time": 72,
                    "velocity": 0.7874015748031497
                },
                {
                    "duration": 1.9166666666666714,
                    "durationTicks": 368,
                    "midi": 70,
                    "name": "A#4",
                    "ticks": 13824,
                    "time": 72,
                    "velocity": 0.7874015748031497
                },
                {
                    "duration": 0.9166666666666714,
                    "durationTicks": 176,
                    "midi": 61,
                    "name": "C#4",
                    "ticks": 14208,
                    "time": 74,
                    "velocity": 0.7874015748031497
                },
                {
                    "duration": 0.9166666666666714,
                    "durationTicks": 176,
                    "midi": 70,
                    "name": "A#4",
                    "ticks": 14208,
                    "time": 74,
                    "velocity": 0.7874015748031497
                },
                {
                    "duration": 0.9166666666666714,
                    "durationTicks": 176,
                    "midi": 65,
                    "name": "F4",
                    "ticks": 14208,
                    "time": 74,
                    "velocity": 0.7874015748031497
                },
                {
                    "duration": 1.9166666666666714,
                    "durationTicks": 368,
                    "midi": 65,
                    "name": "F4",
                    "ticks": 14400,
                    "time": 75,
                    "velocity": 0.7874015748031497
                },
                {
                    "duration": 1.9166666666666714,
                    "durationTicks": 368,
                    "midi": 60,
                    "name": "C4",
                    "ticks": 14400,
                    "time": 75,
                    "velocity": 0.7874015748031497
                },
                {
                    "duration": 0.9166666666666714,
                    "durationTicks": 176,
                    "midi": 70,
                    "name": "A#4",
                    "ticks": 14400,
                    "time": 75,
                    "velocity": 0.7874015748031497
                },
                {
                    "duration": 0.4166666666666714,
                    "durationTicks": 80,
                    "midi": 69,
                    "name": "A4",
                    "ticks": 14592,
                    "time": 76,
                    "velocity": 0.7874015748031497
                },
                {
                    "duration": 0.4166666666666714,
                    "durationTicks": 80,
                    "midi": 67,
                    "name": "G4",
                    "ticks": 14688,
                    "time": 76.5,
                    "velocity": 0.7874015748031497
                },
                {
                    "duration": 0.9166666666666714,
                    "durationTicks": 176,
                    "midi": 63,
                    "name": "D#4",
                    "ticks": 14784,
                    "time": 77,
                    "velocity": 0.7874015748031497
                },
                {
                    "duration": 0.9166666666666714,
                    "durationTicks": 176,
                    "midi": 69,
                    "name": "A4",
                    "ticks": 14784,
                    "time": 77,
                    "velocity": 0.7874015748031497
                },
                {
                    "duration": 0.9166666666666714,
                    "durationTicks": 176,
                    "midi": 65,
                    "name": "F4",
                    "ticks": 14784,
                    "time": 77,
                    "velocity": 0.7874015748031497
                },
                {
                    "duration": 2.9166666666666714,
                    "durationTicks": 560,
                    "midi": 62,
                    "name": "D4",
                    "ticks": 14976,
                    "time": 78,
                    "velocity": 0.7874015748031497
                },
                {
                    "duration": 2.9166666666666714,
                    "durationTicks": 560,
                    "midi": 70,
                    "name": "A#4",
                    "ticks": 14976,
                    "time": 78,
                    "velocity": 0.7874015748031497
                },
                {
                    "duration": 2.9166666666666714,
                    "durationTicks": 560,
                    "midi": 65,
                    "name": "F4",
                    "ticks": 14976,
                    "time": 78,
                    "velocity": 0.7874015748031497
                }
            ],
            "endOfTrackTicks": 15536
        },
        {
            "channel": 2,
            "controlChanges": {
                "7": [
                    {
                        "number": 7,
                        "ticks": 0,
                        "time": 0,
                        "value": 0.6299212598425197
                    }
                ]
            },
            "pitchBends": [],
            "instrument": {
                "family": "organ",
                "number": 18,
                "name": "rock organ"
            },
            "name": "L.H.                ",
            "notes": [
                {
                    "duration": 0.6666666666666666,
                    "durationTicks": 128,
                    "midi": 46,
                    "name": "A#2",
                    "ticks": 0,
                    "time": 0,
                    "velocity": 0.7874015748031497
                },
                {
                    "duration": 0.6666666666666666,
                    "durationTicks": 128,
                    "midi": 53,
                    "name": "F3",
                    "ticks": 0,
                    "time": 0,
                    "velocity": 0.7874015748031497
                },
                {
                    "duration": 0.16666666666666663,
                    "durationTicks": 32,
                    "midi": 46,
                    "name": "A#2",
                    "ticks": 144,
                    "time": 0.75,
                    "velocity": 0.7874015748031497
                },
                {
                    "duration": 0.16666666666666663,
                    "durationTicks": 32,
                    "midi": 53,
                    "name": "F3",
                    "ticks": 144,
                    "time": 0.75,
                    "velocity": 0.7874015748031497
                },
                {
                    "duration": 0.9166666666666667,
                    "durationTicks": 176,
                    "midi": 46,
                    "name": "A#2",
                    "ticks": 192,
                    "time": 1,
                    "velocity": 0.7874015748031497
                },
                {
                    "duration": 0.9166666666666667,
                    "durationTicks": 176,
                    "midi": 53,
                    "name": "F3",
                    "ticks": 192,
                    "time": 1,
                    "velocity": 0.7874015748031497
                },
                {
                    "duration": 0.9166666666666665,
                    "durationTicks": 176,
                    "midi": 46,
                    "name": "A#2",
                    "ticks": 384,
                    "time": 2,
                    "velocity": 0.7874015748031497
                },
                {
                    "duration": 0.9166666666666665,
                    "durationTicks": 176,
                    "midi": 53,
                    "name": "F3",
                    "ticks": 384,
                    "time": 2,
                    "velocity": 0.7874015748031497
                },
                {
                    "duration": 0.6666666666666665,
                    "durationTicks": 128,
                    "midi": 53,
                    "name": "F3",
                    "ticks": 576,
                    "time": 3,
                    "velocity": 0.7874015748031497
                },
                {
                    "duration": 0.6666666666666665,
                    "durationTicks": 128,
                    "midi": 48,
                    "name": "C3",
                    "ticks": 576,
                    "time": 3,
                    "velocity": 0.7874015748031497
                },
                {
                    "duration": 0.16666666666666652,
                    "durationTicks": 32,
                    "midi": 48,
                    "name": "C3",
                    "ticks": 720,
                    "time": 3.75,
                    "velocity": 0.7874015748031497
                },
                {
                    "duration": 0.16666666666666652,
                    "durationTicks": 32,
                    "midi": 53,
                    "name": "F3",
                    "ticks": 720,
                    "time": 3.75,
                    "velocity": 0.7874015748031497
                },
                {
                    "duration": 1.416666666666667,
                    "durationTicks": 272,
                    "midi": 48,
                    "name": "C3",
                    "ticks": 768,
                    "time": 4,
                    "velocity": 0.7874015748031497
                },
                {
                    "duration": 1.416666666666667,
                    "durationTicks": 272,
                    "midi": 53,
                    "name": "F3",
                    "ticks": 768,
                    "time": 4,
                    "velocity": 0.7874015748031497
                },
                {
                    "duration": 0.666666666666667,
                    "durationTicks": 128,
                    "midi": 45,
                    "name": "A2",
                    "ticks": 1152,
                    "time": 6,
                    "velocity": 0.7874015748031497
                },
                {
                    "duration": 0.16666666666666696,
                    "durationTicks": 32,
                    "midi": 45,
                    "name": "A2",
                    "ticks": 1296,
                    "time": 6.75,
                    "velocity": 0.7874015748031497
                },
                {
                    "duration": 0.916666666666667,
                    "durationTicks": 176,
                    "midi": 45,
                    "name": "A2",
                    "ticks": 1344,
                    "time": 7,
                    "velocity": 0.7874015748031497
                },
                {
                    "duration": 0.9166666666666661,
                    "durationTicks": 176,
                    "midi": 41,
                    "name": "F2",
                    "ticks": 1536,
                    "time": 8,
                    "velocity": 0.7874015748031497
                },
                {
                    "duration": 0.9166666666666661,
                    "durationTicks": 176,
                    "midi": 53,
                    "name": "F3",
                    "ticks": 1536,
                    "time": 8,
                    "velocity": 0.7874015748031497
                },
                {
                    "duration": 0.6666666666666661,
                    "durationTicks": 128,
                    "midi": 46,
                    "name": "A#2",
                    "ticks": 1728,
                    "time": 9,
                    "velocity": 0.7874015748031497
                },
                {
                    "duration": 0.6666666666666661,
                    "durationTicks": 128,
                    "midi": 53,
                    "name": "F3",
                    "ticks": 1728,
                    "time": 9,
                    "velocity": 0.7874015748031497
                },
                {
                    "duration": 0.16666666666666607,
                    "durationTicks": 32,
                    "midi": 46,
                    "name": "A#2",
                    "ticks": 1872,
                    "time": 9.75,
                    "velocity": 0.7874015748031497
                },
                {
                    "duration": 0.16666666666666607,
                    "durationTicks": 32,
                    "midi": 53,
                    "name": "F3",
                    "ticks": 1872,
                    "time": 9.75,
                    "velocity": 0.7874015748031497
                },
                {
                    "duration": 1,
                    "durationTicks": 192,
                    "midi": 46,
                    "name": "A#2",
                    "ticks": 1920,
                    "time": 10,
                    "velocity": 0.7874015748031497
                },
                {
                    "duration": 1,
                    "durationTicks": 192,
                    "midi": 53,
                    "name": "F3",
                    "ticks": 1920,
                    "time": 10,
                    "velocity": 0.7874015748031497
                },
                {
                    "duration": 0.9166666666666661,
                    "durationTicks": 176,
                    "midi": 46,
                    "name": "A#2",
                    "ticks": 2304,
                    "time": 12,
                    "velocity": 0.7874015748031497
                },
                {
                    "duration": 0.9166666666666661,
                    "durationTicks": 176,
                    "midi": 53,
                    "name": "F3",
                    "ticks": 2304,
                    "time": 12,
                    "velocity": 0.7874015748031497
                },
                {
                    "duration": 0.9166666666666661,
                    "durationTicks": 176,
                    "midi": 53,
                    "name": "F3",
                    "ticks": 2496,
                    "time": 13,
                    "velocity": 0.7874015748031497
                },
                {
                    "duration": 0.9166666666666661,
                    "durationTicks": 176,
                    "midi": 46,
                    "name": "A#2",
                    "ticks": 2496,
                    "time": 13,
                    "velocity": 0.7874015748031497
                },
                {
                    "duration": 0.9166666666666661,
                    "durationTicks": 176,
                    "midi": 53,
                    "name": "F3",
                    "ticks": 2688,
                    "time": 14,
                    "velocity": 0.7874015748031497
                },
                {
                    "duration": 0.9166666666666661,
                    "durationTicks": 176,
                    "midi": 45,
                    "name": "A2",
                    "ticks": 2688,
                    "time": 14,
                    "velocity": 0.7874015748031497
                },
                {
                    "duration": 1.9166666666666679,
                    "durationTicks": 368,
                    "midi": 55,
                    "name": "G3",
                    "ticks": 2880,
                    "time": 15,
                    "velocity": 0.7874015748031497
                },
                {
                    "duration": 0.9166666666666661,
                    "durationTicks": 176,
                    "midi": 43,
                    "name": "G2",
                    "ticks": 2880,
                    "time": 15,
                    "velocity": 0.7874015748031497
                },
                {
                    "duration": 0.9166666666666679,
                    "durationTicks": 176,
                    "midi": 48,
                    "name": "C3",
                    "ticks": 3072,
                    "time": 16,
                    "velocity": 0.7874015748031497
                },
                {
                    "duration": 0.9166666666666679,
                    "durationTicks": 176,
                    "midi": 41,
                    "name": "F2",
                    "ticks": 3264,
                    "time": 17,
                    "velocity": 0.7874015748031497
                },
                {
                    "duration": 0.9166666666666679,
                    "durationTicks": 176,
                    "midi": 53,
                    "name": "F3",
                    "ticks": 3264,
                    "time": 17,
                    "velocity": 0.7874015748031497
                },
                {
                    "duration": 0.9166666666666679,
                    "durationTicks": 176,
                    "midi": 46,
                    "name": "A#2",
                    "ticks": 3456,
                    "time": 18,
                    "velocity": 0.7874015748031497
                },
                {
                    "duration": 1.9166666666666679,
                    "durationTicks": 368,
                    "midi": 58,
                    "name": "A#3",
                    "ticks": 3456,
                    "time": 18,
                    "velocity": 0.7874015748031497
                },
                {
                    "duration": 0.9166666666666679,
                    "durationTicks": 176,
                    "midi": 55,
                    "name": "G3",
                    "ticks": 3648,
                    "time": 19,
                    "velocity": 0.7874015748031497
                },
                {
                    "duration": 0.41666666666666785,
                    "durationTicks": 80,
                    "midi": 48,
                    "name": "C3",
                    "ticks": 3840,
                    "time": 20,
                    "velocity": 0.7874015748031497
                },
                {
                    "duration": 2.416666666666668,
                    "durationTicks": 464,
                    "midi": 48,
                    "name": "C3",
                    "ticks": 4032,
                    "time": 21,
                    "velocity": 0.7874015748031497
                },
                {
                    "duration": 2.416666666666668,
                    "durationTicks": 464,
                    "midi": 41,
                    "name": "F2",
                    "ticks": 4032,
                    "time": 21,
                    "velocity": 0.7874015748031497
                },
                {
                    "duration": 0.9166666666666679,
                    "durationTicks": 176,
                    "midi": 41,
                    "name": "F2",
                    "ticks": 4608,
                    "time": 24,
                    "velocity": 0.7874015748031497
                },
                {
                    "duration": 0.9166666666666679,
                    "durationTicks": 176,
                    "midi": 53,
                    "name": "F3",
                    "ticks": 4800,
                    "time": 25,
                    "velocity": 0.7874015748031497
                },
                {
                    "duration": 0.9166666666666679,
                    "durationTicks": 176,
                    "midi": 41,
                    "name": "F2",
                    "ticks": 4992,
                    "time": 26,
                    "velocity": 0.7874015748031497
                },
                {
                    "duration": 0.9166666666666679,
                    "durationTicks": 176,
                    "midi": 41,
                    "name": "F2",
                    "ticks": 5184,
                    "time": 27,
                    "velocity": 0.7874015748031497
                },
                {
                    "duration": 0.9166666666666679,
                    "durationTicks": 176,
                    "midi": 53,
                    "name": "F3",
                    "ticks": 5376,
                    "time": 28,
                    "velocity": 0.7874015748031497
                },
                {
                    "duration": 0.9166666666666679,
                    "durationTicks": 176,
                    "midi": 41,
                    "name": "F2",
                    "ticks": 5568,
                    "time": 29,
                    "velocity": 0.7874015748031497
                },
                {
                    "duration": 1.9166666666666679,
                    "durationTicks": 368,
                    "midi": 41,
                    "name": "F2",
                    "ticks": 5760,
                    "time": 30,
                    "velocity": 0.7874015748031497
                },
                {
                    "duration": 0.9166666666666643,
                    "durationTicks": 176,
                    "midi": 46,
                    "name": "A#2",
                    "ticks": 6144,
                    "time": 32,
                    "velocity": 0.7874015748031497
                },
                {
                    "duration": 2,
                    "durationTicks": 384,
                    "midi": 53,
                    "name": "F3",
                    "ticks": 6336,
                    "time": 33,
                    "velocity": 0.7874015748031497
                },
                {
                    "duration": 0.9166666666666643,
                    "durationTicks": 176,
                    "midi": 41,
                    "name": "F2",
                    "ticks": 6912,
                    "time": 36,
                    "velocity": 0.7874015748031497
                },
                {
                    "duration": 0.9166666666666643,
                    "durationTicks": 176,
                    "midi": 53,
                    "name": "F3",
                    "ticks": 7104,
                    "time": 37,
                    "velocity": 0.7874015748031497
                },
                {
                    "duration": 0.9166666666666643,
                    "durationTicks": 176,
                    "midi": 51,
                    "name": "D#3",
                    "ticks": 7296,
                    "time": 38,
                    "velocity": 0.7874015748031497
                },
                {
                    "duration": 0.9166666666666643,
                    "durationTicks": 176,
                    "midi": 60,
                    "name": "C4",
                    "ticks": 7296,
                    "time": 38,
                    "velocity": 0.7874015748031497
                },
                {
                    "duration": 1.4166666666666643,
                    "durationTicks": 272,
                    "midi": 58,
                    "name": "A#3",
                    "ticks": 7488,
                    "time": 39,
                    "velocity": 0.7874015748031497
                },
                {
                    "duration": 1.4166666666666643,
                    "durationTicks": 272,
                    "midi": 50,
                    "name": "D3",
                    "ticks": 7488,
                    "time": 39,
                    "velocity": 0.7874015748031497
                },
                {
                    "duration": 0.4166666666666643,
                    "durationTicks": 80,
                    "midi": 48,
                    "name": "C3",
                    "ticks": 7776,
                    "time": 40.5,
                    "velocity": 0.7874015748031497
                },
                {
                    "duration": 0.4166666666666643,
                    "durationTicks": 80,
                    "midi": 57,
                    "name": "A3",
                    "ticks": 7776,
                    "time": 40.5,
                    "velocity": 0.7874015748031497
                },
                {
                    "duration": 0.9166666666666643,
                    "durationTicks": 176,
                    "midi": 46,
                    "name": "A#2",
                    "ticks": 7872,
                    "time": 41,
                    "velocity": 0.7874015748031497
                },
                {
                    "duration": 0.9166666666666643,
                    "durationTicks": 176,
                    "midi": 58,
                    "name": "A#3",
                    "ticks": 7872,
                    "time": 41,
                    "velocity": 0.7874015748031497
                },
                {
                    "duration": 2.9166666666666643,
                    "durationTicks": 560,
                    "midi": 53,
                    "name": "F3",
                    "ticks": 8064,
                    "time": 42,
                    "velocity": 0.7874015748031497
                },
                {
                    "duration": 1.9166666666666643,
                    "durationTicks": 368,
                    "midi": 45,
                    "name": "A2",
                    "ticks": 8064,
                    "time": 42,
                    "velocity": 0.7874015748031497
                },
                {
                    "duration": 0.9166666666666643,
                    "durationTicks": 176,
                    "midi": 46,
                    "name": "A#2",
                    "ticks": 8448,
                    "time": 44,
                    "velocity": 0.7874015748031497
                },
                {
                    "duration": 2,
                    "durationTicks": 384,
                    "midi": 53,
                    "name": "F3",
                    "ticks": 8640,
                    "time": 45,
                    "velocity": 0.7874015748031497
                },
                {
                    "duration": 2,
                    "durationTicks": 384,
                    "midi": 41,
                    "name": "F2",
                    "ticks": 8640,
                    "time": 45,
                    "velocity": 0.7874015748031497
                },
                {
                    "duration": 0.6666666666666643,
                    "durationTicks": 128,
                    "midi": 46,
                    "name": "A#2",
                    "ticks": 9216,
                    "time": 48,
                    "velocity": 0.7874015748031497
                },
                {
                    "duration": 0.6666666666666643,
                    "durationTicks": 128,
                    "midi": 53,
                    "name": "F3",
                    "ticks": 9216,
                    "time": 48,
                    "velocity": 0.7874015748031497
                },
                {
                    "duration": 0.1666666666666643,
                    "durationTicks": 32,
                    "midi": 46,
                    "name": "A#2",
                    "ticks": 9360,
                    "time": 48.75,
                    "velocity": 0.7874015748031497
                },
                {
                    "duration": 0.1666666666666643,
                    "durationTicks": 32,
                    "midi": 53,
                    "name": "F3",
                    "ticks": 9360,
                    "time": 48.75,
                    "velocity": 0.7874015748031497
                },
                {
                    "duration": 0.9166666666666643,
                    "durationTicks": 176,
                    "midi": 46,
                    "name": "A#2",
                    "ticks": 9408,
                    "time": 49,
                    "velocity": 0.7874015748031497
                },
                {
                    "duration": 0.9166666666666643,
                    "durationTicks": 176,
                    "midi": 53,
                    "name": "F3",
                    "ticks": 9408,
                    "time": 49,
                    "velocity": 0.7874015748031497
                },
                {
                    "duration": 0.9166666666666643,
                    "durationTicks": 176,
                    "midi": 50,
                    "name": "D3",
                    "ticks": 9600,
                    "time": 50,
                    "velocity": 0.7874015748031497
                },
                {
                    "duration": 0.6666666666666643,
                    "durationTicks": 128,
                    "midi": 51,
                    "name": "D#3",
                    "ticks": 9792,
                    "time": 51,
                    "velocity": 0.7874015748031497
                },
                {
                    "duration": 0.1666666666666643,
                    "durationTicks": 32,
                    "midi": 51,
                    "name": "D#3",
                    "ticks": 9936,
                    "time": 51.75,
                    "velocity": 0.7874015748031497
                },
                {
                    "duration": 1,
                    "durationTicks": 192,
                    "midi": 51,
                    "name": "D#3",
                    "ticks": 9984,
                    "time": 52,
                    "velocity": 0.7874015748031497
                },
                {
                    "duration": 0.6666666666666643,
                    "durationTicks": 128,
                    "midi": 51,
                    "name": "D#3",
                    "ticks": 10368,
                    "time": 54,
                    "velocity": 0.7874015748031497
                },
                {
                    "duration": 0.1666666666666643,
                    "durationTicks": 32,
                    "midi": 51,
                    "name": "D#3",
                    "ticks": 10512,
                    "time": 54.75,
                    "velocity": 0.7874015748031497
                },
                {
                    "duration": 0.9166666666666643,
                    "durationTicks": 176,
                    "midi": 51,
                    "name": "D#3",
                    "ticks": 10560,
                    "time": 55,
                    "velocity": 0.7874015748031497
                },
                {
                    "duration": 0.9166666666666643,
                    "durationTicks": 176,
                    "midi": 48,
                    "name": "C3",
                    "ticks": 10752,
                    "time": 56,
                    "velocity": 0.7874015748031497
                },
                {
                    "duration": 0.6666666666666643,
                    "durationTicks": 128,
                    "midi": 53,
                    "name": "F3",
                    "ticks": 10944,
                    "time": 57,
                    "velocity": 0.7874015748031497
                },
                {
                    "duration": 0.1666666666666643,
                    "durationTicks": 32,
                    "midi": 53,
                    "name": "F3",
                    "ticks": 11088,
                    "time": 57.75,
                    "velocity": 0.7874015748031497
                },
                {
                    "duration": 1.4166666666666643,
                    "durationTicks": 272,
                    "midi": 53,
                    "name": "F3",
                    "ticks": 11136,
                    "time": 58,
                    "velocity": 0.7874015748031497
                },
                {
                    "duration": 1.9166666666666643,
                    "durationTicks": 368,
                    "midi": 46,
                    "name": "A#2",
                    "ticks": 11520,
                    "time": 60,
                    "velocity": 0.7874015748031497
                },
                {
                    "duration": 0.9166666666666643,
                    "durationTicks": 176,
                    "midi": 58,
                    "name": "A#3",
                    "ticks": 11520,
                    "time": 60,
                    "velocity": 0.7874015748031497
                },
                {
                    "duration": 0.9166666666666643,
                    "durationTicks": 176,
                    "midi": 58,
                    "name": "A#3",
                    "ticks": 11712,
                    "time": 61,
                    "velocity": 0.7874015748031497
                },
                {
                    "duration": 0.9166666666666643,
                    "durationTicks": 176,
                    "midi": 51,
                    "name": "D#3",
                    "ticks": 11904,
                    "time": 62,
                    "velocity": 0.7874015748031497
                },
                {
                    "duration": 0.4166666666666643,
                    "durationTicks": 80,
                    "midi": 58,
                    "name": "A#3",
                    "ticks": 11904,
                    "time": 62,
                    "velocity": 0.7874015748031497
                },
                {
                    "duration": 0.4166666666666643,
                    "durationTicks": 80,
                    "midi": 55,
                    "name": "G3",
                    "ticks": 12000,
                    "time": 62.5,
                    "velocity": 0.7874015748031497
                },
                {
                    "duration": 1.9166666666666714,
                    "durationTicks": 368,
                    "midi": 53,
                    "name": "F3",
                    "ticks": 12096,
                    "time": 63,
                    "velocity": 0.7874015748031497
                },
                {
                    "duration": 0.9166666666666714,
                    "durationTicks": 176,
                    "midi": 54,
                    "name": "F#3",
                    "ticks": 12480,
                    "time": 65,
                    "velocity": 0.7874015748031497
                },
                {
                    "duration": 1.9166666666666714,
                    "durationTicks": 368,
                    "midi": 55,
                    "name": "G3",
                    "ticks": 12672,
                    "time": 66,
                    "velocity": 0.7874015748031497
                },
                {
                    "duration": 0.9166666666666714,
                    "durationTicks": 176,
                    "midi": 57,
                    "name": "A3",
                    "ticks": 13056,
                    "time": 68,
                    "velocity": 0.7874015748031497
                },
                {
                    "duration": 0.9166666666666714,
                    "durationTicks": 176,
                    "midi": 58,
                    "name": "A#3",
                    "ticks": 13248,
                    "time": 69,
                    "velocity": 0.7874015748031497
                },
                {
                    "duration": 0.9166666666666714,
                    "durationTicks": 176,
                    "midi": 46,
                    "name": "A#2",
                    "ticks": 13440,
                    "time": 70,
                    "velocity": 0.7874015748031497
                },
                {
                    "duration": 0.9166666666666714,
                    "durationTicks": 176,
                    "midi": 39,
                    "name": "D#2",
                    "ticks": 13632,
                    "time": 71,
                    "velocity": 0.7874015748031497
                },
                {
                    "duration": 0.9166666666666714,
                    "durationTicks": 176,
                    "midi": 51,
                    "name": "D#3",
                    "ticks": 13632,
                    "time": 71,
                    "velocity": 0.7874015748031497
                },
                {
                    "duration": 1.9166666666666714,
                    "durationTicks": 368,
                    "midi": 53,
                    "name": "F3",
                    "ticks": 13824,
                    "time": 72,
                    "velocity": 0.7874015748031497
                },
                {
                    "duration": 1.9166666666666714,
                    "durationTicks": 368,
                    "midi": 41,
                    "name": "F2",
                    "ticks": 13824,
                    "time": 72,
                    "velocity": 0.7874015748031497
                },
                {
                    "duration": 0.9166666666666714,
                    "durationTicks": 176,
                    "midi": 53,
                    "name": "F3",
                    "ticks": 14208,
                    "time": 74,
                    "velocity": 0.7874015748031497
                },
                {
                    "duration": 0.9166666666666714,
                    "durationTicks": 176,
                    "midi": 41,
                    "name": "F2",
                    "ticks": 14208,
                    "time": 74,
                    "velocity": 0.7874015748031497
                },
                {
                    "duration": 1.9166666666666714,
                    "durationTicks": 368,
                    "midi": 41,
                    "name": "F2",
                    "ticks": 14400,
                    "time": 75,
                    "velocity": 0.7874015748031497
                },
                {
                    "duration": 1.9166666666666714,
                    "durationTicks": 368,
                    "midi": 53,
                    "name": "F3",
                    "ticks": 14400,
                    "time": 75,
                    "velocity": 0.7874015748031497
                },
                {
                    "duration": 0.9166666666666714,
                    "durationTicks": 176,
                    "midi": 41,
                    "name": "F2",
                    "ticks": 14784,
                    "time": 77,
                    "velocity": 0.7874015748031497
                },
                {
                    "duration": 0.9166666666666714,
                    "durationTicks": 176,
                    "midi": 53,
                    "name": "F3",
                    "ticks": 14784,
                    "time": 77,
                    "velocity": 0.7874015748031497
                },
                {
                    "duration": 2.9166666666666714,
                    "durationTicks": 560,
                    "midi": 46,
                    "name": "A#2",
                    "ticks": 14976,
                    "time": 78,
                    "velocity": 0.7874015748031497
                }
            ],
            "endOfTrackTicks": 15536
        },
        {
            "channel": 3,
            "controlChanges": {
                "7": [
                    {
                        "number": 7,
                        "ticks": 0,
                        "time": 0,
                        "value": 0.6299212598425197
                    }
                ]
            },
            "pitchBends": [],
            "instrument": {
                "family": "bass",
                "number": 33,
                "name": "electric bass (finger)"
            },
            "name": "BASS                ",
            "notes": [
                {
                    "duration": 0.6666666666666666,
                    "durationTicks": 128,
                    "midi": 46,
                    "name": "A#2",
                    "ticks": 0,
                    "time": 0,
                    "velocity": 0.9448818897637795
                },
                {
                    "duration": 0.16666666666666663,
                    "durationTicks": 32,
                    "midi": 46,
                    "name": "A#2",
                    "ticks": 144,
                    "time": 0.75,
                    "velocity": 0.9448818897637795
                },
                {
                    "duration": 0.9166666666666667,
                    "durationTicks": 176,
                    "midi": 46,
                    "name": "A#2",
                    "ticks": 192,
                    "time": 1,
                    "velocity": 0.9448818897637795
                },
                {
                    "duration": 0.9166666666666665,
                    "durationTicks": 176,
                    "midi": 46,
                    "name": "A#2",
                    "ticks": 384,
                    "time": 2,
                    "velocity": 0.9448818897637795
                },
                {
                    "duration": 0.6666666666666665,
                    "durationTicks": 128,
                    "midi": 48,
                    "name": "C3",
                    "ticks": 576,
                    "time": 3,
                    "velocity": 0.9448818897637795
                },
                {
                    "duration": 0.16666666666666652,
                    "durationTicks": 32,
                    "midi": 48,
                    "name": "C3",
                    "ticks": 720,
                    "time": 3.75,
                    "velocity": 0.9448818897637795
                },
                {
                    "duration": 1.416666666666667,
                    "durationTicks": 272,
                    "midi": 48,
                    "name": "C3",
                    "ticks": 768,
                    "time": 4,
                    "velocity": 0.9448818897637795
                },
                {
                    "duration": 0.666666666666667,
                    "durationTicks": 128,
                    "midi": 45,
                    "name": "A2",
                    "ticks": 1152,
                    "time": 6,
                    "velocity": 0.9448818897637795
                },
                {
                    "duration": 0.16666666666666696,
                    "durationTicks": 32,
                    "midi": 45,
                    "name": "A2",
                    "ticks": 1296,
                    "time": 6.75,
                    "velocity": 0.9448818897637795
                },
                {
                    "duration": 0.916666666666667,
                    "durationTicks": 176,
                    "midi": 45,
                    "name": "A2",
                    "ticks": 1344,
                    "time": 7,
                    "velocity": 0.9448818897637795
                },
                {
                    "duration": 0.9166666666666661,
                    "durationTicks": 176,
                    "midi": 41,
                    "name": "F2",
                    "ticks": 1536,
                    "time": 8,
                    "velocity": 0.9448818897637795
                },
                {
                    "duration": 0.6666666666666661,
                    "durationTicks": 128,
                    "midi": 46,
                    "name": "A#2",
                    "ticks": 1728,
                    "time": 9,
                    "velocity": 0.9448818897637795
                },
                {
                    "duration": 0.16666666666666607,
                    "durationTicks": 32,
                    "midi": 46,
                    "name": "A#2",
                    "ticks": 1872,
                    "time": 9.75,
                    "velocity": 0.9448818897637795
                },
                {
                    "duration": 1,
                    "durationTicks": 192,
                    "midi": 46,
                    "name": "A#2",
                    "ticks": 1920,
                    "time": 10,
                    "velocity": 0.9448818897637795
                },
                {
                    "duration": 0.9166666666666661,
                    "durationTicks": 176,
                    "midi": 46,
                    "name": "A#2",
                    "ticks": 2304,
                    "time": 12,
                    "velocity": 0.9448818897637795
                },
                {
                    "duration": 0.9166666666666661,
                    "durationTicks": 176,
                    "midi": 46,
                    "name": "A#2",
                    "ticks": 2496,
                    "time": 13,
                    "velocity": 0.9448818897637795
                },
                {
                    "duration": 0.9166666666666661,
                    "durationTicks": 176,
                    "midi": 45,
                    "name": "A2",
                    "ticks": 2688,
                    "time": 14,
                    "velocity": 0.9448818897637795
                },
                {
                    "duration": 0.9166666666666661,
                    "durationTicks": 176,
                    "midi": 43,
                    "name": "G2",
                    "ticks": 2880,
                    "time": 15,
                    "velocity": 0.9448818897637795
                },
                {
                    "duration": 0.9166666666666679,
                    "durationTicks": 176,
                    "midi": 48,
                    "name": "C3",
                    "ticks": 3072,
                    "time": 16,
                    "velocity": 0.9448818897637795
                },
                {
                    "duration": 0.9166666666666679,
                    "durationTicks": 176,
                    "midi": 41,
                    "name": "F2",
                    "ticks": 3264,
                    "time": 17,
                    "velocity": 0.9448818897637795
                },
                {
                    "duration": 0.9166666666666679,
                    "durationTicks": 176,
                    "midi": 46,
                    "name": "A#2",
                    "ticks": 3456,
                    "time": 18,
                    "velocity": 0.9448818897637795
                },
                {
                    "duration": 0.9166666666666679,
                    "durationTicks": 176,
                    "midi": 46,
                    "name": "A#2",
                    "ticks": 3648,
                    "time": 19,
                    "velocity": 0.9448818897637795
                },
                {
                    "duration": 0.9166666666666679,
                    "durationTicks": 176,
                    "midi": 48,
                    "name": "C3",
                    "ticks": 3840,
                    "time": 20,
                    "velocity": 0.9448818897637795
                },
                {
                    "duration": 2.416666666666668,
                    "durationTicks": 464,
                    "midi": 41,
                    "name": "F2",
                    "ticks": 4032,
                    "time": 21,
                    "velocity": 0.9448818897637795
                },
                {
                    "duration": 0.9166666666666679,
                    "durationTicks": 176,
                    "midi": 41,
                    "name": "F2",
                    "ticks": 4608,
                    "time": 24,
                    "velocity": 0.9448818897637795
                },
                {
                    "duration": 0.9166666666666679,
                    "durationTicks": 176,
                    "midi": 53,
                    "name": "F3",
                    "ticks": 4800,
                    "time": 25,
                    "velocity": 0.9448818897637795
                },
                {
                    "duration": 0.9166666666666679,
                    "durationTicks": 176,
                    "midi": 41,
                    "name": "F2",
                    "ticks": 4992,
                    "time": 26,
                    "velocity": 0.9448818897637795
                },
                {
                    "duration": 0.9166666666666679,
                    "durationTicks": 176,
                    "midi": 41,
                    "name": "F2",
                    "ticks": 5184,
                    "time": 27,
                    "velocity": 0.9448818897637795
                },
                {
                    "duration": 0.9166666666666679,
                    "durationTicks": 176,
                    "midi": 53,
                    "name": "F3",
                    "ticks": 5376,
                    "time": 28,
                    "velocity": 0.9448818897637795
                },
                {
                    "duration": 0.9166666666666679,
                    "durationTicks": 176,
                    "midi": 41,
                    "name": "F2",
                    "ticks": 5568,
                    "time": 29,
                    "velocity": 0.9448818897637795
                },
                {
                    "duration": 1.9166666666666679,
                    "durationTicks": 368,
                    "midi": 41,
                    "name": "F2",
                    "ticks": 5760,
                    "time": 30,
                    "velocity": 0.9448818897637795
                },
                {
                    "duration": 0.9166666666666643,
                    "durationTicks": 176,
                    "midi": 46,
                    "name": "A#2",
                    "ticks": 6144,
                    "time": 32,
                    "velocity": 0.9448818897637795
                },
                {
                    "duration": 2,
                    "durationTicks": 384,
                    "midi": 53,
                    "name": "F3",
                    "ticks": 6336,
                    "time": 33,
                    "velocity": 0.9448818897637795
                },
                {
                    "duration": 0.9166666666666643,
                    "durationTicks": 176,
                    "midi": 41,
                    "name": "F2",
                    "ticks": 6912,
                    "time": 36,
                    "velocity": 0.9448818897637795
                },
                {
                    "duration": 0.9166666666666643,
                    "durationTicks": 176,
                    "midi": 53,
                    "name": "F3",
                    "ticks": 7104,
                    "time": 37,
                    "velocity": 0.9448818897637795
                },
                {
                    "duration": 0.9166666666666643,
                    "durationTicks": 176,
                    "midi": 51,
                    "name": "D#3",
                    "ticks": 7296,
                    "time": 38,
                    "velocity": 0.9448818897637795
                },
                {
                    "duration": 1.4166666666666643,
                    "durationTicks": 272,
                    "midi": 50,
                    "name": "D3",
                    "ticks": 7488,
                    "time": 39,
                    "velocity": 0.9448818897637795
                },
                {
                    "duration": 0.4166666666666643,
                    "durationTicks": 80,
                    "midi": 48,
                    "name": "C3",
                    "ticks": 7776,
                    "time": 40.5,
                    "velocity": 0.9448818897637795
                },
                {
                    "duration": 0.9166666666666643,
                    "durationTicks": 176,
                    "midi": 46,
                    "name": "A#2",
                    "ticks": 7872,
                    "time": 41,
                    "velocity": 0.9448818897637795
                },
                {
                    "duration": 1.9166666666666643,
                    "durationTicks": 368,
                    "midi": 45,
                    "name": "A2",
                    "ticks": 8064,
                    "time": 42,
                    "velocity": 0.9448818897637795
                },
                {
                    "duration": 0.9166666666666643,
                    "durationTicks": 176,
                    "midi": 46,
                    "name": "A#2",
                    "ticks": 8448,
                    "time": 44,
                    "velocity": 0.9448818897637795
                },
                {
                    "duration": 2,
                    "durationTicks": 384,
                    "midi": 41,
                    "name": "F2",
                    "ticks": 8640,
                    "time": 45,
                    "velocity": 0.9448818897637795
                },
                {
                    "duration": 0.6666666666666643,
                    "durationTicks": 128,
                    "midi": 46,
                    "name": "A#2",
                    "ticks": 9216,
                    "time": 48,
                    "velocity": 0.9448818897637795
                },
                {
                    "duration": 0.1666666666666643,
                    "durationTicks": 32,
                    "midi": 46,
                    "name": "A#2",
                    "ticks": 9360,
                    "time": 48.75,
                    "velocity": 0.9448818897637795
                },
                {
                    "duration": 0.9166666666666643,
                    "durationTicks": 176,
                    "midi": 46,
                    "name": "A#2",
                    "ticks": 9408,
                    "time": 49,
                    "velocity": 0.9448818897637795
                },
                {
                    "duration": 0.9166666666666643,
                    "durationTicks": 176,
                    "midi": 50,
                    "name": "D3",
                    "ticks": 9600,
                    "time": 50,
                    "velocity": 0.9448818897637795
                },
                {
                    "duration": 0.6666666666666643,
                    "durationTicks": 128,
                    "midi": 51,
                    "name": "D#3",
                    "ticks": 9792,
                    "time": 51,
                    "velocity": 0.9448818897637795
                },
                {
                    "duration": 0.1666666666666643,
                    "durationTicks": 32,
                    "midi": 51,
                    "name": "D#3",
                    "ticks": 9936,
                    "time": 51.75,
                    "velocity": 0.9448818897637795
                },
                {
                    "duration": 1,
                    "durationTicks": 192,
                    "midi": 51,
                    "name": "D#3",
                    "ticks": 9984,
                    "time": 52,
                    "velocity": 0.9448818897637795
                },
                {
                    "duration": 0.6666666666666643,
                    "durationTicks": 128,
                    "midi": 51,
                    "name": "D#3",
                    "ticks": 10368,
                    "time": 54,
                    "velocity": 0.9448818897637795
                },
                {
                    "duration": 0.1666666666666643,
                    "durationTicks": 32,
                    "midi": 51,
                    "name": "D#3",
                    "ticks": 10512,
                    "time": 54.75,
                    "velocity": 0.9448818897637795
                },
                {
                    "duration": 0.9166666666666643,
                    "durationTicks": 176,
                    "midi": 51,
                    "name": "D#3",
                    "ticks": 10560,
                    "time": 55,
                    "velocity": 0.9448818897637795
                },
                {
                    "duration": 0.9166666666666643,
                    "durationTicks": 176,
                    "midi": 48,
                    "name": "C3",
                    "ticks": 10752,
                    "time": 56,
                    "velocity": 0.9448818897637795
                },
                {
                    "duration": 0.6666666666666643,
                    "durationTicks": 128,
                    "midi": 53,
                    "name": "F3",
                    "ticks": 10944,
                    "time": 57,
                    "velocity": 0.9448818897637795
                },
                {
                    "duration": 0.1666666666666643,
                    "durationTicks": 32,
                    "midi": 41,
                    "name": "F2",
                    "ticks": 11088,
                    "time": 57.75,
                    "velocity": 0.9448818897637795
                },
                {
                    "duration": 1.4166666666666643,
                    "durationTicks": 272,
                    "midi": 41,
                    "name": "F2",
                    "ticks": 11136,
                    "time": 58,
                    "velocity": 0.9448818897637795
                },
                {
                    "duration": 0.9166666666666643,
                    "durationTicks": 176,
                    "midi": 46,
                    "name": "A#2",
                    "ticks": 11520,
                    "time": 60,
                    "velocity": 0.9448818897637795
                },
                {
                    "duration": 0.9166666666666643,
                    "durationTicks": 176,
                    "midi": 46,
                    "name": "A#2",
                    "ticks": 11712,
                    "time": 61,
                    "velocity": 0.9448818897637795
                },
                {
                    "duration": 0.9166666666666643,
                    "durationTicks": 176,
                    "midi": 51,
                    "name": "D#3",
                    "ticks": 11904,
                    "time": 62,
                    "velocity": 0.9448818897637795
                },
                {
                    "duration": 1.9166666666666714,
                    "durationTicks": 368,
                    "midi": 53,
                    "name": "F3",
                    "ticks": 12096,
                    "time": 63,
                    "velocity": 0.9448818897637795
                },
                {
                    "duration": 0.9166666666666714,
                    "durationTicks": 176,
                    "midi": 42,
                    "name": "F#2",
                    "ticks": 12480,
                    "time": 65,
                    "velocity": 0.9448818897637795
                },
                {
                    "duration": 1.9166666666666714,
                    "durationTicks": 368,
                    "midi": 43,
                    "name": "G2",
                    "ticks": 12672,
                    "time": 66,
                    "velocity": 0.9448818897637795
                },
                {
                    "duration": 0.9166666666666714,
                    "durationTicks": 176,
                    "midi": 45,
                    "name": "A2",
                    "ticks": 13056,
                    "time": 68,
                    "velocity": 0.9448818897637795
                },
                {
                    "duration": 0.9166666666666714,
                    "durationTicks": 176,
                    "midi": 46,
                    "name": "A#2",
                    "ticks": 13248,
                    "time": 69,
                    "velocity": 0.9448818897637795
                },
                {
                    "duration": 0.9166666666666714,
                    "durationTicks": 176,
                    "midi": 46,
                    "name": "A#2",
                    "ticks": 13440,
                    "time": 70,
                    "velocity": 0.9448818897637795
                },
                {
                    "duration": 0.9166666666666714,
                    "durationTicks": 176,
                    "midi": 39,
                    "name": "D#2",
                    "ticks": 13632,
                    "time": 71,
                    "velocity": 0.9448818897637795
                },
                {
                    "duration": 1.9166666666666714,
                    "durationTicks": 368,
                    "midi": 41,
                    "name": "F2",
                    "ticks": 13824,
                    "time": 72,
                    "velocity": 0.9448818897637795
                },
                {
                    "duration": 0.9166666666666714,
                    "durationTicks": 176,
                    "midi": 53,
                    "name": "F3",
                    "ticks": 14208,
                    "time": 74,
                    "velocity": 0.9448818897637795
                },
                {
                    "duration": 0.9166666666666714,
                    "durationTicks": 176,
                    "midi": 41,
                    "name": "F2",
                    "ticks": 14400,
                    "time": 75,
                    "velocity": 0.9448818897637795
                },
                {
                    "duration": 0.9166666666666714,
                    "durationTicks": 176,
                    "midi": 41,
                    "name": "F2",
                    "ticks": 14784,
                    "time": 77,
                    "velocity": 0.9448818897637795
                },
                {
                    "duration": 2.9166666666666714,
                    "durationTicks": 560,
                    "midi": 46,
                    "name": "A#2",
                    "ticks": 14976,
                    "time": 78,
                    "velocity": 0.9448818897637795
                }
            ],
            "endOfTrackTicks": 15536
        },
        {
            "channel": 0,
            "controlChanges": {
                "7": [
                    {
                        "number": 7,
                        "ticks": 0,
                        "time": 0,
                        "value": 0.6299212598425197
                    }
                ]
            },
            "pitchBends": [],
            "instrument": {
                "family": "brass",
                "number": 60,
                "name": "french horn"
            },
            "name": "MELODY              ",
            "notes": [
                {
                    "duration": 0.6666666666666666,
                    "durationTicks": 128,
                    "midi": 65,
                    "name": "F4",
                    "ticks": 0,
                    "time": 0,
                    "velocity": 0.7874015748031497
                },
                {
                    "duration": 0.16666666666666663,
                    "durationTicks": 32,
                    "midi": 65,
                    "name": "F4",
                    "ticks": 144,
                    "time": 0.75,
                    "velocity": 0.7874015748031497
                },
                {
                    "duration": 0.9166666666666667,
                    "durationTicks": 176,
                    "midi": 65,
                    "name": "F4",
                    "ticks": 192,
                    "time": 1,
                    "velocity": 0.7874015748031497
                },
                {
                    "duration": 0.9166666666666665,
                    "durationTicks": 176,
                    "midi": 70,
                    "name": "A#4",
                    "ticks": 384,
                    "time": 2,
                    "velocity": 0.7874015748031497
                },
                {
                    "duration": 0.6666666666666665,
                    "durationTicks": 128,
                    "midi": 70,
                    "name": "A#4",
                    "ticks": 576,
                    "time": 3,
                    "velocity": 0.7874015748031497
                },
                {
                    "duration": 0.16666666666666652,
                    "durationTicks": 32,
                    "midi": 69,
                    "name": "A4",
                    "ticks": 720,
                    "time": 3.75,
                    "velocity": 0.7874015748031497
                },
                {
                    "duration": 1.416666666666667,
                    "durationTicks": 272,
                    "midi": 69,
                    "name": "A4",
                    "ticks": 768,
                    "time": 4,
                    "velocity": 0.7874015748031497
                },
                {
                    "duration": 0.666666666666667,
                    "durationTicks": 128,
                    "midi": 65,
                    "name": "F4",
                    "ticks": 1152,
                    "time": 6,
                    "velocity": 0.7874015748031497
                },
                {
                    "duration": 0.16666666666666696,
                    "durationTicks": 32,
                    "midi": 65,
                    "name": "F4",
                    "ticks": 1296,
                    "time": 6.75,
                    "velocity": 0.7874015748031497
                },
                {
                    "duration": 0.916666666666667,
                    "durationTicks": 176,
                    "midi": 65,
                    "name": "F4",
                    "ticks": 1344,
                    "time": 7,
                    "velocity": 0.7874015748031497
                },
                {
                    "duration": 0.9166666666666661,
                    "durationTicks": 176,
                    "midi": 72,
                    "name": "C5",
                    "ticks": 1536,
                    "time": 8,
                    "velocity": 0.7874015748031497
                },
                {
                    "duration": 0.6666666666666661,
                    "durationTicks": 128,
                    "midi": 72,
                    "name": "C5",
                    "ticks": 1728,
                    "time": 9,
                    "velocity": 0.7874015748031497
                },
                {
                    "duration": 0.16666666666666607,
                    "durationTicks": 32,
                    "midi": 70,
                    "name": "A#4",
                    "ticks": 1872,
                    "time": 9.75,
                    "velocity": 0.7874015748031497
                },
                {
                    "duration": 1,
                    "durationTicks": 192,
                    "midi": 70,
                    "name": "A#4",
                    "ticks": 1920,
                    "time": 10,
                    "velocity": 0.7874015748031497
                },
                {
                    "duration": 1.416666666666666,
                    "durationTicks": 272,
                    "midi": 74,
                    "name": "D5",
                    "ticks": 2304,
                    "time": 12,
                    "velocity": 0.7874015748031497
                },
                {
                    "duration": 0.4166666666666661,
                    "durationTicks": 80,
                    "midi": 74,
                    "name": "D5",
                    "ticks": 2592,
                    "time": 13.5,
                    "velocity": 0.7874015748031497
                },
                {
                    "duration": 0.4166666666666661,
                    "durationTicks": 80,
                    "midi": 72,
                    "name": "C5",
                    "ticks": 2688,
                    "time": 14,
                    "velocity": 0.7874015748031497
                },
                {
                    "duration": 0.4166666666666661,
                    "durationTicks": 80,
                    "midi": 72,
                    "name": "C5",
                    "ticks": 2784,
                    "time": 14.5,
                    "velocity": 0.7874015748031497
                },
                {
                    "duration": 1.4166666666666679,
                    "durationTicks": 272,
                    "midi": 72,
                    "name": "C5",
                    "ticks": 2880,
                    "time": 15,
                    "velocity": 0.7874015748031497
                },
                {
                    "duration": 0.41666666666666785,
                    "durationTicks": 80,
                    "midi": 70,
                    "name": "A#4",
                    "ticks": 3168,
                    "time": 16.5,
                    "velocity": 0.7874015748031497
                },
                {
                    "duration": 0.9166666666666679,
                    "durationTicks": 176,
                    "midi": 69,
                    "name": "A4",
                    "ticks": 3264,
                    "time": 17,
                    "velocity": 0.7874015748031497
                },
                {
                    "duration": 1.9166666666666679,
                    "durationTicks": 368,
                    "midi": 67,
                    "name": "G4",
                    "ticks": 3456,
                    "time": 18,
                    "velocity": 0.7874015748031497
                },
                {
                    "duration": 0.9166666666666679,
                    "durationTicks": 176,
                    "midi": 64,
                    "name": "E4",
                    "ticks": 3840,
                    "time": 20,
                    "velocity": 0.7874015748031497
                },
                {
                    "duration": 2.416666666666668,
                    "durationTicks": 464,
                    "midi": 65,
                    "name": "F4",
                    "ticks": 4032,
                    "time": 21,
                    "velocity": 0.7874015748031497
                },
                {
                    "duration": 0.6666666666666679,
                    "durationTicks": 128,
                    "midi": 69,
                    "name": "A4",
                    "ticks": 4608,
                    "time": 24,
                    "velocity": 0.7874015748031497
                },
                {
                    "duration": 0.16666666666666785,
                    "durationTicks": 32,
                    "midi": 69,
                    "name": "A4",
                    "ticks": 4752,
                    "time": 24.75,
                    "velocity": 0.7874015748031497
                },
                {
                    "duration": 0.9166666666666679,
                    "durationTicks": 176,
                    "midi": 69,
                    "name": "A4",
                    "ticks": 4800,
                    "time": 25,
                    "velocity": 0.7874015748031497
                },
                {
                    "duration": 0.9166666666666679,
                    "durationTicks": 176,
                    "midi": 69,
                    "name": "A4",
                    "ticks": 4992,
                    "time": 26,
                    "velocity": 0.7874015748031497
                },
                {
                    "duration": 1.4166666666666679,
                    "durationTicks": 272,
                    "midi": 70,
                    "name": "A#4",
                    "ticks": 5184,
                    "time": 27,
                    "velocity": 0.7874015748031497
                },
                {
                    "duration": 0.41666666666666785,
                    "durationTicks": 80,
                    "midi": 69,
                    "name": "A4",
                    "ticks": 5472,
                    "time": 28.5,
                    "velocity": 0.7874015748031497
                },
                {
                    "duration": 0.41666666666666785,
                    "durationTicks": 80,
                    "midi": 67,
                    "name": "G4",
                    "ticks": 5568,
                    "time": 29,
                    "velocity": 0.7874015748031497
                },
                {
                    "duration": 0.41666666666666785,
                    "durationTicks": 80,
                    "midi": 65,
                    "name": "F4",
                    "ticks": 5664,
                    "time": 29.5,
                    "velocity": 0.7874015748031497
                },
                {
                    "duration": 2.9166666666666643,
                    "durationTicks": 560,
                    "midi": 65,
                    "name": "F4",
                    "ticks": 5760,
                    "time": 30,
                    "velocity": 0.7874015748031497
                },
                {
                    "duration": 2,
                    "durationTicks": 384,
                    "midi": 65,
                    "name": "F4",
                    "ticks": 6336,
                    "time": 33,
                    "velocity": 0.7874015748031497
                },
                {
                    "duration": 0.6666666666666643,
                    "durationTicks": 128,
                    "midi": 69,
                    "name": "A4",
                    "ticks": 6912,
                    "time": 36,
                    "velocity": 0.7874015748031497
                },
                {
                    "duration": 0.1666666666666643,
                    "durationTicks": 32,
                    "midi": 69,
                    "name": "A4",
                    "ticks": 7056,
                    "time": 36.75,
                    "velocity": 0.7874015748031497
                },
                {
                    "duration": 0.9166666666666643,
                    "durationTicks": 176,
                    "midi": 69,
                    "name": "A4",
                    "ticks": 7104,
                    "time": 37,
                    "velocity": 0.7874015748031497
                },
                {
                    "duration": 0.9166666666666643,
                    "durationTicks": 176,
                    "midi": 69,
                    "name": "A4",
                    "ticks": 7296,
                    "time": 38,
                    "velocity": 0.7874015748031497
                },
                {
                    "duration": 1.4166666666666643,
                    "durationTicks": 272,
                    "midi": 70,
                    "name": "A#4",
                    "ticks": 7488,
                    "time": 39,
                    "velocity": 0.7874015748031497
                },
                {
                    "duration": 0.4166666666666643,
                    "durationTicks": 80,
                    "midi": 72,
                    "name": "C5",
                    "ticks": 7776,
                    "time": 40.5,
                    "velocity": 0.7874015748031497
                },
                {
                    "duration": 0.9166666666666643,
                    "durationTicks": 176,
                    "midi": 74,
                    "name": "D5",
                    "ticks": 7872,
                    "time": 41,
                    "velocity": 0.7874015748031497
                },
                {
                    "duration": 1.9166666666666643,
                    "durationTicks": 368,
                    "midi": 72,
                    "name": "C5",
                    "ticks": 8064,
                    "time": 42,
                    "velocity": 0.7874015748031497
                },
                {
                    "duration": 0.9166666666666643,
                    "durationTicks": 176,
                    "midi": 70,
                    "name": "A#4",
                    "ticks": 8448,
                    "time": 44,
                    "velocity": 0.7874015748031497
                },
                {
                    "duration": 2,
                    "durationTicks": 384,
                    "midi": 69,
                    "name": "A4",
                    "ticks": 8640,
                    "time": 45,
                    "velocity": 0.7874015748031497
                },
                {
                    "duration": 0.6666666666666643,
                    "durationTicks": 128,
                    "midi": 65,
                    "name": "F4",
                    "ticks": 9216,
                    "time": 48,
                    "velocity": 0.7874015748031497
                },
                {
                    "duration": 0.1666666666666643,
                    "durationTicks": 32,
                    "midi": 65,
                    "name": "F4",
                    "ticks": 9360,
                    "time": 48.75,
                    "velocity": 0.7874015748031497
                },
                {
                    "duration": 0.9166666666666643,
                    "durationTicks": 176,
                    "midi": 65,
                    "name": "F4",
                    "ticks": 9408,
                    "time": 49,
                    "velocity": 0.7874015748031497
                },
                {
                    "duration": 0.9166666666666643,
                    "durationTicks": 176,
                    "midi": 70,
                    "name": "A#4",
                    "ticks": 9600,
                    "time": 50,
                    "velocity": 0.7874015748031497
                },
                {
                    "duration": 0.6666666666666643,
                    "durationTicks": 128,
                    "midi": 68,
                    "name": "G#4",
                    "ticks": 9792,
                    "time": 51,
                    "velocity": 0.7874015748031497
                },
                {
                    "duration": 0.1666666666666643,
                    "durationTicks": 32,
                    "midi": 67,
                    "name": "G4",
                    "ticks": 9936,
                    "time": 51.75,
                    "velocity": 0.7874015748031497
                },
                {
                    "duration": 1,
                    "durationTicks": 192,
                    "midi": 67,
                    "name": "G4",
                    "ticks": 9984,
                    "time": 52,
                    "velocity": 0.7874015748031497
                },
                {
                    "duration": 0.6666666666666643,
                    "durationTicks": 128,
                    "midi": 67,
                    "name": "G4",
                    "ticks": 10368,
                    "time": 54,
                    "velocity": 0.7874015748031497
                },
                {
                    "duration": 0.1666666666666643,
                    "durationTicks": 32,
                    "midi": 67,
                    "name": "G4",
                    "ticks": 10512,
                    "time": 54.75,
                    "velocity": 0.7874015748031497
                },
                {
                    "duration": 0.9166666666666643,
                    "durationTicks": 176,
                    "midi": 67,
                    "name": "G4",
                    "ticks": 10560,
                    "time": 55,
                    "velocity": 0.7874015748031497
                },
                {
                    "duration": 0.9166666666666643,
                    "durationTicks": 176,
                    "midi": 72,
                    "name": "C5",
                    "ticks": 10752,
                    "time": 56,
                    "velocity": 0.7874015748031497
                },
                {
                    "duration": 0.6666666666666643,
                    "durationTicks": 128,
                    "midi": 70,
                    "name": "A#4",
                    "ticks": 10944,
                    "time": 57,
                    "velocity": 0.7874015748031497
                },
                {
                    "duration": 0.1666666666666643,
                    "durationTicks": 32,
                    "midi": 69,
                    "name": "A4",
                    "ticks": 11088,
                    "time": 57.75,
                    "velocity": 0.7874015748031497
                },
                {
                    "duration": 1.4166666666666643,
                    "durationTicks": 272,
                    "midi": 69,
                    "name": "A4",
                    "ticks": 11136,
                    "time": 58,
                    "velocity": 0.7874015748031497
                },
                {
                    "duration": 1.4166666666666643,
                    "durationTicks": 272,
                    "midi": 74,
                    "name": "D5",
                    "ticks": 11520,
                    "time": 60,
                    "velocity": 0.7874015748031497
                },
                {
                    "duration": 0.4166666666666643,
                    "durationTicks": 80,
                    "midi": 74,
                    "name": "D5",
                    "ticks": 11808,
                    "time": 61.5,
                    "velocity": 0.7874015748031497
                },
                {
                    "duration": 0.4166666666666643,
                    "durationTicks": 80,
                    "midi": 75,
                    "name": "D#5",
                    "ticks": 11904,
                    "time": 62,
                    "velocity": 0.7874015748031497
                },
                {
                    "duration": 0.4166666666666643,
                    "durationTicks": 80,
                    "midi": 72,
                    "name": "C5",
                    "ticks": 12000,
                    "time": 62.5,
                    "velocity": 0.7874015748031497
                },
                {
                    "duration": 1.9166666666666714,
                    "durationTicks": 368,
                    "midi": 70,
                    "name": "A#4",
                    "ticks": 12096,
                    "time": 63,
                    "velocity": 0.7874015748031497
                },
                {
                    "duration": 0.9166666666666714,
                    "durationTicks": 176,
                    "midi": 69,
                    "name": "A4",
                    "ticks": 12480,
                    "time": 65,
                    "velocity": 0.7874015748031497
                },
                {
                    "duration": 1.9166666666666714,
                    "durationTicks": 368,
                    "midi": 70,
                    "name": "A#4",
                    "ticks": 12672,
                    "time": 66,
                    "velocity": 0.7874015748031497
                },
                {
                    "duration": 0.9166666666666714,
                    "durationTicks": 176,
                    "midi": 72,
                    "name": "C5",
                    "ticks": 13056,
                    "time": 68,
                    "velocity": 0.7874015748031497
                },
                {
                    "duration": 0.9166666666666714,
                    "durationTicks": 176,
                    "midi": 74,
                    "name": "D5",
                    "ticks": 13248,
                    "time": 69,
                    "velocity": 0.7874015748031497
                },
                {
                    "duration": 0.4166666666666714,
                    "durationTicks": 80,
                    "midi": 74,
                    "name": "D5",
                    "ticks": 13536,
                    "time": 70.5,
                    "velocity": 0.7874015748031497
                },
                {
                    "duration": 0.4166666666666714,
                    "durationTicks": 80,
                    "midi": 75,
                    "name": "D#5",
                    "ticks": 13632,
                    "time": 71,
                    "velocity": 0.7874015748031497
                },
                {
                    "duration": 0.4166666666666714,
                    "durationTicks": 80,
                    "midi": 72,
                    "name": "C5",
                    "ticks": 13728,
                    "time": 71.5,
                    "velocity": 0.7874015748031497
                },
                {
                    "duration": 1.9166666666666714,
                    "durationTicks": 368,
                    "midi": 70,
                    "name": "A#4",
                    "ticks": 13824,
                    "time": 72,
                    "velocity": 0.7874015748031497
                },
                {
                    "duration": 0.9166666666666714,
                    "durationTicks": 176,
                    "midi": 70,
                    "name": "A#4",
                    "ticks": 14208,
                    "time": 74,
                    "velocity": 0.7874015748031497
                },
                {
                    "duration": 0.9166666666666714,
                    "durationTicks": 176,
                    "midi": 70,
                    "name": "A#4",
                    "ticks": 14400,
                    "time": 75,
                    "velocity": 0.7874015748031497
                },
                {
                    "duration": 0.4166666666666714,
                    "durationTicks": 80,
                    "midi": 69,
                    "name": "A4",
                    "ticks": 14592,
                    "time": 76,
                    "velocity": 0.7874015748031497
                },
                {
                    "duration": 0.4166666666666714,
                    "durationTicks": 80,
                    "midi": 67,
                    "name": "G4",
                    "ticks": 14688,
                    "time": 76.5,
                    "velocity": 0.7874015748031497
                },
                {
                    "duration": 0.9166666666666714,
                    "durationTicks": 176,
                    "midi": 69,
                    "name": "A4",
                    "ticks": 14784,
                    "time": 77,
                    "velocity": 0.7874015748031497
                },
                {
                    "duration": 2.9166666666666714,
                    "durationTicks": 560,
                    "midi": 70,
                    "name": "A#4",
                    "ticks": 14976,
                    "time": 78,
                    "velocity": 0.7874015748031497
                }
            ],
            "endOfTrackTicks": 15536
        },
        {
            "channel": 4,
            "controlChanges": {
                "7": [
                    {
                        "number": 7,
                        "ticks": 0,
                        "time": 0,
                        "value": 0.6299212598425197
                    }
                ]
            },
            "pitchBends": [],
            "instrument": {
                "family": "pipe",
                "number": 78,
                "name": "whistle"
            },
            "name": "layer               ",
            "notes": [
                {
                    "duration": 0.6666666666666666,
                    "durationTicks": 128,
                    "midi": 65,
                    "name": "F4",
                    "ticks": 0,
                    "time": 0,
                    "velocity": 1
                },
                {
                    "duration": 0.16666666666666663,
                    "durationTicks": 32,
                    "midi": 65,
                    "name": "F4",
                    "ticks": 144,
                    "time": 0.75,
                    "velocity": 1
                },
                {
                    "duration": 0.9166666666666667,
                    "durationTicks": 176,
                    "midi": 65,
                    "name": "F4",
                    "ticks": 192,
                    "time": 1,
                    "velocity": 1
                },
                {
                    "duration": 0.9166666666666665,
                    "durationTicks": 176,
                    "midi": 70,
                    "name": "A#4",
                    "ticks": 384,
                    "time": 2,
                    "velocity": 1
                },
                {
                    "duration": 0.6666666666666665,
                    "durationTicks": 128,
                    "midi": 70,
                    "name": "A#4",
                    "ticks": 576,
                    "time": 3,
                    "velocity": 1
                },
                {
                    "duration": 0.16666666666666652,
                    "durationTicks": 32,
                    "midi": 69,
                    "name": "A4",
                    "ticks": 720,
                    "time": 3.75,
                    "velocity": 1
                },
                {
                    "duration": 1.416666666666667,
                    "durationTicks": 272,
                    "midi": 69,
                    "name": "A4",
                    "ticks": 768,
                    "time": 4,
                    "velocity": 1
                },
                {
                    "duration": 0.666666666666667,
                    "durationTicks": 128,
                    "midi": 65,
                    "name": "F4",
                    "ticks": 1152,
                    "time": 6,
                    "velocity": 1
                },
                {
                    "duration": 0.16666666666666696,
                    "durationTicks": 32,
                    "midi": 65,
                    "name": "F4",
                    "ticks": 1296,
                    "time": 6.75,
                    "velocity": 1
                },
                {
                    "duration": 0.916666666666667,
                    "durationTicks": 176,
                    "midi": 65,
                    "name": "F4",
                    "ticks": 1344,
                    "time": 7,
                    "velocity": 1
                },
                {
                    "duration": 0.9166666666666661,
                    "durationTicks": 176,
                    "midi": 72,
                    "name": "C5",
                    "ticks": 1536,
                    "time": 8,
                    "velocity": 1
                },
                {
                    "duration": 0.6666666666666661,
                    "durationTicks": 128,
                    "midi": 72,
                    "name": "C5",
                    "ticks": 1728,
                    "time": 9,
                    "velocity": 1
                },
                {
                    "duration": 0.16666666666666607,
                    "durationTicks": 32,
                    "midi": 70,
                    "name": "A#4",
                    "ticks": 1872,
                    "time": 9.75,
                    "velocity": 1
                },
                {
                    "duration": 1,
                    "durationTicks": 192,
                    "midi": 70,
                    "name": "A#4",
                    "ticks": 1920,
                    "time": 10,
                    "velocity": 1
                },
                {
                    "duration": 1.416666666666666,
                    "durationTicks": 272,
                    "midi": 74,
                    "name": "D5",
                    "ticks": 2304,
                    "time": 12,
                    "velocity": 1
                },
                {
                    "duration": 0.4166666666666661,
                    "durationTicks": 80,
                    "midi": 74,
                    "name": "D5",
                    "ticks": 2592,
                    "time": 13.5,
                    "velocity": 1
                },
                {
                    "duration": 0.4166666666666661,
                    "durationTicks": 80,
                    "midi": 72,
                    "name": "C5",
                    "ticks": 2688,
                    "time": 14,
                    "velocity": 1
                },
                {
                    "duration": 0.4166666666666661,
                    "durationTicks": 80,
                    "midi": 72,
                    "name": "C5",
                    "ticks": 2784,
                    "time": 14.5,
                    "velocity": 1
                },
                {
                    "duration": 1.4166666666666679,
                    "durationTicks": 272,
                    "midi": 72,
                    "name": "C5",
                    "ticks": 2880,
                    "time": 15,
                    "velocity": 1
                },
                {
                    "duration": 0.41666666666666785,
                    "durationTicks": 80,
                    "midi": 70,
                    "name": "A#4",
                    "ticks": 3168,
                    "time": 16.5,
                    "velocity": 1
                },
                {
                    "duration": 0.9166666666666679,
                    "durationTicks": 176,
                    "midi": 69,
                    "name": "A4",
                    "ticks": 3264,
                    "time": 17,
                    "velocity": 1
                },
                {
                    "duration": 1.9166666666666679,
                    "durationTicks": 368,
                    "midi": 67,
                    "name": "G4",
                    "ticks": 3456,
                    "time": 18,
                    "velocity": 1
                },
                {
                    "duration": 0.9166666666666679,
                    "durationTicks": 176,
                    "midi": 64,
                    "name": "E4",
                    "ticks": 3840,
                    "time": 20,
                    "velocity": 1
                },
                {
                    "duration": 2.416666666666668,
                    "durationTicks": 464,
                    "midi": 65,
                    "name": "F4",
                    "ticks": 4032,
                    "time": 21,
                    "velocity": 1
                },
                {
                    "duration": 0.6666666666666679,
                    "durationTicks": 128,
                    "midi": 69,
                    "name": "A4",
                    "ticks": 4608,
                    "time": 24,
                    "velocity": 1
                },
                {
                    "duration": 0.16666666666666785,
                    "durationTicks": 32,
                    "midi": 69,
                    "name": "A4",
                    "ticks": 4752,
                    "time": 24.75,
                    "velocity": 1
                },
                {
                    "duration": 0.9166666666666679,
                    "durationTicks": 176,
                    "midi": 69,
                    "name": "A4",
                    "ticks": 4800,
                    "time": 25,
                    "velocity": 1
                },
                {
                    "duration": 0.9166666666666679,
                    "durationTicks": 176,
                    "midi": 69,
                    "name": "A4",
                    "ticks": 4992,
                    "time": 26,
                    "velocity": 1
                },
                {
                    "duration": 1.4166666666666679,
                    "durationTicks": 272,
                    "midi": 70,
                    "name": "A#4",
                    "ticks": 5184,
                    "time": 27,
                    "velocity": 1
                },
                {
                    "duration": 0.41666666666666785,
                    "durationTicks": 80,
                    "midi": 69,
                    "name": "A4",
                    "ticks": 5472,
                    "time": 28.5,
                    "velocity": 1
                },
                {
                    "duration": 0.41666666666666785,
                    "durationTicks": 80,
                    "midi": 67,
                    "name": "G4",
                    "ticks": 5568,
                    "time": 29,
                    "velocity": 1
                },
                {
                    "duration": 0.41666666666666785,
                    "durationTicks": 80,
                    "midi": 65,
                    "name": "F4",
                    "ticks": 5664,
                    "time": 29.5,
                    "velocity": 1
                },
                {
                    "duration": 2.9166666666666643,
                    "durationTicks": 560,
                    "midi": 65,
                    "name": "F4",
                    "ticks": 5760,
                    "time": 30,
                    "velocity": 1
                },
                {
                    "duration": 2,
                    "durationTicks": 384,
                    "midi": 65,
                    "name": "F4",
                    "ticks": 6336,
                    "time": 33,
                    "velocity": 1
                },
                {
                    "duration": 0.6666666666666643,
                    "durationTicks": 128,
                    "midi": 69,
                    "name": "A4",
                    "ticks": 6912,
                    "time": 36,
                    "velocity": 1
                },
                {
                    "duration": 0.1666666666666643,
                    "durationTicks": 32,
                    "midi": 69,
                    "name": "A4",
                    "ticks": 7056,
                    "time": 36.75,
                    "velocity": 1
                },
                {
                    "duration": 0.9166666666666643,
                    "durationTicks": 176,
                    "midi": 69,
                    "name": "A4",
                    "ticks": 7104,
                    "time": 37,
                    "velocity": 1
                },
                {
                    "duration": 0.9166666666666643,
                    "durationTicks": 176,
                    "midi": 69,
                    "name": "A4",
                    "ticks": 7296,
                    "time": 38,
                    "velocity": 1
                },
                {
                    "duration": 1.4166666666666643,
                    "durationTicks": 272,
                    "midi": 70,
                    "name": "A#4",
                    "ticks": 7488,
                    "time": 39,
                    "velocity": 1
                },
                {
                    "duration": 0.4166666666666643,
                    "durationTicks": 80,
                    "midi": 72,
                    "name": "C5",
                    "ticks": 7776,
                    "time": 40.5,
                    "velocity": 1
                },
                {
                    "duration": 0.9166666666666643,
                    "durationTicks": 176,
                    "midi": 74,
                    "name": "D5",
                    "ticks": 7872,
                    "time": 41,
                    "velocity": 1
                },
                {
                    "duration": 1.9166666666666643,
                    "durationTicks": 368,
                    "midi": 72,
                    "name": "C5",
                    "ticks": 8064,
                    "time": 42,
                    "velocity": 1
                },
                {
                    "duration": 0.9166666666666643,
                    "durationTicks": 176,
                    "midi": 70,
                    "name": "A#4",
                    "ticks": 8448,
                    "time": 44,
                    "velocity": 1
                },
                {
                    "duration": 2,
                    "durationTicks": 384,
                    "midi": 69,
                    "name": "A4",
                    "ticks": 8640,
                    "time": 45,
                    "velocity": 1
                },
                {
                    "duration": 0.6666666666666643,
                    "durationTicks": 128,
                    "midi": 65,
                    "name": "F4",
                    "ticks": 9216,
                    "time": 48,
                    "velocity": 1
                },
                {
                    "duration": 0.1666666666666643,
                    "durationTicks": 32,
                    "midi": 65,
                    "name": "F4",
                    "ticks": 9360,
                    "time": 48.75,
                    "velocity": 1
                },
                {
                    "duration": 0.9166666666666643,
                    "durationTicks": 176,
                    "midi": 65,
                    "name": "F4",
                    "ticks": 9408,
                    "time": 49,
                    "velocity": 1
                },
                {
                    "duration": 0.9166666666666643,
                    "durationTicks": 176,
                    "midi": 70,
                    "name": "A#4",
                    "ticks": 9600,
                    "time": 50,
                    "velocity": 1
                },
                {
                    "duration": 0.6666666666666643,
                    "durationTicks": 128,
                    "midi": 68,
                    "name": "G#4",
                    "ticks": 9792,
                    "time": 51,
                    "velocity": 1
                },
                {
                    "duration": 0.1666666666666643,
                    "durationTicks": 32,
                    "midi": 67,
                    "name": "G4",
                    "ticks": 9936,
                    "time": 51.75,
                    "velocity": 1
                },
                {
                    "duration": 1,
                    "durationTicks": 192,
                    "midi": 67,
                    "name": "G4",
                    "ticks": 9984,
                    "time": 52,
                    "velocity": 1
                },
                {
                    "duration": 0.6666666666666643,
                    "durationTicks": 128,
                    "midi": 67,
                    "name": "G4",
                    "ticks": 10368,
                    "time": 54,
                    "velocity": 1
                },
                {
                    "duration": 0.1666666666666643,
                    "durationTicks": 32,
                    "midi": 67,
                    "name": "G4",
                    "ticks": 10512,
                    "time": 54.75,
                    "velocity": 1
                },
                {
                    "duration": 0.9166666666666643,
                    "durationTicks": 176,
                    "midi": 67,
                    "name": "G4",
                    "ticks": 10560,
                    "time": 55,
                    "velocity": 1
                },
                {
                    "duration": 0.9166666666666643,
                    "durationTicks": 176,
                    "midi": 72,
                    "name": "C5",
                    "ticks": 10752,
                    "time": 56,
                    "velocity": 1
                },
                {
                    "duration": 0.6666666666666643,
                    "durationTicks": 128,
                    "midi": 70,
                    "name": "A#4",
                    "ticks": 10944,
                    "time": 57,
                    "velocity": 1
                },
                {
                    "duration": 0.1666666666666643,
                    "durationTicks": 32,
                    "midi": 69,
                    "name": "A4",
                    "ticks": 11088,
                    "time": 57.75,
                    "velocity": 1
                },
                {
                    "duration": 1.4166666666666643,
                    "durationTicks": 272,
                    "midi": 69,
                    "name": "A4",
                    "ticks": 11136,
                    "time": 58,
                    "velocity": 1
                },
                {
                    "duration": 1.4166666666666643,
                    "durationTicks": 272,
                    "midi": 74,
                    "name": "D5",
                    "ticks": 11520,
                    "time": 60,
                    "velocity": 1
                },
                {
                    "duration": 0.4166666666666643,
                    "durationTicks": 80,
                    "midi": 74,
                    "name": "D5",
                    "ticks": 11808,
                    "time": 61.5,
                    "velocity": 1
                },
                {
                    "duration": 0.4166666666666643,
                    "durationTicks": 80,
                    "midi": 75,
                    "name": "D#5",
                    "ticks": 11904,
                    "time": 62,
                    "velocity": 1
                },
                {
                    "duration": 0.4166666666666643,
                    "durationTicks": 80,
                    "midi": 72,
                    "name": "C5",
                    "ticks": 12000,
                    "time": 62.5,
                    "velocity": 1
                },
                {
                    "duration": 1.9166666666666714,
                    "durationTicks": 368,
                    "midi": 70,
                    "name": "A#4",
                    "ticks": 12096,
                    "time": 63,
                    "velocity": 1
                },
                {
                    "duration": 0.9166666666666714,
                    "durationTicks": 176,
                    "midi": 69,
                    "name": "A4",
                    "ticks": 12480,
                    "time": 65,
                    "velocity": 1
                },
                {
                    "duration": 1.9166666666666714,
                    "durationTicks": 368,
                    "midi": 70,
                    "name": "A#4",
                    "ticks": 12672,
                    "time": 66,
                    "velocity": 1
                },
                {
                    "duration": 0.9166666666666714,
                    "durationTicks": 176,
                    "midi": 72,
                    "name": "C5",
                    "ticks": 13056,
                    "time": 68,
                    "velocity": 1
                },
                {
                    "duration": 0.9166666666666714,
                    "durationTicks": 176,
                    "midi": 74,
                    "name": "D5",
                    "ticks": 13248,
                    "time": 69,
                    "velocity": 1
                },
                {
                    "duration": 0.4166666666666714,
                    "durationTicks": 80,
                    "midi": 74,
                    "name": "D5",
                    "ticks": 13536,
                    "time": 70.5,
                    "velocity": 1
                },
                {
                    "duration": 0.4166666666666714,
                    "durationTicks": 80,
                    "midi": 75,
                    "name": "D#5",
                    "ticks": 13632,
                    "time": 71,
                    "velocity": 1
                },
                {
                    "duration": 0.4166666666666714,
                    "durationTicks": 80,
                    "midi": 72,
                    "name": "C5",
                    "ticks": 13728,
                    "time": 71.5,
                    "velocity": 1
                },
                {
                    "duration": 1.9166666666666714,
                    "durationTicks": 368,
                    "midi": 70,
                    "name": "A#4",
                    "ticks": 13824,
                    "time": 72,
                    "velocity": 1
                },
                {
                    "duration": 0.9166666666666714,
                    "durationTicks": 176,
                    "midi": 70,
                    "name": "A#4",
                    "ticks": 14208,
                    "time": 74,
                    "velocity": 1
                },
                {
                    "duration": 0.9166666666666714,
                    "durationTicks": 176,
                    "midi": 70,
                    "name": "A#4",
                    "ticks": 14400,
                    "time": 75,
                    "velocity": 1
                },
                {
                    "duration": 0.4166666666666714,
                    "durationTicks": 80,
                    "midi": 69,
                    "name": "A4",
                    "ticks": 14592,
                    "time": 76,
                    "velocity": 1
                },
                {
                    "duration": 0.4166666666666714,
                    "durationTicks": 80,
                    "midi": 67,
                    "name": "G4",
                    "ticks": 14688,
                    "time": 76.5,
                    "velocity": 1
                },
                {
                    "duration": 0.9166666666666714,
                    "durationTicks": 176,
                    "midi": 69,
                    "name": "A4",
                    "ticks": 14784,
                    "time": 77,
                    "velocity": 1
                },
                {
                    "duration": 2.9166666666666714,
                    "durationTicks": 560,
                    "midi": 70,
                    "name": "A#4",
                    "ticks": 14976,
                    "time": 78,
                    "velocity": 1
                }
            ],
            "endOfTrackTicks": 15536
        },
        {
            "channel": 12,
            "controlChanges": {
                "7": [
                    {
                        "number": 7,
                        "ticks": 0,
                        "time": 0,
                        "value": 0.6299212598425197
                    }
                ]
            },
            "pitchBends": [],
            "instrument": {
                "family": "organ",
                "number": 18,
                "name": "rock organ"
            },
            "name": "New Track           ",
            "notes": [
                {
                    "duration": 0.6666666666666666,
                    "durationTicks": 128,
                    "midi": 65,
                    "name": "F4",
                    "ticks": 0,
                    "time": 0,
                    "velocity": 0.7874015748031497
                },
                {
                    "duration": 0.6666666666666666,
                    "durationTicks": 128,
                    "midi": 62,
                    "name": "D4",
                    "ticks": 0,
                    "time": 0,
                    "velocity": 0.7874015748031497
                },
                {
                    "duration": 0.16666666666666663,
                    "durationTicks": 32,
                    "midi": 65,
                    "name": "F4",
                    "ticks": 144,
                    "time": 0.75,
                    "velocity": 0.7874015748031497
                },
                {
                    "duration": 0.16666666666666663,
                    "durationTicks": 32,
                    "midi": 62,
                    "name": "D4",
                    "ticks": 144,
                    "time": 0.75,
                    "velocity": 0.7874015748031497
                },
                {
                    "duration": 0.9166666666666667,
                    "durationTicks": 176,
                    "midi": 65,
                    "name": "F4",
                    "ticks": 192,
                    "time": 1,
                    "velocity": 0.7874015748031497
                },
                {
                    "duration": 0.9166666666666667,
                    "durationTicks": 176,
                    "midi": 62,
                    "name": "D4",
                    "ticks": 192,
                    "time": 1,
                    "velocity": 0.7874015748031497
                },
                {
                    "duration": 0.9166666666666665,
                    "durationTicks": 176,
                    "midi": 70,
                    "name": "A#4",
                    "ticks": 384,
                    "time": 2,
                    "velocity": 0.7874015748031497
                },
                {
                    "duration": 0.9166666666666665,
                    "durationTicks": 176,
                    "midi": 62,
                    "name": "D4",
                    "ticks": 384,
                    "time": 2,
                    "velocity": 0.7874015748031497
                },
                {
                    "duration": 0.6666666666666665,
                    "durationTicks": 128,
                    "midi": 63,
                    "name": "D#4",
                    "ticks": 576,
                    "time": 3,
                    "velocity": 0.7874015748031497
                },
                {
                    "duration": 0.6666666666666665,
                    "durationTicks": 128,
                    "midi": 70,
                    "name": "A#4",
                    "ticks": 576,
                    "time": 3,
                    "velocity": 0.7874015748031497
                },
                {
                    "duration": 0.16666666666666652,
                    "durationTicks": 32,
                    "midi": 69,
                    "name": "A4",
                    "ticks": 720,
                    "time": 3.75,
                    "velocity": 0.7874015748031497
                },
                {
                    "duration": 1.416666666666667,
                    "durationTicks": 272,
                    "midi": 63,
                    "name": "D#4",
                    "ticks": 768,
                    "time": 4,
                    "velocity": 0.7874015748031497
                },
                {
                    "duration": 1.416666666666667,
                    "durationTicks": 272,
                    "midi": 69,
                    "name": "A4",
                    "ticks": 768,
                    "time": 4,
                    "velocity": 0.7874015748031497
                },
                {
                    "duration": 0.666666666666667,
                    "durationTicks": 128,
                    "midi": 63,
                    "name": "D#4",
                    "ticks": 1152,
                    "time": 6,
                    "velocity": 0.7874015748031497
                },
                {
                    "duration": 0.666666666666667,
                    "durationTicks": 128,
                    "midi": 60,
                    "name": "C4",
                    "ticks": 1152,
                    "time": 6,
                    "velocity": 0.7874015748031497
                },
                {
                    "duration": 0.666666666666667,
                    "durationTicks": 128,
                    "midi": 65,
                    "name": "F4",
                    "ticks": 1152,
                    "time": 6,
                    "velocity": 0.7874015748031497
                },
                {
                    "duration": 0.16666666666666696,
                    "durationTicks": 32,
                    "midi": 65,
                    "name": "F4",
                    "ticks": 1296,
                    "time": 6.75,
                    "velocity": 0.7874015748031497
                },
                {
                    "duration": 0.16666666666666696,
                    "durationTicks": 32,
                    "midi": 63,
                    "name": "D#4",
                    "ticks": 1296,
                    "time": 6.75,
                    "velocity": 0.7874015748031497
                },
                {
                    "duration": 0.16666666666666696,
                    "durationTicks": 32,
                    "midi": 60,
                    "name": "C4",
                    "ticks": 1296,
                    "time": 6.75,
                    "velocity": 0.7874015748031497
                },
                {
                    "duration": 0.916666666666667,
                    "durationTicks": 176,
                    "midi": 65,
                    "name": "F4",
                    "ticks": 1344,
                    "time": 7,
                    "velocity": 0.7874015748031497
                },
                {
                    "duration": 0.916666666666667,
                    "durationTicks": 176,
                    "midi": 63,
                    "name": "D#4",
                    "ticks": 1344,
                    "time": 7,
                    "velocity": 0.7874015748031497
                },
                {
                    "duration": 0.916666666666667,
                    "durationTicks": 176,
                    "midi": 60,
                    "name": "C4",
                    "ticks": 1344,
                    "time": 7,
                    "velocity": 0.7874015748031497
                },
                {
                    "duration": 0.9166666666666661,
                    "durationTicks": 176,
                    "midi": 72,
                    "name": "C5",
                    "ticks": 1536,
                    "time": 8,
                    "velocity": 0.7874015748031497
                },
                {
                    "duration": 0.9166666666666661,
                    "durationTicks": 176,
                    "midi": 63,
                    "name": "D#4",
                    "ticks": 1536,
                    "time": 8,
                    "velocity": 0.7874015748031497
                },
                {
                    "duration": 0.6666666666666661,
                    "durationTicks": 128,
                    "midi": 63,
                    "name": "D#4",
                    "ticks": 1728,
                    "time": 9,
                    "velocity": 0.7874015748031497
                },
                {
                    "duration": 0.6666666666666661,
                    "durationTicks": 128,
                    "midi": 72,
                    "name": "C5",
                    "ticks": 1728,
                    "time": 9,
                    "velocity": 0.7874015748031497
                },
                {
                    "duration": 0.16666666666666607,
                    "durationTicks": 32,
                    "midi": 70,
                    "name": "A#4",
                    "ticks": 1872,
                    "time": 9.75,
                    "velocity": 0.7874015748031497
                },
                {
                    "duration": 0.16666666666666607,
                    "durationTicks": 32,
                    "midi": 62,
                    "name": "D4",
                    "ticks": 1872,
                    "time": 9.75,
                    "velocity": 0.7874015748031497
                },
                {
                    "duration": 1,
                    "durationTicks": 192,
                    "midi": 70,
                    "name": "A#4",
                    "ticks": 1920,
                    "time": 10,
                    "velocity": 0.7874015748031497
                },
                {
                    "duration": 1,
                    "durationTicks": 192,
                    "midi": 62,
                    "name": "D4",
                    "ticks": 1920,
                    "time": 10,
                    "velocity": 0.7874015748031497
                },
                {
                    "duration": 1.416666666666666,
                    "durationTicks": 272,
                    "midi": 74,
                    "name": "D5",
                    "ticks": 2304,
                    "time": 12,
                    "velocity": 0.7874015748031497
                },
                {
                    "duration": 1.416666666666666,
                    "durationTicks": 272,
                    "midi": 70,
                    "name": "A#4",
                    "ticks": 2304,
                    "time": 12,
                    "velocity": 0.7874015748031497
                },
                {
                    "duration": 0.4166666666666661,
                    "durationTicks": 80,
                    "midi": 74,
                    "name": "D5",
                    "ticks": 2592,
                    "time": 13.5,
                    "velocity": 0.7874015748031497
                },
                {
                    "duration": 0.4166666666666661,
                    "durationTicks": 80,
                    "midi": 70,
                    "name": "A#4",
                    "ticks": 2592,
                    "time": 13.5,
                    "velocity": 0.7874015748031497
                },
                {
                    "duration": 0.4166666666666661,
                    "durationTicks": 80,
                    "midi": 72,
                    "name": "C5",
                    "ticks": 2688,
                    "time": 14,
                    "velocity": 0.7874015748031497
                },
                {
                    "duration": 0.4166666666666661,
                    "durationTicks": 80,
                    "midi": 65,
                    "name": "F4",
                    "ticks": 2688,
                    "time": 14,
                    "velocity": 0.7874015748031497
                },
                {
                    "duration": 0.4166666666666661,
                    "durationTicks": 80,
                    "midi": 60,
                    "name": "C4",
                    "ticks": 2784,
                    "time": 14.5,
                    "velocity": 0.7874015748031497
                },
                {
                    "duration": 0.4166666666666661,
                    "durationTicks": 80,
                    "midi": 72,
                    "name": "C5",
                    "ticks": 2784,
                    "time": 14.5,
                    "velocity": 0.7874015748031497
                },
                {
                    "duration": 1.4166666666666679,
                    "durationTicks": 272,
                    "midi": 72,
                    "name": "C5",
                    "ticks": 2880,
                    "time": 15,
                    "velocity": 0.7874015748031497
                },
                {
                    "duration": 1.9166666666666679,
                    "durationTicks": 368,
                    "midi": 64,
                    "name": "E4",
                    "ticks": 2880,
                    "time": 15,
                    "velocity": 0.7874015748031497
                },
                {
                    "duration": 0.41666666666666785,
                    "durationTicks": 80,
                    "midi": 70,
                    "name": "A#4",
                    "ticks": 3168,
                    "time": 16.5,
                    "velocity": 0.7874015748031497
                },
                {
                    "duration": 0.9166666666666679,
                    "durationTicks": 176,
                    "midi": 60,
                    "name": "C4",
                    "ticks": 3264,
                    "time": 17,
                    "velocity": 0.7874015748031497
                },
                {
                    "duration": 0.9166666666666679,
                    "durationTicks": 176,
                    "midi": 69,
                    "name": "A4",
                    "ticks": 3264,
                    "time": 17,
                    "velocity": 0.7874015748031497
                },
                {
                    "duration": 0.9166666666666679,
                    "durationTicks": 176,
                    "midi": 65,
                    "name": "F4",
                    "ticks": 3264,
                    "time": 17,
                    "velocity": 0.7874015748031497
                },
                {
                    "duration": 1.9166666666666679,
                    "durationTicks": 368,
                    "midi": 62,
                    "name": "D4",
                    "ticks": 3456,
                    "time": 18,
                    "velocity": 0.7874015748031497
                },
                {
                    "duration": 1.9166666666666679,
                    "durationTicks": 368,
                    "midi": 67,
                    "name": "G4",
                    "ticks": 3456,
                    "time": 18,
                    "velocity": 0.7874015748031497
                },
                {
                    "duration": 0.41666666666666785,
                    "durationTicks": 80,
                    "midi": 60,
                    "name": "C4",
                    "ticks": 3840,
                    "time": 20,
                    "velocity": 0.7874015748031497
                },
                {
                    "duration": 0.9166666666666679,
                    "durationTicks": 176,
                    "midi": 64,
                    "name": "E4",
                    "ticks": 3840,
                    "time": 20,
                    "velocity": 0.7874015748031497
                },
                {
                    "duration": 0.41666666666666785,
                    "durationTicks": 80,
                    "midi": 58,
                    "name": "A#3",
                    "ticks": 3936,
                    "time": 20.5,
                    "velocity": 0.7874015748031497
                },
                {
                    "duration": 2.416666666666668,
                    "durationTicks": 464,
                    "midi": 57,
                    "name": "A3",
                    "ticks": 4032,
                    "time": 21,
                    "velocity": 0.7874015748031497
                },
                {
                    "duration": 2.416666666666668,
                    "durationTicks": 464,
                    "midi": 65,
                    "name": "F4",
                    "ticks": 4032,
                    "time": 21,
                    "velocity": 0.7874015748031497
                },
                {
                    "duration": 0.6666666666666679,
                    "durationTicks": 128,
                    "midi": 69,
                    "name": "A4",
                    "ticks": 4608,
                    "time": 24,
                    "velocity": 0.7874015748031497
                },
                {
                    "duration": 0.6666666666666679,
                    "durationTicks": 128,
                    "midi": 60,
                    "name": "C4",
                    "ticks": 4608,
                    "time": 24,
                    "velocity": 0.7874015748031497
                },
                {
                    "duration": 0.16666666666666785,
                    "durationTicks": 32,
                    "midi": 69,
                    "name": "A4",
                    "ticks": 4752,
                    "time": 24.75,
                    "velocity": 0.7874015748031497
                },
                {
                    "duration": 0.16666666666666785,
                    "durationTicks": 32,
                    "midi": 60,
                    "name": "C4",
                    "ticks": 4752,
                    "time": 24.75,
                    "velocity": 0.7874015748031497
                },
                {
                    "duration": 0.9166666666666679,
                    "durationTicks": 176,
                    "midi": 60,
                    "name": "C4",
                    "ticks": 4800,
                    "time": 25,
                    "velocity": 0.7874015748031497
                },
                {
                    "duration": 0.9166666666666679,
                    "durationTicks": 176,
                    "midi": 69,
                    "name": "A4",
                    "ticks": 4800,
                    "time": 25,
                    "velocity": 0.7874015748031497
                },
                {
                    "duration": 0.9166666666666679,
                    "durationTicks": 176,
                    "midi": 69,
                    "name": "A4",
                    "ticks": 4992,
                    "time": 26,
                    "velocity": 0.7874015748031497
                },
                {
                    "duration": 0.9166666666666679,
                    "durationTicks": 176,
                    "midi": 63,
                    "name": "D#4",
                    "ticks": 4992,
                    "time": 26,
                    "velocity": 0.7874015748031497
                },
                {
                    "duration": 1.4166666666666679,
                    "durationTicks": 272,
                    "midi": 70,
                    "name": "A#4",
                    "ticks": 5184,
                    "time": 27,
                    "velocity": 0.7874015748031497
                },
                {
                    "duration": 1.9166666666666679,
                    "durationTicks": 368,
                    "midi": 62,
                    "name": "D4",
                    "ticks": 5184,
                    "time": 27,
                    "velocity": 0.7874015748031497
                },
                {
                    "duration": 0.41666666666666785,
                    "durationTicks": 80,
                    "midi": 69,
                    "name": "A4",
                    "ticks": 5472,
                    "time": 28.5,
                    "velocity": 0.7874015748031497
                },
                {
                    "duration": 0.9166666666666679,
                    "durationTicks": 176,
                    "midi": 58,
                    "name": "A#3",
                    "ticks": 5568,
                    "time": 29,
                    "velocity": 0.7874015748031497
                },
                {
                    "duration": 0.41666666666666785,
                    "durationTicks": 80,
                    "midi": 67,
                    "name": "G4",
                    "ticks": 5568,
                    "time": 29,
                    "velocity": 0.7874015748031497
                },
                {
                    "duration": 0.41666666666666785,
                    "durationTicks": 80,
                    "midi": 63,
                    "name": "D#4",
                    "ticks": 5568,
                    "time": 29,
                    "velocity": 0.7874015748031497
                },
                {
                    "duration": 0.41666666666666785,
                    "durationTicks": 80,
                    "midi": 65,
                    "name": "F4",
                    "ticks": 5664,
                    "time": 29.5,
                    "velocity": 0.7874015748031497
                },
                {
                    "duration": 0.41666666666666785,
                    "durationTicks": 80,
                    "midi": 62,
                    "name": "D4",
                    "ticks": 5664,
                    "time": 29.5,
                    "velocity": 0.7874015748031497
                },
                {
                    "duration": 0.9166666666666679,
                    "durationTicks": 176,
                    "midi": 65,
                    "name": "F4",
                    "ticks": 5760,
                    "time": 30,
                    "velocity": 0.7874015748031497
                },
                {
                    "duration": 1.4166666666666679,
                    "durationTicks": 272,
                    "midi": 60,
                    "name": "C4",
                    "ticks": 5760,
                    "time": 30,
                    "velocity": 0.7874015748031497
                },
                {
                    "duration": 1.4166666666666679,
                    "durationTicks": 272,
                    "midi": 57,
                    "name": "A3",
                    "ticks": 5760,
                    "time": 30,
                    "velocity": 0.7874015748031497
                },
                {
                    "duration": 0.9166666666666679,
                    "durationTicks": 176,
                    "midi": 63,
                    "name": "D#4",
                    "ticks": 5952,
                    "time": 31,
                    "velocity": 0.7874015748031497
                },
                {
                    "duration": 0.9166666666666643,
                    "durationTicks": 176,
                    "midi": 58,
                    "name": "A#3",
                    "ticks": 6144,
                    "time": 32,
                    "velocity": 0.7874015748031497
                },
                {
                    "duration": 0.9166666666666643,
                    "durationTicks": 176,
                    "midi": 62,
                    "name": "D4",
                    "ticks": 6144,
                    "time": 32,
                    "velocity": 0.7874015748031497
                },
                {
                    "duration": 2,
                    "durationTicks": 384,
                    "midi": 57,
                    "name": "A3",
                    "ticks": 6336,
                    "time": 33,
                    "velocity": 0.7874015748031497
                },
                {
                    "duration": 2,
                    "durationTicks": 384,
                    "midi": 60,
                    "name": "C4",
                    "ticks": 6336,
                    "time": 33,
                    "velocity": 0.7874015748031497
                },
                {
                    "duration": 2,
                    "durationTicks": 384,
                    "midi": 65,
                    "name": "F4",
                    "ticks": 6336,
                    "time": 33,
                    "velocity": 0.7874015748031497
                },
                {
                    "duration": 0.6666666666666643,
                    "durationTicks": 128,
                    "midi": 60,
                    "name": "C4",
                    "ticks": 6912,
                    "time": 36,
                    "velocity": 0.7874015748031497
                },
                {
                    "duration": 0.6666666666666643,
                    "durationTicks": 128,
                    "midi": 69,
                    "name": "A4",
                    "ticks": 6912,
                    "time": 36,
                    "velocity": 0.7874015748031497
                },
                {
                    "duration": 0.1666666666666643,
                    "durationTicks": 32,
                    "midi": 69,
                    "name": "A4",
                    "ticks": 7056,
                    "time": 36.75,
                    "velocity": 0.7874015748031497
                },
                {
                    "duration": 0.1666666666666643,
                    "durationTicks": 32,
                    "midi": 60,
                    "name": "C4",
                    "ticks": 7056,
                    "time": 36.75,
                    "velocity": 0.7874015748031497
                },
                {
                    "duration": 0.9166666666666643,
                    "durationTicks": 176,
                    "midi": 69,
                    "name": "A4",
                    "ticks": 7104,
                    "time": 37,
                    "velocity": 0.7874015748031497
                },
                {
                    "duration": 0.9166666666666643,
                    "durationTicks": 176,
                    "midi": 60,
                    "name": "C4",
                    "ticks": 7104,
                    "time": 37,
                    "velocity": 0.7874015748031497
                },
                {
                    "duration": 0.9166666666666643,
                    "durationTicks": 176,
                    "midi": 65,
                    "name": "F4",
                    "ticks": 7296,
                    "time": 38,
                    "velocity": 0.7874015748031497
                },
                {
                    "duration": 0.9166666666666643,
                    "durationTicks": 176,
                    "midi": 69,
                    "name": "A4",
                    "ticks": 7296,
                    "time": 38,
                    "velocity": 0.7874015748031497
                },
                {
                    "duration": 1.4166666666666643,
                    "durationTicks": 272,
                    "midi": 70,
                    "name": "A#4",
                    "ticks": 7488,
                    "time": 39,
                    "velocity": 0.7874015748031497
                },
                {
                    "duration": 1.9166666666666643,
                    "durationTicks": 368,
                    "midi": 65,
                    "name": "F4",
                    "ticks": 7488,
                    "time": 39,
                    "velocity": 0.7874015748031497
                },
                {
                    "duration": 0.4166666666666643,
                    "durationTicks": 80,
                    "midi": 72,
                    "name": "C5",
                    "ticks": 7776,
                    "time": 40.5,
                    "velocity": 0.7874015748031497
                },
                {
                    "duration": 0.9166666666666643,
                    "durationTicks": 176,
                    "midi": 74,
                    "name": "D5",
                    "ticks": 7872,
                    "time": 41,
                    "velocity": 0.7874015748031497
                },
                {
                    "duration": 0.9166666666666643,
                    "durationTicks": 176,
                    "midi": 65,
                    "name": "F4",
                    "ticks": 7872,
                    "time": 41,
                    "velocity": 0.7874015748031497
                },
                {
                    "duration": 1.9166666666666643,
                    "durationTicks": 368,
                    "midi": 72,
                    "name": "C5",
                    "ticks": 8064,
                    "time": 42,
                    "velocity": 0.7874015748031497
                },
                {
                    "duration": 0.9166666666666643,
                    "durationTicks": 176,
                    "midi": 65,
                    "name": "F4",
                    "ticks": 8064,
                    "time": 42,
                    "velocity": 0.7874015748031497
                },
                {
                    "duration": 0.9166666666666643,
                    "durationTicks": 176,
                    "midi": 63,
                    "name": "D#4",
                    "ticks": 8256,
                    "time": 43,
                    "velocity": 0.7874015748031497
                },
                {
                    "duration": 0.9166666666666643,
                    "durationTicks": 176,
                    "midi": 62,
                    "name": "D4",
                    "ticks": 8448,
                    "time": 44,
                    "velocity": 0.7874015748031497
                },
                {
                    "duration": 0.9166666666666643,
                    "durationTicks": 176,
                    "midi": 70,
                    "name": "A#4",
                    "ticks": 8448,
                    "time": 44,
                    "velocity": 0.7874015748031497
                },
                {
                    "duration": 2,
                    "durationTicks": 384,
                    "midi": 60,
                    "name": "C4",
                    "ticks": 8640,
                    "time": 45,
                    "velocity": 0.7874015748031497
                },
                {
                    "duration": 2,
                    "durationTicks": 384,
                    "midi": 69,
                    "name": "A4",
                    "ticks": 8640,
                    "time": 45,
                    "velocity": 0.7874015748031497
                },
                {
                    "duration": 0.6666666666666643,
                    "durationTicks": 128,
                    "midi": 62,
                    "name": "D4",
                    "ticks": 9216,
                    "time": 48,
                    "velocity": 0.7874015748031497
                },
                {
                    "duration": 0.6666666666666643,
                    "durationTicks": 128,
                    "midi": 65,
                    "name": "F4",
                    "ticks": 9216,
                    "time": 48,
                    "velocity": 0.7874015748031497
                },
                {
                    "duration": 0.1666666666666643,
                    "durationTicks": 32,
                    "midi": 62,
                    "name": "D4",
                    "ticks": 9360,
                    "time": 48.75,
                    "velocity": 0.7874015748031497
                },
                {
                    "duration": 0.1666666666666643,
                    "durationTicks": 32,
                    "midi": 65,
                    "name": "F4",
                    "ticks": 9360,
                    "time": 48.75,
                    "velocity": 0.7874015748031497
                },
                {
                    "duration": 0.9166666666666643,
                    "durationTicks": 176,
                    "midi": 62,
                    "name": "D4",
                    "ticks": 9408,
                    "time": 49,
                    "velocity": 0.7874015748031497
                },
                {
                    "duration": 0.9166666666666643,
                    "durationTicks": 176,
                    "midi": 65,
                    "name": "F4",
                    "ticks": 9408,
                    "time": 49,
                    "velocity": 0.7874015748031497
                },
                {
                    "duration": 0.9166666666666643,
                    "durationTicks": 176,
                    "midi": 70,
                    "name": "A#4",
                    "ticks": 9600,
                    "time": 50,
                    "velocity": 0.7874015748031497
                },
                {
                    "duration": 0.9166666666666643,
                    "durationTicks": 176,
                    "midi": 58,
                    "name": "A#3",
                    "ticks": 9600,
                    "time": 50,
                    "velocity": 0.7874015748031497
                },
                {
                    "duration": 0.6666666666666643,
                    "durationTicks": 128,
                    "midi": 68,
                    "name": "G#4",
                    "ticks": 9792,
                    "time": 51,
                    "velocity": 0.7874015748031497
                },
                {
                    "duration": 0.6666666666666643,
                    "durationTicks": 128,
                    "midi": 58,
                    "name": "A#3",
                    "ticks": 9792,
                    "time": 51,
                    "velocity": 0.7874015748031497
                },
                {
                    "duration": 0.6666666666666643,
                    "durationTicks": 128,
                    "midi": 65,
                    "name": "F4",
                    "ticks": 9792,
                    "time": 51,
                    "velocity": 0.7874015748031497
                },
                {
                    "duration": 0.1666666666666643,
                    "durationTicks": 32,
                    "midi": 67,
                    "name": "G4",
                    "ticks": 9936,
                    "time": 51.75,
                    "velocity": 0.7874015748031497
                },
                {
                    "duration": 0.1666666666666643,
                    "durationTicks": 32,
                    "midi": 63,
                    "name": "D#4",
                    "ticks": 9936,
                    "time": 51.75,
                    "velocity": 0.7874015748031497
                },
                {
                    "duration": 0.1666666666666643,
                    "durationTicks": 32,
                    "midi": 58,
                    "name": "A#3",
                    "ticks": 9936,
                    "time": 51.75,
                    "velocity": 0.7874015748031497
                },
                {
                    "duration": 1,
                    "durationTicks": 192,
                    "midi": 58,
                    "name": "A#3",
                    "ticks": 9984,
                    "time": 52,
                    "velocity": 0.7874015748031497
                },
                {
                    "duration": 1,
                    "durationTicks": 192,
                    "midi": 63,
                    "name": "D#4",
                    "ticks": 9984,
                    "time": 52,
                    "velocity": 0.7874015748031497
                },
                {
                    "duration": 1,
                    "durationTicks": 192,
                    "midi": 67,
                    "name": "G4",
                    "ticks": 9984,
                    "time": 52,
                    "velocity": 0.7874015748031497
                },
                {
                    "duration": 0.6666666666666643,
                    "durationTicks": 128,
                    "midi": 58,
                    "name": "A#3",
                    "ticks": 10368,
                    "time": 54,
                    "velocity": 0.7874015748031497
                },
                {
                    "duration": 0.6666666666666643,
                    "durationTicks": 128,
                    "midi": 67,
                    "name": "G4",
                    "ticks": 10368,
                    "time": 54,
                    "velocity": 0.7874015748031497
                },
                {
                    "duration": 0.6666666666666643,
                    "durationTicks": 128,
                    "midi": 63,
                    "name": "D#4",
                    "ticks": 10368,
                    "time": 54,
                    "velocity": 0.7874015748031497
                },
                {
                    "duration": 0.1666666666666643,
                    "durationTicks": 32,
                    "midi": 67,
                    "name": "G4",
                    "ticks": 10512,
                    "time": 54.75,
                    "velocity": 0.7874015748031497
                },
                {
                    "duration": 0.1666666666666643,
                    "durationTicks": 32,
                    "midi": 63,
                    "name": "D#4",
                    "ticks": 10512,
                    "time": 54.75,
                    "velocity": 0.7874015748031497
                },
                {
                    "duration": 0.1666666666666643,
                    "durationTicks": 32,
                    "midi": 58,
                    "name": "A#3",
                    "ticks": 10512,
                    "time": 54.75,
                    "velocity": 0.7874015748031497
                },
                {
                    "duration": 0.9166666666666643,
                    "durationTicks": 176,
                    "midi": 58,
                    "name": "A#3",
                    "ticks": 10560,
                    "time": 55,
                    "velocity": 0.7874015748031497
                },
                {
                    "duration": 0.9166666666666643,
                    "durationTicks": 176,
                    "midi": 63,
                    "name": "D#4",
                    "ticks": 10560,
                    "time": 55,
                    "velocity": 0.7874015748031497
                },
                {
                    "duration": 0.9166666666666643,
                    "durationTicks": 176,
                    "midi": 67,
                    "name": "G4",
                    "ticks": 10560,
                    "time": 55,
                    "velocity": 0.7874015748031497
                },
                {
                    "duration": 0.9166666666666643,
                    "durationTicks": 176,
                    "midi": 72,
                    "name": "C5",
                    "ticks": 10752,
                    "time": 56,
                    "velocity": 0.7874015748031497
                },
                {
                    "duration": 0.9166666666666643,
                    "durationTicks": 176,
                    "midi": 63,
                    "name": "D#4",
                    "ticks": 10752,
                    "time": 56,
                    "velocity": 0.7874015748031497
                },
                {
                    "duration": 0.9166666666666643,
                    "durationTicks": 176,
                    "midi": 67,
                    "name": "G4",
                    "ticks": 10752,
                    "time": 56,
                    "velocity": 0.7874015748031497
                },
                {
                    "duration": 0.6666666666666643,
                    "durationTicks": 128,
                    "midi": 70,
                    "name": "A#4",
                    "ticks": 10944,
                    "time": 57,
                    "velocity": 0.7874015748031497
                },
                {
                    "duration": 0.6666666666666643,
                    "durationTicks": 128,
                    "midi": 62,
                    "name": "D4",
                    "ticks": 10944,
                    "time": 57,
                    "velocity": 0.7874015748031497
                },
                {
                    "duration": 0.6666666666666643,
                    "durationTicks": 128,
                    "midi": 65,
                    "name": "F4",
                    "ticks": 10944,
                    "time": 57,
                    "velocity": 0.7874015748031497
                },
                {
                    "duration": 0.1666666666666643,
                    "durationTicks": 32,
                    "midi": 69,
                    "name": "A4",
                    "ticks": 11088,
                    "time": 57.75,
                    "velocity": 0.7874015748031497
                },
                {
                    "duration": 0.1666666666666643,
                    "durationTicks": 32,
                    "midi": 65,
                    "name": "F4",
                    "ticks": 11088,
                    "time": 57.75,
                    "velocity": 0.7874015748031497
                },
                {
                    "duration": 0.1666666666666643,
                    "durationTicks": 32,
                    "midi": 60,
                    "name": "C4",
                    "ticks": 11088,
                    "time": 57.75,
                    "velocity": 0.7874015748031497
                },
                {
                    "duration": 1.4166666666666643,
                    "durationTicks": 272,
                    "midi": 60,
                    "name": "C4",
                    "ticks": 11136,
                    "time": 58,
                    "velocity": 0.7874015748031497
                },
                {
                    "duration": 1.4166666666666643,
                    "durationTicks": 272,
                    "midi": 69,
                    "name": "A4",
                    "ticks": 11136,
                    "time": 58,
                    "velocity": 0.7874015748031497
                },
                {
                    "duration": 1.4166666666666643,
                    "durationTicks": 272,
                    "midi": 65,
                    "name": "F4",
                    "ticks": 11136,
                    "time": 58,
                    "velocity": 0.7874015748031497
                },
                {
                    "duration": 1.4166666666666643,
                    "durationTicks": 272,
                    "midi": 74,
                    "name": "D5",
                    "ticks": 11520,
                    "time": 60,
                    "velocity": 0.7874015748031497
                },
                {
                    "duration": 1.4166666666666643,
                    "durationTicks": 272,
                    "midi": 65,
                    "name": "F4",
                    "ticks": 11520,
                    "time": 60,
                    "velocity": 0.7874015748031497
                },
                {
                    "duration": 0.4166666666666643,
                    "durationTicks": 80,
                    "midi": 66,
                    "name": "F#4",
                    "ticks": 11808,
                    "time": 61.5,
                    "velocity": 0.7874015748031497
                },
                {
                    "duration": 0.4166666666666643,
                    "durationTicks": 80,
                    "midi": 74,
                    "name": "D5",
                    "ticks": 11808,
                    "time": 61.5,
                    "velocity": 0.7874015748031497
                },
                {
                    "duration": 0.4166666666666643,
                    "durationTicks": 80,
                    "midi": 75,
                    "name": "D#5",
                    "ticks": 11904,
                    "time": 62,
                    "velocity": 0.7874015748031497
                },
                {
                    "duration": 0.4166666666666643,
                    "durationTicks": 80,
                    "midi": 67,
                    "name": "G4",
                    "ticks": 11904,
                    "time": 62,
                    "velocity": 0.7874015748031497
                },
                {
                    "duration": 0.4166666666666643,
                    "durationTicks": 80,
                    "midi": 63,
                    "name": "D#4",
                    "ticks": 12000,
                    "time": 62.5,
                    "velocity": 0.7874015748031497
                },
                {
                    "duration": 0.4166666666666643,
                    "durationTicks": 80,
                    "midi": 72,
                    "name": "C5",
                    "ticks": 12000,
                    "time": 62.5,
                    "velocity": 0.7874015748031497
                },
                {
                    "duration": 1.9166666666666714,
                    "durationTicks": 368,
                    "midi": 62,
                    "name": "D4",
                    "ticks": 12096,
                    "time": 63,
                    "velocity": 0.7874015748031497
                },
                {
                    "duration": 1.9166666666666714,
                    "durationTicks": 368,
                    "midi": 70,
                    "name": "A#4",
                    "ticks": 12096,
                    "time": 63,
                    "velocity": 0.7874015748031497
                },
                {
                    "duration": 0.9166666666666714,
                    "durationTicks": 176,
                    "midi": 69,
                    "name": "A4",
                    "ticks": 12480,
                    "time": 65,
                    "velocity": 0.7874015748031497
                },
                {
                    "duration": 0.9166666666666714,
                    "durationTicks": 176,
                    "midi": 60,
                    "name": "C4",
                    "ticks": 12480,
                    "time": 65,
                    "velocity": 0.7874015748031497
                },
                {
                    "duration": 0.9166666666666714,
                    "durationTicks": 176,
                    "midi": 63,
                    "name": "D#4",
                    "ticks": 12480,
                    "time": 65,
                    "velocity": 0.7874015748031497
                },
                {
                    "duration": 1.9166666666666714,
                    "durationTicks": 368,
                    "midi": 70,
                    "name": "A#4",
                    "ticks": 12672,
                    "time": 66,
                    "velocity": 0.7874015748031497
                },
                {
                    "duration": 1.9166666666666714,
                    "durationTicks": 368,
                    "midi": 58,
                    "name": "A#3",
                    "ticks": 12672,
                    "time": 66,
                    "velocity": 0.7874015748031497
                },
                {
                    "duration": 1.9166666666666714,
                    "durationTicks": 368,
                    "midi": 62,
                    "name": "D4",
                    "ticks": 12672,
                    "time": 66,
                    "velocity": 0.7874015748031497
                },
                {
                    "duration": 0.9166666666666714,
                    "durationTicks": 176,
                    "midi": 60,
                    "name": "C4",
                    "ticks": 13056,
                    "time": 68,
                    "velocity": 0.7874015748031497
                },
                {
                    "duration": 0.9166666666666714,
                    "durationTicks": 176,
                    "midi": 72,
                    "name": "C5",
                    "ticks": 13056,
                    "time": 68,
                    "velocity": 0.7874015748031497
                },
                {
                    "duration": 0.9166666666666714,
                    "durationTicks": 176,
                    "midi": 65,
                    "name": "F4",
                    "ticks": 13056,
                    "time": 68,
                    "velocity": 0.7874015748031497
                },
                {
                    "duration": 1.4166666666666714,
                    "durationTicks": 272,
                    "midi": 74,
                    "name": "D5",
                    "ticks": 13248,
                    "time": 69,
                    "velocity": 0.7874015748031497
                },
                {
                    "duration": 1.4166666666666714,
                    "durationTicks": 272,
                    "midi": 70,
                    "name": "A#4",
                    "ticks": 13248,
                    "time": 69,
                    "velocity": 0.7874015748031497
                },
                {
                    "duration": 1.4166666666666714,
                    "durationTicks": 272,
                    "midi": 65,
                    "name": "F4",
                    "ticks": 13248,
                    "time": 69,
                    "velocity": 0.7874015748031497
                },
                {
                    "duration": 0.4166666666666714,
                    "durationTicks": 80,
                    "midi": 66,
                    "name": "F#4",
                    "ticks": 13536,
                    "time": 70.5,
                    "velocity": 0.7874015748031497
                },
                {
                    "duration": 0.4166666666666714,
                    "durationTicks": 80,
                    "midi": 70,
                    "name": "A#4",
                    "ticks": 13536,
                    "time": 70.5,
                    "velocity": 0.7874015748031497
                },
                {
                    "duration": 0.4166666666666714,
                    "durationTicks": 80,
                    "midi": 74,
                    "name": "D5",
                    "ticks": 13536,
                    "time": 70.5,
                    "velocity": 0.7874015748031497
                },
                {
                    "duration": 0.4166666666666714,
                    "durationTicks": 80,
                    "midi": 75,
                    "name": "D#5",
                    "ticks": 13632,
                    "time": 71,
                    "velocity": 0.7874015748031497
                },
                {
                    "duration": 0.4166666666666714,
                    "durationTicks": 80,
                    "midi": 67,
                    "name": "G4",
                    "ticks": 13632,
                    "time": 71,
                    "velocity": 0.7874015748031497
                },
                {
                    "duration": 0.4166666666666714,
                    "durationTicks": 80,
                    "midi": 72,
                    "name": "C5",
                    "ticks": 13728,
                    "time": 71.5,
                    "velocity": 0.7874015748031497
                },
                {
                    "duration": 0.4166666666666714,
                    "durationTicks": 80,
                    "midi": 63,
                    "name": "D#4",
                    "ticks": 13728,
                    "time": 71.5,
                    "velocity": 0.7874015748031497
                },
                {
                    "duration": 0.4166666666666714,
                    "durationTicks": 80,
                    "midi": 67,
                    "name": "G4",
                    "ticks": 13728,
                    "time": 71.5,
                    "velocity": 0.7874015748031497
                },
                {
                    "duration": 1.9166666666666714,
                    "durationTicks": 368,
                    "midi": 62,
                    "name": "D4",
                    "ticks": 13824,
                    "time": 72,
                    "velocity": 0.7874015748031497
                },
                {
                    "duration": 1.9166666666666714,
                    "durationTicks": 368,
                    "midi": 65,
                    "name": "F4",
                    "ticks": 13824,
                    "time": 72,
                    "velocity": 0.7874015748031497
                },
                {
                    "duration": 1.9166666666666714,
                    "durationTicks": 368,
                    "midi": 70,
                    "name": "A#4",
                    "ticks": 13824,
                    "time": 72,
                    "velocity": 0.7874015748031497
                },
                {
                    "duration": 0.9166666666666714,
                    "durationTicks": 176,
                    "midi": 61,
                    "name": "C#4",
                    "ticks": 14208,
                    "time": 74,
                    "velocity": 0.7874015748031497
                },
                {
                    "duration": 0.9166666666666714,
                    "durationTicks": 176,
                    "midi": 70,
                    "name": "A#4",
                    "ticks": 14208,
                    "time": 74,
                    "velocity": 0.7874015748031497
                },
                {
                    "duration": 0.9166666666666714,
                    "durationTicks": 176,
                    "midi": 65,
                    "name": "F4",
                    "ticks": 14208,
                    "time": 74,
                    "velocity": 0.7874015748031497
                },
                {
                    "duration": 1.9166666666666714,
                    "durationTicks": 368,
                    "midi": 65,
                    "name": "F4",
                    "ticks": 14400,
                    "time": 75,
                    "velocity": 0.7874015748031497
                },
                {
                    "duration": 1.9166666666666714,
                    "durationTicks": 368,
                    "midi": 60,
                    "name": "C4",
                    "ticks": 14400,
                    "time": 75,
                    "velocity": 0.7874015748031497
                },
                {
                    "duration": 0.9166666666666714,
                    "durationTicks": 176,
                    "midi": 70,
                    "name": "A#4",
                    "ticks": 14400,
                    "time": 75,
                    "velocity": 0.7874015748031497
                },
                {
                    "duration": 0.4166666666666714,
                    "durationTicks": 80,
                    "midi": 69,
                    "name": "A4",
                    "ticks": 14592,
                    "time": 76,
                    "velocity": 0.7874015748031497
                },
                {
                    "duration": 0.4166666666666714,
                    "durationTicks": 80,
                    "midi": 67,
                    "name": "G4",
                    "ticks": 14688,
                    "time": 76.5,
                    "velocity": 0.7874015748031497
                },
                {
                    "duration": 0.9166666666666714,
                    "durationTicks": 176,
                    "midi": 63,
                    "name": "D#4",
                    "ticks": 14784,
                    "time": 77,
                    "velocity": 0.7874015748031497
                },
                {
                    "duration": 0.9166666666666714,
                    "durationTicks": 176,
                    "midi": 69,
                    "name": "A4",
                    "ticks": 14784,
                    "time": 77,
                    "velocity": 0.7874015748031497
                },
                {
                    "duration": 0.9166666666666714,
                    "durationTicks": 176,
                    "midi": 65,
                    "name": "F4",
                    "ticks": 14784,
                    "time": 77,
                    "velocity": 0.7874015748031497
                },
                {
                    "duration": 2.9166666666666714,
                    "durationTicks": 560,
                    "midi": 62,
                    "name": "D4",
                    "ticks": 14976,
                    "time": 78,
                    "velocity": 0.7874015748031497
                },
                {
                    "duration": 2.9166666666666714,
                    "durationTicks": 560,
                    "midi": 70,
                    "name": "A#4",
                    "ticks": 14976,
                    "time": 78,
                    "velocity": 0.7874015748031497
                },
                {
                    "duration": 2.9166666666666714,
                    "durationTicks": 560,
                    "midi": 65,
                    "name": "F4",
                    "ticks": 14976,
                    "time": 78,
                    "velocity": 0.7874015748031497
                }
            ],
            "endOfTrackTicks": 15536
        },
        {
            "channel": 13,
            "controlChanges": {
                "7": [
                    {
                        "number": 7,
                        "ticks": 0,
                        "time": 0,
                        "value": 0.6299212598425197
                    }
                ]
            },
            "pitchBends": [],
            "instrument": {
                "family": "organ",
                "number": 20,
                "name": "reed organ"
            },
            "name": "New Track           ",
            "notes": [
                {
                    "duration": 0.6666666666666666,
                    "durationTicks": 128,
                    "midi": 46,
                    "name": "A#2",
                    "ticks": 0,
                    "time": 0,
                    "velocity": 0.7874015748031497
                },
                {
                    "duration": 0.6666666666666666,
                    "durationTicks": 128,
                    "midi": 53,
                    "name": "F3",
                    "ticks": 0,
                    "time": 0,
                    "velocity": 0.7874015748031497
                },
                {
                    "duration": 0.16666666666666663,
                    "durationTicks": 32,
                    "midi": 46,
                    "name": "A#2",
                    "ticks": 144,
                    "time": 0.75,
                    "velocity": 0.7874015748031497
                },
                {
                    "duration": 0.16666666666666663,
                    "durationTicks": 32,
                    "midi": 53,
                    "name": "F3",
                    "ticks": 144,
                    "time": 0.75,
                    "velocity": 0.7874015748031497
                },
                {
                    "duration": 0.9166666666666667,
                    "durationTicks": 176,
                    "midi": 46,
                    "name": "A#2",
                    "ticks": 192,
                    "time": 1,
                    "velocity": 0.7874015748031497
                },
                {
                    "duration": 0.9166666666666667,
                    "durationTicks": 176,
                    "midi": 53,
                    "name": "F3",
                    "ticks": 192,
                    "time": 1,
                    "velocity": 0.7874015748031497
                },
                {
                    "duration": 0.9166666666666665,
                    "durationTicks": 176,
                    "midi": 46,
                    "name": "A#2",
                    "ticks": 384,
                    "time": 2,
                    "velocity": 0.7874015748031497
                },
                {
                    "duration": 0.9166666666666665,
                    "durationTicks": 176,
                    "midi": 53,
                    "name": "F3",
                    "ticks": 384,
                    "time": 2,
                    "velocity": 0.7874015748031497
                },
                {
                    "duration": 0.6666666666666665,
                    "durationTicks": 128,
                    "midi": 53,
                    "name": "F3",
                    "ticks": 576,
                    "time": 3,
                    "velocity": 0.7874015748031497
                },
                {
                    "duration": 0.6666666666666665,
                    "durationTicks": 128,
                    "midi": 48,
                    "name": "C3",
                    "ticks": 576,
                    "time": 3,
                    "velocity": 0.7874015748031497
                },
                {
                    "duration": 0.16666666666666652,
                    "durationTicks": 32,
                    "midi": 48,
                    "name": "C3",
                    "ticks": 720,
                    "time": 3.75,
                    "velocity": 0.7874015748031497
                },
                {
                    "duration": 0.16666666666666652,
                    "durationTicks": 32,
                    "midi": 53,
                    "name": "F3",
                    "ticks": 720,
                    "time": 3.75,
                    "velocity": 0.7874015748031497
                },
                {
                    "duration": 1.416666666666667,
                    "durationTicks": 272,
                    "midi": 48,
                    "name": "C3",
                    "ticks": 768,
                    "time": 4,
                    "velocity": 0.7874015748031497
                },
                {
                    "duration": 1.416666666666667,
                    "durationTicks": 272,
                    "midi": 53,
                    "name": "F3",
                    "ticks": 768,
                    "time": 4,
                    "velocity": 0.7874015748031497
                },
                {
                    "duration": 0.666666666666667,
                    "durationTicks": 128,
                    "midi": 45,
                    "name": "A2",
                    "ticks": 1152,
                    "time": 6,
                    "velocity": 0.7874015748031497
                },
                {
                    "duration": 0.16666666666666696,
                    "durationTicks": 32,
                    "midi": 45,
                    "name": "A2",
                    "ticks": 1296,
                    "time": 6.75,
                    "velocity": 0.7874015748031497
                },
                {
                    "duration": 0.916666666666667,
                    "durationTicks": 176,
                    "midi": 45,
                    "name": "A2",
                    "ticks": 1344,
                    "time": 7,
                    "velocity": 0.7874015748031497
                },
                {
                    "duration": 0.9166666666666661,
                    "durationTicks": 176,
                    "midi": 41,
                    "name": "F2",
                    "ticks": 1536,
                    "time": 8,
                    "velocity": 0.7874015748031497
                },
                {
                    "duration": 0.9166666666666661,
                    "durationTicks": 176,
                    "midi": 53,
                    "name": "F3",
                    "ticks": 1536,
                    "time": 8,
                    "velocity": 0.7874015748031497
                },
                {
                    "duration": 0.6666666666666661,
                    "durationTicks": 128,
                    "midi": 46,
                    "name": "A#2",
                    "ticks": 1728,
                    "time": 9,
                    "velocity": 0.7874015748031497
                },
                {
                    "duration": 0.6666666666666661,
                    "durationTicks": 128,
                    "midi": 53,
                    "name": "F3",
                    "ticks": 1728,
                    "time": 9,
                    "velocity": 0.7874015748031497
                },
                {
                    "duration": 0.17708333333333393,
                    "durationTicks": 34,
                    "midi": 46,
                    "name": "A#2",
                    "ticks": 1872,
                    "time": 9.75,
                    "velocity": 0.7874015748031497
                },
                {
                    "duration": 0.16666666666666607,
                    "durationTicks": 32,
                    "midi": 53,
                    "name": "F3",
                    "ticks": 1872,
                    "time": 9.75,
                    "velocity": 0.7874015748031497
                },
                {
                    "duration": 1,
                    "durationTicks": 192,
                    "midi": 46,
                    "name": "A#2",
                    "ticks": 1920,
                    "time": 10,
                    "velocity": 0.7874015748031497
                },
                {
                    "duration": 1,
                    "durationTicks": 192,
                    "midi": 53,
                    "name": "F3",
                    "ticks": 1920,
                    "time": 10,
                    "velocity": 0.7874015748031497
                },
                {
                    "duration": 0.9166666666666661,
                    "durationTicks": 176,
                    "midi": 46,
                    "name": "A#2",
                    "ticks": 2304,
                    "time": 12,
                    "velocity": 0.7874015748031497
                },
                {
                    "duration": 0.9166666666666661,
                    "durationTicks": 176,
                    "midi": 53,
                    "name": "F3",
                    "ticks": 2304,
                    "time": 12,
                    "velocity": 0.7874015748031497
                },
                {
                    "duration": 0.9166666666666661,
                    "durationTicks": 176,
                    "midi": 53,
                    "name": "F3",
                    "ticks": 2496,
                    "time": 13,
                    "velocity": 0.7874015748031497
                },
                {
                    "duration": 0.9166666666666661,
                    "durationTicks": 176,
                    "midi": 46,
                    "name": "A#2",
                    "ticks": 2496,
                    "time": 13,
                    "velocity": 0.7874015748031497
                },
                {
                    "duration": 0.9166666666666661,
                    "durationTicks": 176,
                    "midi": 53,
                    "name": "F3",
                    "ticks": 2688,
                    "time": 14,
                    "velocity": 0.7874015748031497
                },
                {
                    "duration": 0.9166666666666661,
                    "durationTicks": 176,
                    "midi": 45,
                    "name": "A2",
                    "ticks": 2688,
                    "time": 14,
                    "velocity": 0.7874015748031497
                },
                {
                    "duration": 1.9166666666666679,
                    "durationTicks": 368,
                    "midi": 55,
                    "name": "G3",
                    "ticks": 2880,
                    "time": 15,
                    "velocity": 0.7874015748031497
                },
                {
                    "duration": 0.9166666666666661,
                    "durationTicks": 176,
                    "midi": 43,
                    "name": "G2",
                    "ticks": 2880,
                    "time": 15,
                    "velocity": 0.7874015748031497
                },
                {
                    "duration": 0.9166666666666679,
                    "durationTicks": 176,
                    "midi": 48,
                    "name": "C3",
                    "ticks": 3072,
                    "time": 16,
                    "velocity": 0.7874015748031497
                },
                {
                    "duration": 0.9166666666666679,
                    "durationTicks": 176,
                    "midi": 41,
                    "name": "F2",
                    "ticks": 3264,
                    "time": 17,
                    "velocity": 0.7874015748031497
                },
                {
                    "duration": 0.9166666666666679,
                    "durationTicks": 176,
                    "midi": 53,
                    "name": "F3",
                    "ticks": 3264,
                    "time": 17,
                    "velocity": 0.7874015748031497
                },
                {
                    "duration": 0.9166666666666679,
                    "durationTicks": 176,
                    "midi": 46,
                    "name": "A#2",
                    "ticks": 3456,
                    "time": 18,
                    "velocity": 0.7874015748031497
                },
                {
                    "duration": 1.9166666666666679,
                    "durationTicks": 368,
                    "midi": 58,
                    "name": "A#3",
                    "ticks": 3456,
                    "time": 18,
                    "velocity": 0.7874015748031497
                },
                {
                    "duration": 0.9166666666666679,
                    "durationTicks": 176,
                    "midi": 55,
                    "name": "G3",
                    "ticks": 3648,
                    "time": 19,
                    "velocity": 0.7874015748031497
                },
                {
                    "duration": 0.41666666666666785,
                    "durationTicks": 80,
                    "midi": 48,
                    "name": "C3",
                    "ticks": 3840,
                    "time": 20,
                    "velocity": 0.7874015748031497
                },
                {
                    "duration": 2.416666666666668,
                    "durationTicks": 464,
                    "midi": 48,
                    "name": "C3",
                    "ticks": 4032,
                    "time": 21,
                    "velocity": 0.7874015748031497
                },
                {
                    "duration": 2.416666666666668,
                    "durationTicks": 464,
                    "midi": 41,
                    "name": "F2",
                    "ticks": 4032,
                    "time": 21,
                    "velocity": 0.7874015748031497
                },
                {
                    "duration": 0.9166666666666679,
                    "durationTicks": 176,
                    "midi": 41,
                    "name": "F2",
                    "ticks": 4608,
                    "time": 24,
                    "velocity": 0.7874015748031497
                },
                {
                    "duration": 0.9166666666666679,
                    "durationTicks": 176,
                    "midi": 53,
                    "name": "F3",
                    "ticks": 4800,
                    "time": 25,
                    "velocity": 0.7874015748031497
                },
                {
                    "duration": 0.9166666666666679,
                    "durationTicks": 176,
                    "midi": 41,
                    "name": "F2",
                    "ticks": 4992,
                    "time": 26,
                    "velocity": 0.7874015748031497
                },
                {
                    "duration": 0.9166666666666679,
                    "durationTicks": 176,
                    "midi": 41,
                    "name": "F2",
                    "ticks": 5184,
                    "time": 27,
                    "velocity": 0.7874015748031497
                },
                {
                    "duration": 0.9166666666666679,
                    "durationTicks": 176,
                    "midi": 53,
                    "name": "F3",
                    "ticks": 5376,
                    "time": 28,
                    "velocity": 0.7874015748031497
                },
                {
                    "duration": 0.9166666666666679,
                    "durationTicks": 176,
                    "midi": 41,
                    "name": "F2",
                    "ticks": 5568,
                    "time": 29,
                    "velocity": 0.7874015748031497
                },
                {
                    "duration": 1.9166666666666679,
                    "durationTicks": 368,
                    "midi": 41,
                    "name": "F2",
                    "ticks": 5760,
                    "time": 30,
                    "velocity": 0.7874015748031497
                },
                {
                    "duration": 0.9166666666666643,
                    "durationTicks": 176,
                    "midi": 46,
                    "name": "A#2",
                    "ticks": 6144,
                    "time": 32,
                    "velocity": 0.7874015748031497
                },
                {
                    "duration": 2,
                    "durationTicks": 384,
                    "midi": 53,
                    "name": "F3",
                    "ticks": 6336,
                    "time": 33,
                    "velocity": 0.7874015748031497
                },
                {
                    "duration": 0.9166666666666643,
                    "durationTicks": 176,
                    "midi": 41,
                    "name": "F2",
                    "ticks": 6912,
                    "time": 36,
                    "velocity": 0.7874015748031497
                },
                {
                    "duration": 0.9166666666666643,
                    "durationTicks": 176,
                    "midi": 53,
                    "name": "F3",
                    "ticks": 7104,
                    "time": 37,
                    "velocity": 0.7874015748031497
                },
                {
                    "duration": 0.9166666666666643,
                    "durationTicks": 176,
                    "midi": 51,
                    "name": "D#3",
                    "ticks": 7296,
                    "time": 38,
                    "velocity": 0.7874015748031497
                },
                {
                    "duration": 0.9166666666666643,
                    "durationTicks": 176,
                    "midi": 60,
                    "name": "C4",
                    "ticks": 7296,
                    "time": 38,
                    "velocity": 0.7874015748031497
                },
                {
                    "duration": 1.4166666666666643,
                    "durationTicks": 272,
                    "midi": 58,
                    "name": "A#3",
                    "ticks": 7488,
                    "time": 39,
                    "velocity": 0.7874015748031497
                },
                {
                    "duration": 1.4166666666666643,
                    "durationTicks": 272,
                    "midi": 50,
                    "name": "D3",
                    "ticks": 7488,
                    "time": 39,
                    "velocity": 0.7874015748031497
                },
                {
                    "duration": 0.4166666666666643,
                    "durationTicks": 80,
                    "midi": 48,
                    "name": "C3",
                    "ticks": 7776,
                    "time": 40.5,
                    "velocity": 0.7874015748031497
                },
                {
                    "duration": 0.4166666666666643,
                    "durationTicks": 80,
                    "midi": 57,
                    "name": "A3",
                    "ticks": 7776,
                    "time": 40.5,
                    "velocity": 0.7874015748031497
                },
                {
                    "duration": 0.9166666666666643,
                    "durationTicks": 176,
                    "midi": 46,
                    "name": "A#2",
                    "ticks": 7872,
                    "time": 41,
                    "velocity": 0.7874015748031497
                },
                {
                    "duration": 0.9166666666666643,
                    "durationTicks": 176,
                    "midi": 58,
                    "name": "A#3",
                    "ticks": 7872,
                    "time": 41,
                    "velocity": 0.7874015748031497
                },
                {
                    "duration": 2.9166666666666643,
                    "durationTicks": 560,
                    "midi": 53,
                    "name": "F3",
                    "ticks": 8064,
                    "time": 42,
                    "velocity": 0.7874015748031497
                },
                {
                    "duration": 1.9166666666666643,
                    "durationTicks": 368,
                    "midi": 45,
                    "name": "A2",
                    "ticks": 8064,
                    "time": 42,
                    "velocity": 0.7874015748031497
                },
                {
                    "duration": 0.9166666666666643,
                    "durationTicks": 176,
                    "midi": 46,
                    "name": "A#2",
                    "ticks": 8448,
                    "time": 44,
                    "velocity": 0.7874015748031497
                },
                {
                    "duration": 2,
                    "durationTicks": 384,
                    "midi": 53,
                    "name": "F3",
                    "ticks": 8640,
                    "time": 45,
                    "velocity": 0.7874015748031497
                },
                {
                    "duration": 2,
                    "durationTicks": 384,
                    "midi": 41,
                    "name": "F2",
                    "ticks": 8640,
                    "time": 45,
                    "velocity": 0.7874015748031497
                },
                {
                    "duration": 0.6666666666666643,
                    "durationTicks": 128,
                    "midi": 46,
                    "name": "A#2",
                    "ticks": 9216,
                    "time": 48,
                    "velocity": 0.7874015748031497
                },
                {
                    "duration": 0.6666666666666643,
                    "durationTicks": 128,
                    "midi": 53,
                    "name": "F3",
                    "ticks": 9216,
                    "time": 48,
                    "velocity": 0.7874015748031497
                },
                {
                    "duration": 0.1666666666666643,
                    "durationTicks": 32,
                    "midi": 46,
                    "name": "A#2",
                    "ticks": 9360,
                    "time": 48.75,
                    "velocity": 0.7874015748031497
                },
                {
                    "duration": 0.1666666666666643,
                    "durationTicks": 32,
                    "midi": 53,
                    "name": "F3",
                    "ticks": 9360,
                    "time": 48.75,
                    "velocity": 0.7874015748031497
                },
                {
                    "duration": 0.9166666666666643,
                    "durationTicks": 176,
                    "midi": 46,
                    "name": "A#2",
                    "ticks": 9408,
                    "time": 49,
                    "velocity": 0.7874015748031497
                },
                {
                    "duration": 0.9166666666666643,
                    "durationTicks": 176,
                    "midi": 53,
                    "name": "F3",
                    "ticks": 9408,
                    "time": 49,
                    "velocity": 0.7874015748031497
                },
                {
                    "duration": 0.9166666666666643,
                    "durationTicks": 176,
                    "midi": 50,
                    "name": "D3",
                    "ticks": 9600,
                    "time": 50,
                    "velocity": 0.7874015748031497
                },
                {
                    "duration": 0.6666666666666643,
                    "durationTicks": 128,
                    "midi": 51,
                    "name": "D#3",
                    "ticks": 9792,
                    "time": 51,
                    "velocity": 0.7874015748031497
                },
                {
                    "duration": 0.1666666666666643,
                    "durationTicks": 32,
                    "midi": 51,
                    "name": "D#3",
                    "ticks": 9936,
                    "time": 51.75,
                    "velocity": 0.7874015748031497
                },
                {
                    "duration": 1,
                    "durationTicks": 192,
                    "midi": 51,
                    "name": "D#3",
                    "ticks": 9984,
                    "time": 52,
                    "velocity": 0.7874015748031497
                },
                {
                    "duration": 0.6666666666666643,
                    "durationTicks": 128,
                    "midi": 51,
                    "name": "D#3",
                    "ticks": 10368,
                    "time": 54,
                    "velocity": 0.7874015748031497
                },
                {
                    "duration": 0.1666666666666643,
                    "durationTicks": 32,
                    "midi": 51,
                    "name": "D#3",
                    "ticks": 10512,
                    "time": 54.75,
                    "velocity": 0.7874015748031497
                },
                {
                    "duration": 0.9166666666666643,
                    "durationTicks": 176,
                    "midi": 51,
                    "name": "D#3",
                    "ticks": 10560,
                    "time": 55,
                    "velocity": 0.7874015748031497
                },
                {
                    "duration": 0.9166666666666643,
                    "durationTicks": 176,
                    "midi": 48,
                    "name": "C3",
                    "ticks": 10752,
                    "time": 56,
                    "velocity": 0.7874015748031497
                },
                {
                    "duration": 0.6666666666666643,
                    "durationTicks": 128,
                    "midi": 53,
                    "name": "F3",
                    "ticks": 10944,
                    "time": 57,
                    "velocity": 0.7874015748031497
                },
                {
                    "duration": 0.1666666666666643,
                    "durationTicks": 32,
                    "midi": 53,
                    "name": "F3",
                    "ticks": 11088,
                    "time": 57.75,
                    "velocity": 0.7874015748031497
                },
                {
                    "duration": 1.4166666666666643,
                    "durationTicks": 272,
                    "midi": 53,
                    "name": "F3",
                    "ticks": 11136,
                    "time": 58,
                    "velocity": 0.7874015748031497
                },
                {
                    "duration": 1.9166666666666643,
                    "durationTicks": 368,
                    "midi": 46,
                    "name": "A#2",
                    "ticks": 11520,
                    "time": 60,
                    "velocity": 0.7874015748031497
                },
                {
                    "duration": 0.9166666666666643,
                    "durationTicks": 176,
                    "midi": 58,
                    "name": "A#3",
                    "ticks": 11520,
                    "time": 60,
                    "velocity": 0.7874015748031497
                },
                {
                    "duration": 0.9166666666666643,
                    "durationTicks": 176,
                    "midi": 58,
                    "name": "A#3",
                    "ticks": 11712,
                    "time": 61,
                    "velocity": 0.7874015748031497
                },
                {
                    "duration": 0.9166666666666643,
                    "durationTicks": 176,
                    "midi": 51,
                    "name": "D#3",
                    "ticks": 11904,
                    "time": 62,
                    "velocity": 0.7874015748031497
                },
                {
                    "duration": 0.4166666666666643,
                    "durationTicks": 80,
                    "midi": 58,
                    "name": "A#3",
                    "ticks": 11904,
                    "time": 62,
                    "velocity": 0.7874015748031497
                },
                {
                    "duration": 0.4166666666666643,
                    "durationTicks": 80,
                    "midi": 55,
                    "name": "G3",
                    "ticks": 12000,
                    "time": 62.5,
                    "velocity": 0.7874015748031497
                },
                {
                    "duration": 1.9166666666666714,
                    "durationTicks": 368,
                    "midi": 53,
                    "name": "F3",
                    "ticks": 12096,
                    "time": 63,
                    "velocity": 0.7874015748031497
                },
                {
                    "duration": 0.9166666666666714,
                    "durationTicks": 176,
                    "midi": 54,
                    "name": "F#3",
                    "ticks": 12480,
                    "time": 65,
                    "velocity": 0.7874015748031497
                },
                {
                    "duration": 1.9166666666666714,
                    "durationTicks": 368,
                    "midi": 55,
                    "name": "G3",
                    "ticks": 12672,
                    "time": 66,
                    "velocity": 0.7874015748031497
                },
                {
                    "duration": 0.9166666666666714,
                    "durationTicks": 176,
                    "midi": 57,
                    "name": "A3",
                    "ticks": 13056,
                    "time": 68,
                    "velocity": 0.7874015748031497
                },
                {
                    "duration": 0.9166666666666714,
                    "durationTicks": 176,
                    "midi": 58,
                    "name": "A#3",
                    "ticks": 13248,
                    "time": 69,
                    "velocity": 0.7874015748031497
                },
                {
                    "duration": 0.9166666666666714,
                    "durationTicks": 176,
                    "midi": 46,
                    "name": "A#2",
                    "ticks": 13440,
                    "time": 70,
                    "velocity": 0.7874015748031497
                },
                {
                    "duration": 0.9166666666666714,
                    "durationTicks": 176,
                    "midi": 39,
                    "name": "D#2",
                    "ticks": 13632,
                    "time": 71,
                    "velocity": 0.7874015748031497
                },
                {
                    "duration": 0.9166666666666714,
                    "durationTicks": 176,
                    "midi": 51,
                    "name": "D#3",
                    "ticks": 13632,
                    "time": 71,
                    "velocity": 0.7874015748031497
                },
                {
                    "duration": 1.9166666666666714,
                    "durationTicks": 368,
                    "midi": 53,
                    "name": "F3",
                    "ticks": 13824,
                    "time": 72,
                    "velocity": 0.7874015748031497
                },
                {
                    "duration": 1.9166666666666714,
                    "durationTicks": 368,
                    "midi": 41,
                    "name": "F2",
                    "ticks": 13824,
                    "time": 72,
                    "velocity": 0.7874015748031497
                },
                {
                    "duration": 0.9166666666666714,
                    "durationTicks": 176,
                    "midi": 53,
                    "name": "F3",
                    "ticks": 14208,
                    "time": 74,
                    "velocity": 0.7874015748031497
                },
                {
                    "duration": 0.9166666666666714,
                    "durationTicks": 176,
                    "midi": 41,
                    "name": "F2",
                    "ticks": 14208,
                    "time": 74,
                    "velocity": 0.7874015748031497
                },
                {
                    "duration": 1.9166666666666714,
                    "durationTicks": 368,
                    "midi": 41,
                    "name": "F2",
                    "ticks": 14400,
                    "time": 75,
                    "velocity": 0.7874015748031497
                },
                {
                    "duration": 1.9166666666666714,
                    "durationTicks": 368,
                    "midi": 53,
                    "name": "F3",
                    "ticks": 14400,
                    "time": 75,
                    "velocity": 0.7874015748031497
                },
                {
                    "duration": 0.9166666666666714,
                    "durationTicks": 176,
                    "midi": 41,
                    "name": "F2",
                    "ticks": 14784,
                    "time": 77,
                    "velocity": 0.7874015748031497
                },
                {
                    "duration": 0.9166666666666714,
                    "durationTicks": 176,
                    "midi": 53,
                    "name": "F3",
                    "ticks": 14784,
                    "time": 77,
                    "velocity": 0.7874015748031497
                },
                {
                    "duration": 2.9166666666666714,
                    "durationTicks": 560,
                    "midi": 46,
                    "name": "A#2",
                    "ticks": 14976,
                    "time": 78,
                    "velocity": 0.7874015748031497
                }
            ],
            "endOfTrackTicks": 15536
        }
    ]
} as unknown as MidiTrack;
